<svg width="2212.6" height="45.45" viewBox="0 0 2212.6 45.45" xmlns="http://www.w3.org/2000/svg"><g id="svgGroup" stroke-linecap="round" fill-rule="evenodd" font-size="9pt" stroke="#000" stroke-width="0.25mm" fill="black" style="stroke:#000;stroke-width:0.25mm;fill:black"><path d="M 363.4 35.4 L 361.9 35.4 L 368.5 2.4 L 370.7 2.4 L 373.7 19.75 L 374.35 24.45 L 374.55 24.45 L 377.05 19.7 L 387.15 2.4 L 389.3 2.4 L 382.7 35.4 L 381.2 35.4 L 386.25 10.3 Q 386.4 9.55 386.575 8.775 L 386.925 7.225 Q 387.1 6.45 387.3 5.65 A 103.114 103.114 0 0 1 387.675 4.194 A 94.134 94.134 0 0 1 387.7 4.1 L 387.5 4.1 Q 387.1 4.95 386.65 5.825 A 97.944 97.944 0 0 1 385.824 7.395 A 108.106 108.106 0 0 1 385.7 7.625 A 86.521 86.521 0 0 1 385.175 8.581 A 106.697 106.697 0 0 1 384.6 9.6 L 374.85 26.35 L 373.35 26.35 L 370.6 9.55 A 65.968 65.968 0 0 0 370.494 8.931 A 79.087 79.087 0 0 0 370.375 8.275 Q 370.25 7.6 370.15 6.9 Q 370.05 6.2 369.925 5.475 A 83.949 83.949 0 0 1 369.806 4.769 A 70.947 70.947 0 0 1 369.7 4.1 L 369.5 4.1 A 52.767 52.767 0 0 1 369.162 6.084 A 57.354 57.354 0 0 1 369.15 6.15 Q 368.95 7.2 368.775 8.25 Q 368.6 9.3 368.4 10.3 L 363.4 35.4 Z M 963.4 35.4 L 961.9 35.4 L 968.5 2.4 L 970.7 2.4 L 973.7 19.75 L 974.35 24.45 L 974.55 24.45 L 977.05 19.7 L 987.15 2.4 L 989.3 2.4 L 982.7 35.4 L 981.2 35.4 L 986.25 10.3 Q 986.4 9.55 986.575 8.775 L 986.925 7.225 Q 987.1 6.45 987.3 5.65 A 103.114 103.114 0 0 1 987.675 4.194 A 94.134 94.134 0 0 1 987.7 4.1 L 987.5 4.1 Q 987.1 4.95 986.65 5.825 A 97.944 97.944 0 0 1 985.824 7.395 A 108.106 108.106 0 0 1 985.7 7.625 A 86.521 86.521 0 0 1 985.175 8.581 A 106.697 106.697 0 0 1 984.6 9.6 L 974.85 26.35 L 973.35 26.35 L 970.6 9.55 A 65.968 65.968 0 0 0 970.494 8.931 A 79.087 79.087 0 0 0 970.375 8.275 Q 970.25 7.6 970.15 6.9 Q 970.05 6.2 969.925 5.475 A 83.949 83.949 0 0 1 969.806 4.769 A 70.947 70.947 0 0 1 969.7 4.1 L 969.5 4.1 A 52.767 52.767 0 0 1 969.162 6.084 A 57.354 57.354 0 0 1 969.15 6.15 Q 968.95 7.2 968.775 8.25 Q 968.6 9.3 968.4 10.3 L 963.4 35.4 Z M 1023.7 35.4 L 1022.2 35.4 L 1028.8 2.4 L 1030.4 2.4 L 1039.3 26.8 L 1041.6 33.3 L 1041.8 33.3 Q 1042 32.15 1042.175 31.025 Q 1042.35 29.9 1042.55 28.775 Q 1042.75 27.65 1042.975 26.525 Q 1043.2 25.4 1043.4 24.3 L 1047.7 2.4 L 1049.2 2.4 L 1042.6 35.4 L 1041 35.4 L 1032.1 11 L 1029.8 4.5 L 1029.6 4.5 Q 1029.35 6.05 1029.1 7.525 Q 1028.85 9 1028.575 10.475 Q 1028.3 11.95 1028 13.5 L 1023.7 35.4 Z M 1533.7 35.4 L 1532.2 35.4 L 1538.8 2.4 L 1540.4 2.4 L 1549.3 26.8 L 1551.6 33.3 L 1551.8 33.3 Q 1552 32.15 1552.175 31.025 Q 1552.35 29.9 1552.55 28.775 Q 1552.75 27.65 1552.975 26.525 Q 1553.2 25.4 1553.4 24.3 L 1557.7 2.4 L 1559.2 2.4 L 1552.6 35.4 L 1551 35.4 L 1542.1 11 L 1539.8 4.5 L 1539.6 4.5 Q 1539.35 6.05 1539.1 7.525 Q 1538.85 9 1538.575 10.475 Q 1538.3 11.95 1538 13.5 L 1533.7 35.4 Z M 1653.7 35.4 L 1652.2 35.4 L 1658.8 2.4 L 1660.4 2.4 L 1669.3 26.8 L 1671.6 33.3 L 1671.8 33.3 Q 1672 32.15 1672.175 31.025 Q 1672.35 29.9 1672.55 28.775 Q 1672.75 27.65 1672.975 26.525 Q 1673.2 25.4 1673.4 24.3 L 1677.7 2.4 L 1679.2 2.4 L 1672.6 35.4 L 1671 35.4 L 1662.1 11 L 1659.8 4.5 L 1659.6 4.5 Q 1659.35 6.05 1659.1 7.525 Q 1658.85 9 1658.575 10.475 Q 1658.3 11.95 1658 13.5 L 1653.7 35.4 Z M 783.7 35.4 L 782.2 35.4 L 788.8 2.4 L 790.4 2.4 L 799.3 26.8 L 801.6 33.3 L 801.8 33.3 Q 802 32.15 802.175 31.025 Q 802.35 29.9 802.55 28.775 Q 802.75 27.65 802.975 26.525 Q 803.2 25.4 803.4 24.3 L 807.7 2.4 L 809.2 2.4 L 802.6 35.4 L 801 35.4 L 792.1 11 L 789.8 4.5 L 789.6 4.5 Q 789.35 6.05 789.1 7.525 Q 788.85 9 788.575 10.475 Q 788.3 11.95 788 13.5 L 783.7 35.4 Z M 93.4 35.4 L 91.9 35.4 L 98.5 2.4 L 100 2.4 L 97 17.2 L 114.8 17.2 L 117.8 2.4 L 119.3 2.4 L 112.7 35.4 L 111.2 35.4 L 114.6 18.5 L 96.8 18.5 L 93.4 35.4 Z M 2154 35.4 L 2134.3 35.4 L 2140.9 2.4 L 2160.2 2.4 L 2159.9 3.7 L 2142.1 3.7 L 2139.4 17.2 L 2154.3 17.2 L 2154 18.5 L 2139.2 18.5 L 2136 34.1 L 2154.3 34.1 L 2154 35.4 Z M 1404 35.4 L 1384.3 35.4 L 1390.9 2.4 L 1410.2 2.4 L 1409.9 3.7 L 1392.1 3.7 L 1389.4 17.2 L 1404.3 17.2 L 1404 18.5 L 1389.2 18.5 L 1386 34.1 L 1404.3 34.1 L 1404 35.4 Z M 1764 35.4 L 1744.3 35.4 L 1750.9 2.4 L 1770.2 2.4 L 1769.9 3.7 L 1752.1 3.7 L 1749.4 17.2 L 1764.3 17.2 L 1764 18.5 L 1749.2 18.5 L 1746 34.1 L 1764.3 34.1 L 1764 35.4 Z M 204 35.4 L 184.3 35.4 L 190.9 2.4 L 210.2 2.4 L 209.9 3.7 L 192.1 3.7 L 189.4 17.2 L 204.3 17.2 L 204 18.5 L 189.2 18.5 L 186 34.1 L 204.3 34.1 L 204 35.4 Z M 414 35.4 L 394.3 35.4 L 400.9 2.4 L 420.2 2.4 L 419.9 3.7 L 402.1 3.7 L 399.4 17.2 L 414.3 17.2 L 414 18.5 L 399.2 18.5 L 396 34.1 L 414.3 34.1 L 414 35.4 Z M 444 35.4 L 424.3 35.4 L 430.9 2.4 L 450.2 2.4 L 449.9 3.7 L 432.1 3.7 L 429.4 17.2 L 444.3 17.2 L 444 18.5 L 429.2 18.5 L 426 34.1 L 444.3 34.1 L 444 35.4 Z M 594 35.4 L 574.3 35.4 L 580.9 2.4 L 600.2 2.4 L 599.9 3.7 L 582.1 3.7 L 579.4 17.2 L 594.3 17.2 L 594 18.5 L 579.2 18.5 L 576 34.1 L 594.3 34.1 L 594 35.4 Z M 774 35.4 L 754.3 35.4 L 760.9 2.4 L 780.2 2.4 L 779.9 3.7 L 762.1 3.7 L 759.4 17.2 L 774.3 17.2 L 774 18.5 L 759.2 18.5 L 756 34.1 L 774.3 34.1 L 774 35.4 Z M 1908.75 35.4 L 1907.35 35.4 L 1912.3 10.45 Q 1912.55 9.3 1912.825 8.2 Q 1913.1 7.1 1913.4 6 L 1913.25 6 Q 1912.3 7 1911.375 7.975 Q 1910.45 8.95 1909.45 9.95 L 1894.65 24.25 L 1916.8 24.25 L 1916.45 25.55 L 1891.95 25.55 L 1892.1 24.8 L 1914.4 3.4 L 1915.15 3.4 L 1908.75 35.4 Z M 302.4 30.8 L 303.5 30 Q 304.3 31.05 305.525 32.125 A 9.306 9.306 0 0 0 307.003 33.175 A 12.692 12.692 0 0 0 308.6 33.95 Q 310.331 34.652 312.674 34.697 A 16.887 16.887 0 0 0 313 34.7 A 12.911 12.911 0 0 0 316.295 34.291 A 11.4 11.4 0 0 0 317.875 33.75 A 8.942 8.942 0 0 0 320.406 32.149 A 8.198 8.198 0 0 0 321.45 31 A 6.691 6.691 0 0 0 322.705 27.925 A 8.914 8.914 0 0 0 322.8 26.6 A 6.62 6.62 0 0 0 322.449 24.413 A 5.898 5.898 0 0 0 321.625 22.85 A 6.179 6.179 0 0 0 320.147 21.439 Q 319.455 20.958 318.573 20.575 A 12.089 12.089 0 0 0 317.95 20.325 A 13.859 13.859 0 0 0 315.869 19.75 Q 313.939 19.363 311.4 19.3 L 311.6 18 A 29.083 29.083 0 0 0 314.436 17.87 Q 315.857 17.73 317.06 17.441 A 13.204 13.204 0 0 0 318.8 16.9 A 11.901 11.901 0 0 0 320.696 15.966 Q 321.752 15.315 322.491 14.494 A 6.733 6.733 0 0 0 322.95 13.925 Q 324.3 12.05 324.3 9.8 A 6.641 6.641 0 0 0 324.083 8.053 A 4.605 4.605 0 0 0 322.425 5.55 Q 320.573 4.118 317.673 4.1 A 11.923 11.923 0 0 0 317.6 4.1 A 13.067 13.067 0 0 0 314.696 4.41 A 10.598 10.598 0 0 0 312.425 5.2 A 16.878 16.878 0 0 0 308.86 7.496 A 15.621 15.621 0 0 0 308.4 7.9 L 307.5 6.9 A 15.365 15.365 0 0 1 309.606 5.299 A 20.953 20.953 0 0 1 311.875 4.05 A 12.988 12.988 0 0 1 316.52 2.844 A 15.607 15.607 0 0 1 317.7 2.8 Q 320 2.8 321.8 3.55 A 6.629 6.629 0 0 1 323.84 4.857 A 6.198 6.198 0 0 1 324.65 5.8 A 5.687 5.687 0 0 1 325.564 8.009 A 7.835 7.835 0 0 1 325.7 9.5 A 9.121 9.121 0 0 1 325.144 12.731 A 8.247 8.247 0 0 1 323.475 15.425 A 8.826 8.826 0 0 1 320.893 17.328 Q 319.112 18.222 316.65 18.65 L 316.65 18.8 A 14.529 14.529 0 0 1 318.978 19.364 Q 321.01 20.051 322.275 21.3 A 6.375 6.375 0 0 1 324.117 25.068 A 8.899 8.899 0 0 1 324.2 26.3 Q 324.2 29.45 322.7 31.6 Q 321.2 33.75 318.65 34.875 A 13.183 13.183 0 0 1 314.883 35.885 A 16.58 16.58 0 0 1 312.9 36 A 16.424 16.424 0 0 1 310.725 35.864 Q 309.609 35.715 308.662 35.402 A 9.059 9.059 0 0 1 308.05 35.175 Q 306.05 34.35 304.675 33.15 Q 303.391 32.03 302.522 30.953 A 12.709 12.709 0 0 1 302.4 30.8 Z M 542.8 30.5 L 544 29.7 A 12.084 12.084 0 0 0 546.273 32.27 A 10.727 10.727 0 0 0 547.9 33.4 A 9.791 9.791 0 0 0 550.949 34.485 A 13.376 13.376 0 0 0 553.4 34.7 A 10.794 10.794 0 0 0 556.201 34.347 A 9.333 9.333 0 0 0 557.925 33.7 Q 559.95 32.7 561.125 30.875 A 7.371 7.371 0 0 0 562.235 27.714 A 9.381 9.381 0 0 0 562.3 26.6 A 7.173 7.173 0 0 0 562.059 24.7 A 5.709 5.709 0 0 0 561.125 22.775 A 9.283 9.283 0 0 0 559.143 20.834 A 11.551 11.551 0 0 0 558 20.1 L 553.6 17.5 Q 551.6 16.3 550 14.5 A 6.299 6.299 0 0 1 548.41 10.511 A 8.15 8.15 0 0 1 548.4 10.1 Q 548.4 7.9 549.55 6 A 8.42 8.42 0 0 1 552.511 3.101 A 10.012 10.012 0 0 1 552.775 2.95 A 9.116 9.116 0 0 1 555.942 1.913 A 11.784 11.784 0 0 1 557.6 1.8 Q 560.6 1.8 562.875 3.1 Q 565.15 4.4 566.4 6.2 L 565.3 7.1 A 10.326 10.326 0 0 0 563.117 4.984 A 12.707 12.707 0 0 0 562.025 4.275 A 8.655 8.655 0 0 0 558.844 3.204 A 11.163 11.163 0 0 0 557.3 3.1 Q 555.05 3.1 553.4 4.1 A 7.433 7.433 0 0 0 551.206 6.093 A 7.165 7.165 0 0 0 550.825 6.675 Q 549.9 8.25 549.9 9.9 Q 549.9 12.3 551.25 13.75 Q 552.6 15.2 554.3 16.2 L 558.6 18.7 A 15.772 15.772 0 0 1 560.514 20 A 13.464 13.464 0 0 1 561.325 20.7 Q 562.5 21.8 563.15 23.2 A 6.932 6.932 0 0 1 563.721 25.197 A 8.922 8.922 0 0 1 563.8 26.4 Q 563.8 29.3 562.4 31.45 Q 561 33.6 558.6 34.8 A 11.421 11.421 0 0 1 554.573 35.934 A 14.025 14.025 0 0 1 553.2 36 A 14.285 14.285 0 0 1 550.015 35.66 A 11.201 11.201 0 0 1 547.075 34.55 Q 544.45 33.1 542.8 30.5 Z M 1082.8 30.5 L 1084 29.7 A 12.084 12.084 0 0 0 1086.273 32.27 A 10.727 10.727 0 0 0 1087.9 33.4 A 9.791 9.791 0 0 0 1090.949 34.485 A 13.376 13.376 0 0 0 1093.4 34.7 A 10.794 10.794 0 0 0 1096.201 34.347 A 9.333 9.333 0 0 0 1097.925 33.7 Q 1099.95 32.7 1101.125 30.875 A 7.371 7.371 0 0 0 1102.235 27.714 A 9.381 9.381 0 0 0 1102.3 26.6 A 7.173 7.173 0 0 0 1102.059 24.7 A 5.709 5.709 0 0 0 1101.125 22.775 A 9.283 9.283 0 0 0 1099.143 20.834 A 11.551 11.551 0 0 0 1098 20.1 L 1093.6 17.5 Q 1091.6 16.3 1090 14.5 A 6.299 6.299 0 0 1 1088.41 10.511 A 8.15 8.15 0 0 1 1088.4 10.1 Q 1088.4 7.9 1089.55 6 A 8.42 8.42 0 0 1 1092.511 3.101 A 10.012 10.012 0 0 1 1092.775 2.95 A 9.116 9.116 0 0 1 1095.942 1.913 A 11.784 11.784 0 0 1 1097.6 1.8 Q 1100.6 1.8 1102.875 3.1 Q 1105.15 4.4 1106.4 6.2 L 1105.3 7.1 A 10.326 10.326 0 0 0 1103.117 4.984 A 12.707 12.707 0 0 0 1102.025 4.275 A 8.655 8.655 0 0 0 1098.844 3.204 A 11.163 11.163 0 0 0 1097.3 3.1 Q 1095.05 3.1 1093.4 4.1 A 7.433 7.433 0 0 0 1091.206 6.093 A 7.165 7.165 0 0 0 1090.825 6.675 Q 1089.9 8.25 1089.9 9.9 Q 1089.9 12.3 1091.25 13.75 Q 1092.6 15.2 1094.3 16.2 L 1098.6 18.7 A 15.772 15.772 0 0 1 1100.514 20 A 13.464 13.464 0 0 1 1101.325 20.7 Q 1102.5 21.8 1103.15 23.2 A 6.932 6.932 0 0 1 1103.721 25.197 A 8.922 8.922 0 0 1 1103.8 26.4 Q 1103.8 29.3 1102.4 31.45 Q 1101 33.6 1098.6 34.8 A 11.421 11.421 0 0 1 1094.573 35.934 A 14.025 14.025 0 0 1 1093.2 36 A 14.285 14.285 0 0 1 1090.015 35.66 A 11.201 11.201 0 0 1 1087.075 34.55 Q 1084.45 33.1 1082.8 30.5 Z M 1442.8 30.5 L 1444 29.7 A 12.084 12.084 0 0 0 1446.273 32.27 A 10.727 10.727 0 0 0 1447.9 33.4 A 9.791 9.791 0 0 0 1450.949 34.485 A 13.376 13.376 0 0 0 1453.4 34.7 A 10.794 10.794 0 0 0 1456.201 34.347 A 9.333 9.333 0 0 0 1457.925 33.7 Q 1459.95 32.7 1461.125 30.875 A 7.371 7.371 0 0 0 1462.235 27.714 A 9.381 9.381 0 0 0 1462.3 26.6 A 7.173 7.173 0 0 0 1462.059 24.7 A 5.709 5.709 0 0 0 1461.125 22.775 A 9.283 9.283 0 0 0 1459.143 20.834 A 11.551 11.551 0 0 0 1458 20.1 L 1453.6 17.5 Q 1451.6 16.3 1450 14.5 A 6.299 6.299 0 0 1 1448.41 10.511 A 8.15 8.15 0 0 1 1448.4 10.1 Q 1448.4 7.9 1449.55 6 A 8.42 8.42 0 0 1 1452.511 3.101 A 10.012 10.012 0 0 1 1452.775 2.95 A 9.116 9.116 0 0 1 1455.942 1.913 A 11.784 11.784 0 0 1 1457.6 1.8 Q 1460.6 1.8 1462.875 3.1 Q 1465.15 4.4 1466.4 6.2 L 1465.3 7.1 A 10.326 10.326 0 0 0 1463.117 4.984 A 12.707 12.707 0 0 0 1462.025 4.275 A 8.655 8.655 0 0 0 1458.844 3.204 A 11.163 11.163 0 0 0 1457.3 3.1 Q 1455.05 3.1 1453.4 4.1 A 7.433 7.433 0 0 0 1451.206 6.093 A 7.165 7.165 0 0 0 1450.825 6.675 Q 1449.9 8.25 1449.9 9.9 Q 1449.9 12.3 1451.25 13.75 Q 1452.6 15.2 1454.3 16.2 L 1458.6 18.7 A 15.772 15.772 0 0 1 1460.514 20 A 13.464 13.464 0 0 1 1461.325 20.7 Q 1462.5 21.8 1463.15 23.2 A 6.932 6.932 0 0 1 1463.721 25.197 A 8.922 8.922 0 0 1 1463.8 26.4 Q 1463.8 29.3 1462.4 31.45 Q 1461 33.6 1458.6 34.8 A 11.421 11.421 0 0 1 1454.573 35.934 A 14.025 14.025 0 0 1 1453.2 36 A 14.285 14.285 0 0 1 1450.015 35.66 A 11.201 11.201 0 0 1 1447.075 34.55 Q 1444.45 33.1 1442.8 30.5 Z M 1982.8 30.5 L 1984 29.7 A 12.084 12.084 0 0 0 1986.273 32.27 A 10.727 10.727 0 0 0 1987.9 33.4 A 9.791 9.791 0 0 0 1990.949 34.485 A 13.376 13.376 0 0 0 1993.4 34.7 A 10.794 10.794 0 0 0 1996.201 34.347 A 9.333 9.333 0 0 0 1997.925 33.7 Q 1999.95 32.7 2001.125 30.875 A 7.371 7.371 0 0 0 2002.235 27.714 A 9.381 9.381 0 0 0 2002.3 26.6 A 7.173 7.173 0 0 0 2002.059 24.7 A 5.709 5.709 0 0 0 2001.125 22.775 A 9.283 9.283 0 0 0 1999.143 20.834 A 11.551 11.551 0 0 0 1998 20.1 L 1993.6 17.5 Q 1991.6 16.3 1990 14.5 A 6.299 6.299 0 0 1 1988.41 10.511 A 8.15 8.15 0 0 1 1988.4 10.1 Q 1988.4 7.9 1989.55 6 A 8.42 8.42 0 0 1 1992.511 3.101 A 10.012 10.012 0 0 1 1992.775 2.95 A 9.116 9.116 0 0 1 1995.942 1.913 A 11.784 11.784 0 0 1 1997.6 1.8 Q 2000.6 1.8 2002.875 3.1 Q 2005.15 4.4 2006.4 6.2 L 2005.3 7.1 A 10.326 10.326 0 0 0 2003.117 4.984 A 12.707 12.707 0 0 0 2002.025 4.275 A 8.655 8.655 0 0 0 1998.844 3.204 A 11.163 11.163 0 0 0 1997.3 3.1 Q 1995.05 3.1 1993.4 4.1 A 7.433 7.433 0 0 0 1991.206 6.093 A 7.165 7.165 0 0 0 1990.825 6.675 Q 1989.9 8.25 1989.9 9.9 Q 1989.9 12.3 1991.25 13.75 Q 1992.6 15.2 1994.3 16.2 L 1998.6 18.7 A 15.772 15.772 0 0 1 2000.514 20 A 13.464 13.464 0 0 1 2001.325 20.7 Q 2002.5 21.8 2003.15 23.2 A 6.932 6.932 0 0 1 2003.721 25.197 A 8.922 8.922 0 0 1 2003.8 26.4 Q 2003.8 29.3 2002.4 31.45 Q 2001 33.6 1998.6 34.8 A 11.421 11.421 0 0 1 1994.573 35.934 A 14.025 14.025 0 0 1 1993.2 36 A 14.285 14.285 0 0 1 1990.015 35.66 A 11.201 11.201 0 0 1 1987.075 34.55 Q 1984.45 33.1 1982.8 30.5 Z M 2041.6 35.4 L 2040 35.4 L 2058.7 2.4 L 2060.2 2.4 L 2064.8 35.4 L 2063.3 35.4 L 2060.7 15.6 Q 2060.35 12.8 2060 9.8 Q 2059.65 6.8 2059.25 4.05 L 2059 4.05 A 484.135 484.135 0 0 0 2056.623 8.348 A 424.441 424.441 0 0 0 2055.875 9.725 A 7454.019 7454.019 0 0 1 2053.592 13.939 A 8394.915 8394.915 0 0 1 2052.8 15.4 L 2041.6 35.4 Z M 1171.6 35.4 L 1170 35.4 L 1188.7 2.4 L 1190.2 2.4 L 1194.8 35.4 L 1193.3 35.4 L 1190.7 15.6 Q 1190.35 12.8 1190 9.8 Q 1189.65 6.8 1189.25 4.05 L 1189 4.05 A 484.135 484.135 0 0 0 1186.623 8.348 A 424.441 424.441 0 0 0 1185.875 9.725 A 7454.019 7454.019 0 0 1 1183.592 13.939 A 8394.915 8394.915 0 0 1 1182.8 15.4 L 1171.6 35.4 Z M 1.6 35.4 L 0 35.4 L 18.7 2.4 L 20.2 2.4 L 24.8 35.4 L 23.3 35.4 L 20.7 15.6 Q 20.35 12.8 20 9.8 Q 19.65 6.8 19.25 4.05 L 19 4.05 A 484.135 484.135 0 0 0 16.623 8.348 A 424.441 424.441 0 0 0 15.875 9.725 A 7454.019 7454.019 0 0 1 13.592 13.939 A 8394.915 8394.915 0 0 1 12.8 15.4 L 1.6 35.4 Z M 901.6 35.4 L 900 35.4 L 918.7 2.4 L 920.2 2.4 L 924.8 35.4 L 923.3 35.4 L 920.7 15.6 Q 920.35 12.8 920 9.8 Q 919.65 6.8 919.25 4.05 L 919 4.05 A 484.135 484.135 0 0 0 916.623 8.348 A 424.441 424.441 0 0 0 915.875 9.725 A 7454.019 7454.019 0 0 1 913.592 13.939 A 8394.915 8394.915 0 0 1 912.8 15.4 L 901.6 35.4 Z M 511.6 35.4 L 510 35.4 L 528.7 2.4 L 530.2 2.4 L 534.8 35.4 L 533.3 35.4 L 530.7 15.6 Q 530.35 12.8 530 9.8 Q 529.65 6.8 529.25 4.05 L 529 4.05 A 484.135 484.135 0 0 0 526.623 8.348 A 424.441 424.441 0 0 0 525.875 9.725 A 7454.019 7454.019 0 0 1 523.592 13.939 A 8394.915 8394.915 0 0 1 522.8 15.4 L 511.6 35.4 Z M 1363.2 35.4 L 1361.5 35.4 L 1357.9 2.4 L 1359.3 2.4 L 1361.4 22.35 Q 1361.7 25.1 1362 27.9 L 1362.6 33.5 L 1362.8 33.5 A 458.481 458.481 0 0 1 1364.647 30.037 A 501.986 501.986 0 0 1 1364.775 29.8 Q 1365.8 27.9 1366.825 26.025 A 1444.217 1444.217 0 0 0 1368.32 23.283 A 1297.719 1297.719 0 0 0 1368.8 22.4 L 1379.7 2.4 L 1381.25 2.4 L 1363.2 35.4 Z M 1783.2 35.4 L 1781.5 35.4 L 1777.9 2.4 L 1779.3 2.4 L 1781.4 22.35 Q 1781.7 25.1 1782 27.9 L 1782.6 33.5 L 1782.8 33.5 A 458.481 458.481 0 0 1 1784.647 30.037 A 501.986 501.986 0 0 1 1784.775 29.8 Q 1785.8 27.9 1786.825 26.025 A 1444.217 1444.217 0 0 0 1788.32 23.283 A 1297.719 1297.719 0 0 0 1788.8 22.4 L 1799.7 2.4 L 1801.25 2.4 L 1783.2 35.4 Z M 163.2 35.4 L 161.5 35.4 L 157.9 2.4 L 159.3 2.4 L 161.4 22.35 Q 161.7 25.1 162 27.9 L 162.6 33.5 L 162.8 33.5 A 458.481 458.481 0 0 1 164.647 30.037 A 501.986 501.986 0 0 1 164.775 29.8 Q 165.8 27.9 166.825 26.025 A 1444.217 1444.217 0 0 0 168.32 23.283 A 1297.719 1297.719 0 0 0 168.8 22.4 L 179.7 2.4 L 181.25 2.4 L 163.2 35.4 Z M 1071.6 35.4 L 1052.9 35.4 L 1053.2 34.1 L 1061.7 34.1 L 1067.8 3.7 L 1059.2 3.7 L 1059.5 2.4 L 1078.3 2.4 L 1078 3.7 L 1069.3 3.7 L 1063.2 34.1 L 1071.9 34.1 L 1071.6 35.4 Z M 1491.6 35.4 L 1472.9 35.4 L 1473.2 34.1 L 1481.7 34.1 L 1487.8 3.7 L 1479.2 3.7 L 1479.5 2.4 L 1498.3 2.4 L 1498 3.7 L 1489.3 3.7 L 1483.2 34.1 L 1491.9 34.1 L 1491.6 35.4 Z M 1641.6 35.4 L 1622.9 35.4 L 1623.2 34.1 L 1631.7 34.1 L 1637.8 3.7 L 1629.2 3.7 L 1629.5 2.4 L 1648.3 2.4 L 1648 3.7 L 1639.3 3.7 L 1633.2 34.1 L 1641.9 34.1 L 1641.6 35.4 Z M 741.6 35.4 L 722.9 35.4 L 723.2 34.1 L 731.7 34.1 L 737.8 3.7 L 729.2 3.7 L 729.5 2.4 L 748.3 2.4 L 748 3.7 L 739.3 3.7 L 733.2 34.1 L 741.9 34.1 L 741.6 35.4 Z M 1011.6 35.4 L 992.9 35.4 L 993.2 34.1 L 1001.7 34.1 L 1007.8 3.7 L 999.2 3.7 L 999.5 2.4 L 1018.3 2.4 L 1018 3.7 L 1009.3 3.7 L 1003.2 34.1 L 1011.9 34.1 L 1011.6 35.4 Z M 141.6 35.4 L 122.9 35.4 L 123.2 34.1 L 131.7 34.1 L 137.8 3.7 L 129.2 3.7 L 129.5 2.4 L 148.3 2.4 L 148 3.7 L 139.3 3.7 L 133.2 34.1 L 141.9 34.1 L 141.6 35.4 Z M 1970.4 43 L 1957.5 43 L 1966.1 0 L 1978.9 0 L 1978.7 1.1 L 1967.1 1.1 L 1959 41.9 L 1970.6 41.9 L 1970.4 43 Z M 650.4 43 L 637.5 43 L 646.1 0 L 658.9 0 L 658.7 1.1 L 647.1 1.1 L 639 41.9 L 650.6 41.9 L 650.4 43 Z M 2174 43 L 2161.2 43 L 2161.4 41.9 L 2173 41.9 L 2181.1 1.1 L 2169.5 1.1 L 2169.7 0 L 2182.6 0 L 2174 43 Z M 2204 43 L 2191.2 43 L 2191.4 41.9 L 2203 41.9 L 2211.1 1.1 L 2199.5 1.1 L 2199.7 0 L 2212.6 0 L 2204 43 Z M 1686.8 35.4 L 1685.3 35.4 L 1691.9 2.4 L 1710.9 2.4 L 1710.6 3.7 L 1693.1 3.7 L 1690.3 17.8 L 1704.9 17.8 L 1704.6 19.1 L 1690.1 19.1 L 1686.8 35.4 Z M 88.8 6.4 L 87.6 7.2 Q 86.65 5.4 85.05 4.25 A 6.012 6.012 0 0 0 82.594 3.23 A 8.246 8.246 0 0 0 81.1 3.1 A 12.094 12.094 0 0 0 77.77 3.546 A 10.604 10.604 0 0 0 75.85 4.3 Q 73.5 5.5 71.675 7.575 Q 69.85 9.65 68.6 12.2 Q 67.35 14.75 66.725 17.5 A 25.069 25.069 0 0 0 66.161 21.187 A 21.635 21.635 0 0 0 66.1 22.8 A 19.378 19.378 0 0 0 66.382 26.176 A 15.406 15.406 0 0 0 67.1 28.85 A 9.739 9.739 0 0 0 68.607 31.564 A 8.646 8.646 0 0 0 70.225 33.125 Q 72.35 34.7 75.7 34.7 A 10.998 10.998 0 0 0 78.481 34.358 A 9.632 9.632 0 0 0 80 33.825 A 15.462 15.462 0 0 0 82.634 32.303 A 18.72 18.72 0 0 0 83.8 31.4 L 84.7 32.4 Q 83.3 33.55 81.9 34.35 Q 80.5 35.15 78.95 35.575 A 11.972 11.972 0 0 1 76.701 35.958 A 14.31 14.31 0 0 1 75.6 36 Q 71.97 36 69.543 34.363 A 8.438 8.438 0 0 1 69.45 34.3 A 10.146 10.146 0 0 1 65.881 29.868 A 12.203 12.203 0 0 1 65.8 29.675 A 15.945 15.945 0 0 1 64.742 25.524 A 20.123 20.123 0 0 1 64.6 23.1 Q 64.6 20.2 65.325 17.2 Q 66.05 14.2 67.425 11.45 Q 68.8 8.7 70.825 6.525 Q 72.85 4.35 75.45 3.075 A 12.599 12.599 0 0 1 80.229 1.831 A 14.963 14.963 0 0 1 81.2 1.8 A 9.568 9.568 0 0 1 83.299 2.019 A 6.8 6.8 0 0 1 85.85 3.15 Q 87.7 4.5 88.8 6.4 Z M 688.8 6.4 L 687.6 7.2 Q 686.65 5.4 685.05 4.25 A 6.012 6.012 0 0 0 682.594 3.23 A 8.246 8.246 0 0 0 681.1 3.1 A 12.094 12.094 0 0 0 677.77 3.546 A 10.604 10.604 0 0 0 675.85 4.3 Q 673.5 5.5 671.675 7.575 Q 669.85 9.65 668.6 12.2 Q 667.35 14.75 666.725 17.5 A 25.069 25.069 0 0 0 666.161 21.187 A 21.635 21.635 0 0 0 666.1 22.8 A 19.378 19.378 0 0 0 666.382 26.176 A 15.406 15.406 0 0 0 667.1 28.85 A 9.739 9.739 0 0 0 668.607 31.564 A 8.646 8.646 0 0 0 670.225 33.125 Q 672.35 34.7 675.7 34.7 A 10.998 10.998 0 0 0 678.481 34.358 A 9.632 9.632 0 0 0 680 33.825 A 15.462 15.462 0 0 0 682.634 32.303 A 18.72 18.72 0 0 0 683.8 31.4 L 684.7 32.4 Q 683.3 33.55 681.9 34.35 Q 680.5 35.15 678.95 35.575 A 11.972 11.972 0 0 1 676.701 35.958 A 14.31 14.31 0 0 1 675.6 36 Q 671.97 36 669.543 34.363 A 8.438 8.438 0 0 1 669.45 34.3 A 10.146 10.146 0 0 1 665.881 29.868 A 12.203 12.203 0 0 1 665.8 29.675 A 15.945 15.945 0 0 1 664.742 25.524 A 20.123 20.123 0 0 1 664.6 23.1 Q 664.6 20.2 665.325 17.2 Q 666.05 14.2 667.425 11.45 Q 668.8 8.7 670.825 6.525 Q 672.85 4.35 675.45 3.075 A 12.599 12.599 0 0 1 680.229 1.831 A 14.963 14.963 0 0 1 681.2 1.8 A 9.568 9.568 0 0 1 683.299 2.019 A 6.8 6.8 0 0 1 685.85 3.15 Q 687.7 4.5 688.8 6.4 Z M 1853.6 35.4 L 1833.1 35.4 L 1833.4 34.1 L 1843 34.1 L 1848.6 6.3 L 1841.5 6.3 L 1841.7 5.3 Q 1843.95 5.05 1846.05 4.55 Q 1848.15 4.05 1849.4 3.4 L 1850.6 3.4 L 1844.4 34.1 L 1853.8 34.1 L 1853.6 35.4 Z M 1123 35.4 L 1121.5 35.4 L 1127.8 3.8 L 1116.1 3.8 L 1116.4 2.4 L 1141.3 2.4 L 1141 3.8 L 1129.3 3.8 L 1123 35.4 Z M 1213 35.4 L 1211.5 35.4 L 1217.8 3.8 L 1206.1 3.8 L 1206.4 2.4 L 1231.3 2.4 L 1231 3.8 L 1219.3 3.8 L 1213 35.4 Z M 2023 35.4 L 2021.5 35.4 L 2027.8 3.8 L 2016.1 3.8 L 2016.4 2.4 L 2041.3 2.4 L 2041 3.8 L 2029.3 3.8 L 2023 35.4 Z M 463 35.4 L 461.5 35.4 L 467.8 3.8 L 456.1 3.8 L 456.4 2.4 L 481.3 2.4 L 481 3.8 L 469.3 3.8 L 463 35.4 Z M 823 35.4 L 821.5 35.4 L 827.8 3.8 L 816.1 3.8 L 816.4 2.4 L 841.3 2.4 L 841 3.8 L 829.3 3.8 L 823 35.4 Z M 492.6 35.4 L 483.1 35.4 L 489.7 2.4 L 497.5 2.4 A 20.477 20.477 0 0 1 499.687 2.51 Q 501.505 2.705 502.85 3.25 A 7.756 7.756 0 0 1 504.431 4.101 A 5.766 5.766 0 0 1 505.975 5.7 A 6.437 6.437 0 0 1 506.91 8.247 A 8.417 8.417 0 0 1 507 9.5 Q 507 12 505.775 13.775 A 9.303 9.303 0 0 1 503.667 15.983 A 8.641 8.641 0 0 1 502.8 16.55 A 12.373 12.373 0 0 1 501.333 17.271 Q 500.562 17.585 499.834 17.738 A 7.192 7.192 0 0 1 499.5 17.8 L 499.5 18 Q 501.1 18.35 502.55 19.225 Q 504 20.1 504.9 21.55 A 5.816 5.816 0 0 1 505.65 23.494 A 8.176 8.176 0 0 1 505.8 25.1 A 12.205 12.205 0 0 1 505.548 27.647 Q 505.155 29.489 504.15 30.875 A 9.372 9.372 0 0 1 500.847 33.684 A 12.002 12.002 0 0 1 499.525 34.275 Q 496.55 35.4 492.6 35.4 Z M 2082.6 35.4 L 2073.1 35.4 L 2079.7 2.4 L 2087.5 2.4 A 20.477 20.477 0 0 1 2089.687 2.51 Q 2091.505 2.705 2092.85 3.25 A 7.756 7.756 0 0 1 2094.431 4.101 A 5.766 5.766 0 0 1 2095.975 5.7 A 6.437 6.437 0 0 1 2096.91 8.247 A 8.417 8.417 0 0 1 2097 9.5 Q 2097 12 2095.775 13.775 A 9.303 9.303 0 0 1 2093.667 15.983 A 8.641 8.641 0 0 1 2092.8 16.55 A 12.373 12.373 0 0 1 2091.333 17.271 Q 2090.562 17.585 2089.834 17.738 A 7.192 7.192 0 0 1 2089.5 17.8 L 2089.5 18 Q 2091.1 18.35 2092.55 19.225 Q 2094 20.1 2094.9 21.55 A 5.816 5.816 0 0 1 2095.65 23.494 A 8.176 8.176 0 0 1 2095.8 25.1 A 12.205 12.205 0 0 1 2095.548 27.647 Q 2095.155 29.489 2094.15 30.875 A 9.372 9.372 0 0 1 2090.847 33.684 A 12.002 12.002 0 0 1 2089.525 34.275 Q 2086.55 35.4 2082.6 35.4 Z M 715.8 35.4 L 696.7 35.4 L 703.3 2.4 L 704.8 2.4 L 698.5 34.1 L 716.1 34.1 L 715.8 35.4 Z M 2125.8 35.4 L 2106.7 35.4 L 2113.3 2.4 L 2114.8 2.4 L 2108.5 34.1 L 2126.1 34.1 L 2125.8 35.4 Z M 219.7 35.4 L 211.9 35.4 L 218.5 2.4 L 224.4 2.4 A 21.351 21.351 0 0 1 228.157 2.708 Q 232.237 3.439 234.575 5.9 Q 237.9 9.4 237.9 15.2 Q 237.9 19.4 236.75 23.075 Q 235.6 26.75 233.325 29.5 Q 231.05 32.25 227.65 33.825 Q 224.25 35.4 219.7 35.4 Z M 1719.7 35.4 L 1711.9 35.4 L 1718.5 2.4 L 1724.4 2.4 A 21.351 21.351 0 0 1 1728.157 2.708 Q 1732.237 3.439 1734.575 5.9 Q 1737.9 9.4 1737.9 15.2 Q 1737.9 19.4 1736.75 23.075 Q 1735.6 26.75 1733.325 29.5 Q 1731.05 32.25 1727.65 33.825 Q 1724.25 35.4 1719.7 35.4 Z M 939.7 35.4 L 931.9 35.4 L 938.5 2.4 L 944.4 2.4 A 21.351 21.351 0 0 1 948.157 2.708 Q 952.237 3.439 954.575 5.9 Q 957.9 9.4 957.9 15.2 Q 957.9 19.4 956.75 23.075 Q 955.6 26.75 953.325 29.5 Q 951.05 32.25 947.65 33.825 Q 944.25 35.4 939.7 35.4 Z M 1144.4 35.4 L 1142.9 35.4 L 1149.5 2.4 L 1157.5 2.4 A 20.228 20.228 0 0 1 1159.761 2.52 Q 1161.313 2.695 1162.575 3.125 Q 1164.7 3.85 1165.85 5.425 A 5.711 5.711 0 0 1 1166.772 7.457 Q 1166.968 8.256 1166.995 9.191 A 10.499 10.499 0 0 1 1167 9.5 A 10.729 10.729 0 0 1 1166.707 12.05 A 9.025 9.025 0 0 1 1166.075 13.825 Q 1165.15 15.75 1163.475 17.1 Q 1161.8 18.45 1159.525 19.175 A 15.505 15.505 0 0 1 1155.902 19.855 A 18.4 18.4 0 0 1 1154.6 19.9 L 1147.5 19.9 L 1144.4 35.4 Z M 1264.4 35.4 L 1262.9 35.4 L 1269.5 2.4 L 1277.5 2.4 A 20.228 20.228 0 0 1 1279.761 2.52 Q 1281.313 2.695 1282.575 3.125 Q 1284.7 3.85 1285.85 5.425 A 5.711 5.711 0 0 1 1286.772 7.457 Q 1286.968 8.256 1286.995 9.191 A 10.499 10.499 0 0 1 1287 9.5 A 10.729 10.729 0 0 1 1286.707 12.05 A 9.025 9.025 0 0 1 1286.075 13.825 Q 1285.15 15.75 1283.475 17.1 Q 1281.8 18.45 1279.525 19.175 A 15.505 15.505 0 0 1 1275.902 19.855 A 18.4 18.4 0 0 1 1274.6 19.9 L 1267.5 19.9 L 1264.4 35.4 Z M 1414.4 35.4 L 1412.9 35.4 L 1419.5 2.4 L 1427.5 2.4 A 20.228 20.228 0 0 1 1429.761 2.52 Q 1431.313 2.695 1432.575 3.125 Q 1434.7 3.85 1435.85 5.425 A 5.711 5.711 0 0 1 1436.772 7.457 Q 1436.968 8.256 1436.995 9.191 A 10.499 10.499 0 0 1 1437 9.5 A 10.729 10.729 0 0 1 1436.707 12.05 A 9.025 9.025 0 0 1 1436.075 13.825 Q 1435.15 15.75 1433.475 17.1 Q 1431.8 18.45 1429.525 19.175 A 15.505 15.505 0 0 1 1425.902 19.855 A 18.4 18.4 0 0 1 1424.6 19.9 L 1417.5 19.9 L 1414.4 35.4 Z M 34.4 35.4 L 32.9 35.4 L 39.5 2.4 L 47.5 2.4 A 20.228 20.228 0 0 1 49.761 2.52 Q 51.313 2.695 52.575 3.125 Q 54.7 3.85 55.85 5.425 A 5.711 5.711 0 0 1 56.772 7.457 Q 56.968 8.256 56.995 9.191 A 10.499 10.499 0 0 1 57 9.5 A 10.729 10.729 0 0 1 56.707 12.05 A 9.025 9.025 0 0 1 56.075 13.825 Q 55.15 15.75 53.475 17.1 Q 51.8 18.45 49.525 19.175 A 15.505 15.505 0 0 1 45.902 19.855 A 18.4 18.4 0 0 1 44.6 19.9 L 37.5 19.9 L 34.4 35.4 Z M 1240.504 35.689 A 11.161 11.161 0 0 0 1243.2 36 A 13.183 13.183 0 0 0 1243.951 35.979 A 11.017 11.017 0 0 0 1248.55 34.725 Q 1250.95 33.45 1252.775 31.25 A 20.294 20.294 0 0 0 1253.222 30.691 A 21.95 21.95 0 0 0 1255.85 26.275 Q 1257.1 23.5 1257.75 20.475 Q 1258.4 17.45 1258.4 14.5 A 20.014 20.014 0 0 0 1258.202 11.63 A 15.261 15.261 0 0 0 1257.2 7.925 A 12.178 12.178 0 0 0 1256.711 6.891 A 9.809 9.809 0 0 0 1253.7 3.425 A 8.556 8.556 0 0 0 1250.796 2.111 A 11.161 11.161 0 0 0 1248.1 1.8 A 13.183 13.183 0 0 0 1247.349 1.821 A 11.017 11.017 0 0 0 1242.75 3.075 Q 1240.35 4.35 1238.525 6.55 A 20.294 20.294 0 0 0 1238.078 7.109 A 21.95 21.95 0 0 0 1235.45 11.525 Q 1234.2 14.3 1233.55 17.325 Q 1232.9 20.35 1232.9 23.3 A 20.014 20.014 0 0 0 1233.098 26.17 A 15.261 15.261 0 0 0 1234.1 29.875 A 12.178 12.178 0 0 0 1234.589 30.909 A 9.809 9.809 0 0 0 1237.6 34.375 A 8.556 8.556 0 0 0 1240.504 35.689 Z M 1510.504 35.689 A 11.161 11.161 0 0 0 1513.2 36 A 13.183 13.183 0 0 0 1513.951 35.979 A 11.017 11.017 0 0 0 1518.55 34.725 Q 1520.95 33.45 1522.775 31.25 A 20.294 20.294 0 0 0 1523.222 30.691 A 21.95 21.95 0 0 0 1525.85 26.275 Q 1527.1 23.5 1527.75 20.475 Q 1528.4 17.45 1528.4 14.5 A 20.014 20.014 0 0 0 1528.202 11.63 A 15.261 15.261 0 0 0 1527.2 7.925 A 12.178 12.178 0 0 0 1526.711 6.891 A 9.809 9.809 0 0 0 1523.7 3.425 A 8.556 8.556 0 0 0 1520.796 2.111 A 11.161 11.161 0 0 0 1518.1 1.8 A 13.183 13.183 0 0 0 1517.349 1.821 A 11.017 11.017 0 0 0 1512.75 3.075 Q 1510.35 4.35 1508.525 6.55 A 20.294 20.294 0 0 0 1508.078 7.109 A 21.95 21.95 0 0 0 1505.45 11.525 Q 1504.2 14.3 1503.55 17.325 Q 1502.9 20.35 1502.9 23.3 A 20.014 20.014 0 0 0 1503.098 26.17 A 15.261 15.261 0 0 0 1504.1 29.875 A 12.178 12.178 0 0 0 1504.589 30.909 A 9.809 9.809 0 0 0 1507.6 34.375 A 8.556 8.556 0 0 0 1510.504 35.689 Z M 294.7 30.55 L 294.7 32.3 L 276.6 19.55 L 276.6 18.05 L 294.7 5.3 L 294.7 7.05 L 278.1 18.7 L 278.1 18.9 L 294.7 30.55 Z M 1719.7 3.7 L 1713.6 34.1 L 1719.8 34.1 A 19.337 19.337 0 0 0 1724.054 33.655 A 14.099 14.099 0 0 0 1728.9 31.6 Q 1732.6 29.1 1734.5 24.825 A 22.148 22.148 0 0 0 1736.274 17.942 A 27.084 27.084 0 0 0 1736.4 15.3 A 14.799 14.799 0 0 0 1735.964 11.612 A 10.708 10.708 0 0 0 1733.425 6.9 A 9.25 9.25 0 0 0 1729.513 4.451 Q 1727.279 3.7 1724.3 3.7 L 1719.7 3.7 Z M 219.7 3.7 L 213.6 34.1 L 219.8 34.1 A 19.337 19.337 0 0 0 224.054 33.655 A 14.099 14.099 0 0 0 228.9 31.6 Q 232.6 29.1 234.5 24.825 A 22.148 22.148 0 0 0 236.274 17.942 A 27.084 27.084 0 0 0 236.4 15.3 A 14.799 14.799 0 0 0 235.964 11.612 A 10.708 10.708 0 0 0 233.425 6.9 A 9.25 9.25 0 0 0 229.513 4.451 Q 227.279 3.7 224.3 3.7 L 219.7 3.7 Z M 939.7 3.7 L 933.6 34.1 L 939.8 34.1 A 19.337 19.337 0 0 0 944.054 33.655 A 14.099 14.099 0 0 0 948.9 31.6 Q 952.6 29.1 954.5 24.825 A 22.148 22.148 0 0 0 956.274 17.942 A 27.084 27.084 0 0 0 956.4 15.3 A 14.799 14.799 0 0 0 955.964 11.612 A 10.708 10.708 0 0 0 953.425 6.9 A 9.25 9.25 0 0 0 949.513 4.451 Q 947.279 3.7 944.3 3.7 L 939.7 3.7 Z M 1243.3 34.7 Q 1245.95 34.7 1248.1 33.475 A 13.034 13.034 0 0 0 1251.586 30.557 A 14.994 14.994 0 0 0 1251.9 30.175 A 19.815 19.815 0 0 0 1254.493 25.863 A 22.196 22.196 0 0 0 1254.65 25.5 Q 1255.75 22.9 1256.325 20.1 Q 1256.9 17.3 1256.9 14.7 Q 1256.9 11.3 1255.925 8.675 A 9.873 9.873 0 0 0 1254.723 6.37 A 8.061 8.061 0 0 0 1252.975 4.575 A 7.238 7.238 0 0 0 1250.065 3.299 A 10.206 10.206 0 0 0 1248 3.1 Q 1245.35 3.1 1243.2 4.325 A 13.034 13.034 0 0 0 1239.714 7.243 A 14.994 14.994 0 0 0 1239.4 7.625 A 19.815 19.815 0 0 0 1236.807 11.937 A 22.196 22.196 0 0 0 1236.65 12.3 Q 1235.55 14.9 1234.975 17.7 Q 1234.4 20.5 1234.4 23.1 Q 1234.4 26.5 1235.375 29.125 A 9.873 9.873 0 0 0 1236.577 31.43 A 8.061 8.061 0 0 0 1238.325 33.225 A 7.238 7.238 0 0 0 1241.235 34.501 A 10.206 10.206 0 0 0 1243.3 34.7 Z M 1513.3 34.7 Q 1515.95 34.7 1518.1 33.475 A 13.034 13.034 0 0 0 1521.586 30.557 A 14.994 14.994 0 0 0 1521.9 30.175 A 19.815 19.815 0 0 0 1524.493 25.863 A 22.196 22.196 0 0 0 1524.65 25.5 Q 1525.75 22.9 1526.325 20.1 Q 1526.9 17.3 1526.9 14.7 Q 1526.9 11.3 1525.925 8.675 A 9.873 9.873 0 0 0 1524.723 6.37 A 8.061 8.061 0 0 0 1522.975 4.575 A 7.238 7.238 0 0 0 1520.065 3.299 A 10.206 10.206 0 0 0 1518 3.1 Q 1515.35 3.1 1513.2 4.325 A 13.034 13.034 0 0 0 1509.714 7.243 A 14.994 14.994 0 0 0 1509.4 7.625 A 19.815 19.815 0 0 0 1506.807 11.937 A 22.196 22.196 0 0 0 1506.65 12.3 Q 1505.55 14.9 1504.975 17.7 Q 1504.4 20.5 1504.4 23.1 Q 1504.4 26.5 1505.375 29.125 A 9.873 9.873 0 0 0 1506.577 31.43 A 8.061 8.061 0 0 0 1508.325 33.225 A 7.238 7.238 0 0 0 1511.235 34.501 A 10.206 10.206 0 0 0 1513.3 34.7 Z M 2078 18.5 L 2074.8 34.1 L 2081.7 34.1 Q 2085.45 34.1 2088.3 33.225 A 10.542 10.542 0 0 0 2090.545 32.256 A 7.91 7.91 0 0 0 2092.725 30.4 Q 2094.3 28.45 2094.3 25.25 A 5.806 5.806 0 0 0 2092.376 20.858 A 7.898 7.898 0 0 0 2091.875 20.425 A 8.041 8.041 0 0 0 2089.262 19.076 Q 2087.434 18.5 2085 18.5 L 2078 18.5 Z M 488 18.5 L 484.8 34.1 L 491.7 34.1 Q 495.45 34.1 498.3 33.225 A 10.542 10.542 0 0 0 500.545 32.256 A 7.91 7.91 0 0 0 502.725 30.4 Q 504.3 28.45 504.3 25.25 A 5.806 5.806 0 0 0 502.376 20.858 A 7.898 7.898 0 0 0 501.875 20.425 A 8.041 8.041 0 0 0 499.262 19.076 Q 497.434 18.5 495 18.5 L 488 18.5 Z M 40.7 3.7 L 37.8 18.6 L 43.9 18.6 Q 49.45 18.6 52.475 16.2 A 7.782 7.782 0 0 0 55.464 10.497 A 10.892 10.892 0 0 0 55.5 9.6 A 7.4 7.4 0 0 0 55.314 7.882 A 4.344 4.344 0 0 0 53.275 5.025 Q 51.05 3.7 46.6 3.7 L 40.7 3.7 Z M 1150.7 3.7 L 1147.8 18.6 L 1153.9 18.6 Q 1159.45 18.6 1162.475 16.2 A 7.782 7.782 0 0 0 1165.464 10.497 A 10.892 10.892 0 0 0 1165.5 9.6 A 7.4 7.4 0 0 0 1165.314 7.882 A 4.344 4.344 0 0 0 1163.275 5.025 Q 1161.05 3.7 1156.6 3.7 L 1150.7 3.7 Z M 1270.7 3.7 L 1267.8 18.6 L 1273.9 18.6 Q 1279.45 18.6 1282.475 16.2 A 7.782 7.782 0 0 0 1285.464 10.497 A 10.892 10.892 0 0 0 1285.5 9.6 A 7.4 7.4 0 0 0 1285.314 7.882 A 4.344 4.344 0 0 0 1283.275 5.025 Q 1281.05 3.7 1276.6 3.7 L 1270.7 3.7 Z M 1420.7 3.7 L 1417.8 18.6 L 1423.9 18.6 Q 1429.45 18.6 1432.475 16.2 A 7.782 7.782 0 0 0 1435.464 10.497 A 10.892 10.892 0 0 0 1435.5 9.6 A 7.4 7.4 0 0 0 1435.314 7.882 A 4.344 4.344 0 0 0 1433.275 5.025 Q 1431.05 3.7 1426.6 3.7 L 1420.7 3.7 Z M 490.9 3.7 L 488.2 17.2 L 494.1 17.2 A 24.396 24.396 0 0 0 497.081 17.03 Q 500.478 16.611 502.504 15.157 A 7.505 7.505 0 0 0 502.65 15.05 A 7.726 7.726 0 0 0 504.414 13.235 A 6.319 6.319 0 0 0 505.5 9.6 Q 505.5 6.8 503.55 5.25 A 5.452 5.452 0 0 0 502.043 4.433 Q 500.511 3.864 498.14 3.737 A 26.882 26.882 0 0 0 496.7 3.7 L 490.9 3.7 Z M 2080.9 3.7 L 2078.2 17.2 L 2084.1 17.2 A 24.396 24.396 0 0 0 2087.081 17.03 Q 2090.478 16.611 2092.504 15.157 A 7.505 7.505 0 0 0 2092.65 15.05 A 7.726 7.726 0 0 0 2094.414 13.235 A 6.319 6.319 0 0 0 2095.5 9.6 Q 2095.5 6.8 2093.55 5.25 A 5.452 5.452 0 0 0 2092.043 4.433 Q 2090.511 3.864 2088.14 3.737 A 26.882 26.882 0 0 0 2086.7 3.7 L 2080.9 3.7 Z M 1295.65 45.45 L 1295.3 44.2 A 14.303 14.303 0 0 0 1298.392 42.94 A 11.027 11.027 0 0 0 1301.2 40.725 A 10.308 10.308 0 0 0 1303.053 37.901 A 9.169 9.169 0 0 0 1303.75 35.3 L 1303.95 34.35 L 1305 34.75 A 1.772 1.772 0 0 1 1304.217 35.371 A 2.293 2.293 0 0 1 1304 35.45 Q 1303.49 35.607 1303.072 35.641 A 2.757 2.757 0 0 1 1302.85 35.65 A 2.593 2.593 0 0 1 1302.143 35.558 A 1.95 1.95 0 0 1 1301.25 35.025 A 2.099 2.099 0 0 1 1300.712 33.979 A 3.054 3.054 0 0 1 1300.65 33.35 Q 1300.65 32.45 1301.075 31.7 Q 1301.5 30.95 1302.2 30.525 Q 1302.9 30.1 1303.75 30.1 A 2.41 2.41 0 0 1 1304.539 30.223 A 1.99 1.99 0 0 1 1305.525 30.975 Q 1306.15 31.85 1306.15 33.45 Q 1306.15 36.35 1304.775 38.775 Q 1303.4 41.2 1301.05 42.9 A 16.395 16.395 0 0 1 1296.769 45.101 A 19.167 19.167 0 0 1 1295.65 45.45 Z M 1160.9 35.4 L 1154.5 19.8 L 1155.9 19.2 L 1162.6 35.4 L 1160.9 35.4 Z M 1280.9 35.4 L 1274.5 19.8 L 1275.9 19.2 L 1282.6 35.4 L 1280.9 35.4 Z M 1430.9 35.4 L 1424.5 19.8 L 1425.9 19.2 L 1432.6 35.4 L 1430.9 35.4 Z M 50.9 35.4 L 44.5 19.8 L 45.9 19.2 L 52.6 35.4 L 50.9 35.4 Z M 532.25 23.5 L 517.9 23.5 L 518.3 22.2 L 532.3 22.2 L 532.25 23.5 Z M 922.25 23.5 L 907.9 23.5 L 908.3 22.2 L 922.3 22.2 L 922.25 23.5 Z M 22.25 23.5 L 7.9 23.5 L 8.3 22.2 L 22.3 22.2 L 22.25 23.5 Z M 1192.25 23.5 L 1177.9 23.5 L 1178.3 22.2 L 1192.3 22.2 L 1192.25 23.5 Z M 2062.25 23.5 L 2047.9 23.5 L 2048.3 22.2 L 2062.3 22.2 L 2062.25 23.5 Z M 851.603 35.901 A 2.339 2.339 0 0 0 852.3 36 A 2.439 2.439 0 0 0 852.963 35.909 A 2.688 2.688 0 0 0 853.8 35.5 Q 854.5 35 854.95 34.225 A 3.742 3.742 0 0 0 854.964 34.201 A 3.184 3.184 0 0 0 855.4 32.6 Q 855.4 32.188 855.315 31.841 A 2.125 2.125 0 0 0 854.85 30.925 A 1.769 1.769 0 0 0 853.934 30.374 A 2.572 2.572 0 0 0 853.3 30.3 A 2.439 2.439 0 0 0 852.637 30.391 A 2.688 2.688 0 0 0 851.8 30.8 Q 851.1 31.3 850.65 32.075 A 3.742 3.742 0 0 0 850.636 32.099 A 3.184 3.184 0 0 0 850.2 33.7 A 3.116 3.116 0 0 0 850.274 34.4 A 2.11 2.11 0 0 0 850.775 35.375 A 1.856 1.856 0 0 0 851.603 35.901 Z M 1571.603 35.901 A 2.339 2.339 0 0 0 1572.3 36 A 2.439 2.439 0 0 0 1572.963 35.909 A 2.688 2.688 0 0 0 1573.8 35.5 Q 1574.5 35 1574.95 34.225 A 3.742 3.742 0 0 0 1574.964 34.201 A 3.184 3.184 0 0 0 1575.4 32.6 Q 1575.4 32.188 1575.315 31.841 A 2.125 2.125 0 0 0 1574.85 30.925 A 1.769 1.769 0 0 0 1573.934 30.374 A 2.572 2.572 0 0 0 1573.3 30.3 A 2.439 2.439 0 0 0 1572.637 30.391 A 2.688 2.688 0 0 0 1571.8 30.8 Q 1571.1 31.3 1570.65 32.075 A 3.742 3.742 0 0 0 1570.636 32.099 A 3.184 3.184 0 0 0 1570.2 33.7 A 3.116 3.116 0 0 0 1570.274 34.4 A 2.11 2.11 0 0 0 1570.775 35.375 A 1.856 1.856 0 0 0 1571.603 35.901 Z M 1871.603 35.901 A 2.339 2.339 0 0 0 1872.3 36 A 2.439 2.439 0 0 0 1872.963 35.909 A 2.688 2.688 0 0 0 1873.8 35.5 Q 1874.5 35 1874.95 34.225 A 3.742 3.742 0 0 0 1874.964 34.201 A 3.184 3.184 0 0 0 1875.4 32.6 Q 1875.4 32.188 1875.315 31.841 A 2.125 2.125 0 0 0 1874.85 30.925 A 1.769 1.769 0 0 0 1873.934 30.374 A 2.572 2.572 0 0 0 1873.3 30.3 A 2.439 2.439 0 0 0 1872.637 30.391 A 2.688 2.688 0 0 0 1871.8 30.8 Q 1871.1 31.3 1870.65 32.075 A 3.742 3.742 0 0 0 1870.636 32.099 A 3.184 3.184 0 0 0 1870.2 33.7 A 3.116 3.116 0 0 0 1870.274 34.4 A 2.11 2.11 0 0 0 1870.775 35.375 A 1.856 1.856 0 0 0 1871.603 35.901 Z M 855.403 16.601 A 2.339 2.339 0 0 0 856.1 16.7 A 2.439 2.439 0 0 0 856.763 16.609 A 2.688 2.688 0 0 0 857.6 16.2 Q 858.3 15.7 858.75 14.925 A 3.742 3.742 0 0 0 858.764 14.901 A 3.184 3.184 0 0 0 859.2 13.3 Q 859.2 12.888 859.115 12.541 A 2.125 2.125 0 0 0 858.65 11.625 A 1.769 1.769 0 0 0 857.734 11.074 A 2.572 2.572 0 0 0 857.1 11 A 2.439 2.439 0 0 0 856.437 11.091 A 2.688 2.688 0 0 0 855.6 11.5 Q 854.9 12 854.45 12.775 A 3.742 3.742 0 0 0 854.436 12.799 A 3.184 3.184 0 0 0 854 14.4 A 3.116 3.116 0 0 0 854.074 15.1 A 2.11 2.11 0 0 0 854.575 16.075 A 1.856 1.856 0 0 0 855.403 16.601 Z M 1575.403 16.601 A 2.339 2.339 0 0 0 1576.1 16.7 A 2.439 2.439 0 0 0 1576.763 16.609 A 2.688 2.688 0 0 0 1577.6 16.2 Q 1578.3 15.7 1578.75 14.925 A 3.742 3.742 0 0 0 1578.764 14.901 A 3.184 3.184 0 0 0 1579.2 13.3 Q 1579.2 12.888 1579.115 12.541 A 2.125 2.125 0 0 0 1578.65 11.625 A 1.769 1.769 0 0 0 1577.734 11.074 A 2.572 2.572 0 0 0 1577.1 11 A 2.439 2.439 0 0 0 1576.437 11.091 A 2.688 2.688 0 0 0 1575.6 11.5 Q 1574.9 12 1574.45 12.775 A 3.742 3.742 0 0 0 1574.436 12.799 A 3.184 3.184 0 0 0 1574 14.4 A 3.116 3.116 0 0 0 1574.074 15.1 A 2.11 2.11 0 0 0 1574.575 16.075 A 1.856 1.856 0 0 0 1575.403 16.601 Z" vector-effect="non-scaling-stroke"/></g></svg>
