<svg width="442.52" height="9.09" viewBox="0 0 442.52 9.09" xmlns="http://www.w3.org/2000/svg"><g id="svgGroup" stroke-linecap="round" fill-rule="evenodd" font-size="9pt" stroke="#000" stroke-width="0.25mm" fill="black" style="stroke:#000;stroke-width:0.25mm;fill:black"><path d="M 72.68 7.08 L 72.38 7.08 L 73.7 0.48 L 74.14 0.48 L 74.74 3.95 L 74.87 4.89 L 74.91 4.89 L 75.41 3.94 L 77.43 0.48 L 77.86 0.48 L 76.54 7.08 L 76.24 7.08 L 77.25 2.06 Q 77.28 1.91 77.315 1.755 L 77.385 1.445 Q 77.42 1.29 77.46 1.13 Q 77.5 0.97 77.54 0.82 L 77.5 0.82 Q 77.42 0.99 77.33 1.165 Q 77.24 1.34 77.14 1.525 A 17.305 17.305 0 0 1 77.035 1.716 A 21.341 21.341 0 0 1 76.92 1.92 L 74.97 5.27 L 74.67 5.27 L 74.12 1.91 Q 74.1 1.79 74.075 1.655 Q 74.05 1.52 74.03 1.38 Q 74.01 1.24 73.985 1.095 A 16.789 16.789 0 0 1 73.961 0.954 A 14.193 14.193 0 0 1 73.94 0.82 L 73.9 0.82 A 10.553 10.553 0 0 1 73.832 1.217 A 11.091 11.091 0 0 1 73.83 1.23 Q 73.79 1.44 73.755 1.65 Q 73.72 1.86 73.68 2.06 L 72.68 7.08 Z M 192.68 7.08 L 192.38 7.08 L 193.7 0.48 L 194.14 0.48 L 194.74 3.95 L 194.87 4.89 L 194.91 4.89 L 195.41 3.94 L 197.43 0.48 L 197.86 0.48 L 196.54 7.08 L 196.24 7.08 L 197.25 2.06 Q 197.28 1.91 197.315 1.755 L 197.385 1.445 Q 197.42 1.29 197.46 1.13 Q 197.5 0.97 197.54 0.82 L 197.5 0.82 Q 197.42 0.99 197.33 1.165 Q 197.24 1.34 197.14 1.525 A 17.305 17.305 0 0 1 197.035 1.716 A 21.341 21.341 0 0 1 196.92 1.92 L 194.97 5.27 L 194.67 5.27 L 194.12 1.91 Q 194.1 1.79 194.075 1.655 Q 194.05 1.52 194.03 1.38 Q 194.01 1.24 193.985 1.095 A 16.789 16.789 0 0 1 193.961 0.954 A 14.193 14.193 0 0 1 193.94 0.82 L 193.9 0.82 A 10.553 10.553 0 0 1 193.832 1.217 A 11.091 11.091 0 0 1 193.83 1.23 Q 193.79 1.44 193.755 1.65 Q 193.72 1.86 193.68 2.06 L 192.68 7.08 Z M 156.74 7.08 L 156.44 7.08 L 157.76 0.48 L 158.08 0.48 L 159.86 5.36 L 160.32 6.66 L 160.36 6.66 Q 160.4 6.43 160.435 6.205 Q 160.47 5.98 160.51 5.755 Q 160.55 5.53 160.595 5.305 Q 160.64 5.08 160.68 4.86 L 161.54 0.48 L 161.84 0.48 L 160.52 7.08 L 160.2 7.08 L 158.42 2.2 L 157.96 0.9 L 157.92 0.9 Q 157.87 1.21 157.82 1.505 Q 157.77 1.8 157.715 2.095 Q 157.66 2.39 157.6 2.7 L 156.74 7.08 Z M 204.74 7.08 L 204.44 7.08 L 205.76 0.48 L 206.08 0.48 L 207.86 5.36 L 208.32 6.66 L 208.36 6.66 Q 208.4 6.43 208.435 6.205 Q 208.47 5.98 208.51 5.755 Q 208.55 5.53 208.595 5.305 Q 208.64 5.08 208.68 4.86 L 209.54 0.48 L 209.84 0.48 L 208.52 7.08 L 208.2 7.08 L 206.42 2.2 L 205.96 0.9 L 205.92 0.9 Q 205.87 1.21 205.82 1.505 Q 205.77 1.8 205.715 2.095 Q 205.66 2.39 205.6 2.7 L 204.74 7.08 Z M 306.74 7.08 L 306.44 7.08 L 307.76 0.48 L 308.08 0.48 L 309.86 5.36 L 310.32 6.66 L 310.36 6.66 Q 310.4 6.43 310.435 6.205 Q 310.47 5.98 310.51 5.755 Q 310.55 5.53 310.595 5.305 Q 310.64 5.08 310.68 4.86 L 311.54 0.48 L 311.84 0.48 L 310.52 7.08 L 310.2 7.08 L 308.42 2.2 L 307.96 0.9 L 307.92 0.9 Q 307.87 1.21 307.82 1.505 Q 307.77 1.8 307.715 2.095 Q 307.66 2.39 307.6 2.7 L 306.74 7.08 Z M 330.74 7.08 L 330.44 7.08 L 331.76 0.48 L 332.08 0.48 L 333.86 5.36 L 334.32 6.66 L 334.36 6.66 Q 334.4 6.43 334.435 6.205 Q 334.47 5.98 334.51 5.755 Q 334.55 5.53 334.595 5.305 Q 334.64 5.08 334.68 4.86 L 335.54 0.48 L 335.84 0.48 L 334.52 7.08 L 334.2 7.08 L 332.42 2.2 L 331.96 0.9 L 331.92 0.9 Q 331.87 1.21 331.82 1.505 Q 331.77 1.8 331.715 2.095 Q 331.66 2.39 331.6 2.7 L 330.74 7.08 Z M 18.68 7.08 L 18.38 7.08 L 19.7 0.48 L 20 0.48 L 19.4 3.44 L 22.96 3.44 L 23.56 0.48 L 23.86 0.48 L 22.54 7.08 L 22.24 7.08 L 22.92 3.7 L 19.36 3.7 L 18.68 7.08 Z M 40.8 7.08 L 36.86 7.08 L 38.18 0.48 L 42.04 0.48 L 41.98 0.74 L 38.42 0.74 L 37.88 3.44 L 40.86 3.44 L 40.8 3.7 L 37.84 3.7 L 37.2 6.82 L 40.86 6.82 L 40.8 7.08 Z M 82.8 7.08 L 78.86 7.08 L 80.18 0.48 L 84.04 0.48 L 83.98 0.74 L 80.42 0.74 L 79.88 3.44 L 82.86 3.44 L 82.8 3.7 L 79.84 3.7 L 79.2 6.82 L 82.86 6.82 L 82.8 7.08 Z M 88.8 7.08 L 84.86 7.08 L 86.18 0.48 L 90.04 0.48 L 89.98 0.74 L 86.42 0.74 L 85.88 3.44 L 88.86 3.44 L 88.8 3.7 L 85.84 3.7 L 85.2 6.82 L 88.86 6.82 L 88.8 7.08 Z M 118.8 7.08 L 114.86 7.08 L 116.18 0.48 L 120.04 0.48 L 119.98 0.74 L 116.42 0.74 L 115.88 3.44 L 118.86 3.44 L 118.8 3.7 L 115.84 3.7 L 115.2 6.82 L 118.86 6.82 L 118.8 7.08 Z M 154.8 7.08 L 150.86 7.08 L 152.18 0.48 L 156.04 0.48 L 155.98 0.74 L 152.42 0.74 L 151.88 3.44 L 154.86 3.44 L 154.8 3.7 L 151.84 3.7 L 151.2 6.82 L 154.86 6.82 L 154.8 7.08 Z M 280.8 7.08 L 276.86 7.08 L 278.18 0.48 L 282.04 0.48 L 281.98 0.74 L 278.42 0.74 L 277.88 3.44 L 280.86 3.44 L 280.8 3.7 L 277.84 3.7 L 277.2 6.82 L 280.86 6.82 L 280.8 7.08 Z M 352.8 7.08 L 348.86 7.08 L 350.18 0.48 L 354.04 0.48 L 353.98 0.74 L 350.42 0.74 L 349.88 3.44 L 352.86 3.44 L 352.8 3.7 L 349.84 3.7 L 349.2 6.82 L 352.86 6.82 L 352.8 7.08 Z M 430.8 7.08 L 426.86 7.08 L 428.18 0.48 L 432.04 0.48 L 431.98 0.74 L 428.42 0.74 L 427.88 3.44 L 430.86 3.44 L 430.8 3.7 L 427.84 3.7 L 427.2 6.82 L 430.86 6.82 L 430.8 7.08 Z M 381.75 7.08 L 381.47 7.08 L 382.46 2.09 Q 382.51 1.86 382.565 1.64 Q 382.62 1.42 382.68 1.2 L 382.65 1.2 Q 382.46 1.4 382.275 1.595 Q 382.09 1.79 381.89 1.99 L 378.93 4.85 L 383.36 4.85 L 383.29 5.11 L 378.39 5.11 L 378.42 4.96 L 382.88 0.68 L 383.03 0.68 L 381.75 7.08 Z M 60.48 6.16 L 60.7 6 A 2.53 2.53 0 0 0 60.881 6.211 Q 60.979 6.314 61.097 6.418 A 4.028 4.028 0 0 0 61.105 6.425 A 1.861 1.861 0 0 0 61.401 6.635 A 2.538 2.538 0 0 0 61.72 6.79 Q 62.066 6.93 62.535 6.939 A 3.377 3.377 0 0 0 62.6 6.94 A 2.582 2.582 0 0 0 63.259 6.858 A 2.28 2.28 0 0 0 63.575 6.75 A 1.788 1.788 0 0 0 64.081 6.43 A 1.64 1.64 0 0 0 64.29 6.2 A 1.338 1.338 0 0 0 64.541 5.585 A 1.783 1.783 0 0 0 64.56 5.32 A 1.324 1.324 0 0 0 64.49 4.883 A 1.18 1.18 0 0 0 64.325 4.57 A 1.236 1.236 0 0 0 64.029 4.288 Q 63.891 4.192 63.715 4.115 A 2.418 2.418 0 0 0 63.59 4.065 A 2.772 2.772 0 0 0 63.174 3.95 Q 62.957 3.906 62.701 3.883 A 6.492 6.492 0 0 0 62.28 3.86 L 62.32 3.6 A 5.817 5.817 0 0 0 62.887 3.574 Q 63.171 3.546 63.412 3.488 A 2.641 2.641 0 0 0 63.76 3.38 Q 64.232 3.195 64.498 2.899 A 1.347 1.347 0 0 0 64.59 2.785 Q 64.86 2.41 64.86 1.96 Q 64.86 1.4 64.485 1.11 A 1.343 1.343 0 0 0 63.952 0.865 Q 63.759 0.821 63.535 0.82 A 2.389 2.389 0 0 0 63.52 0.82 A 2.613 2.613 0 0 0 62.939 0.882 A 2.12 2.12 0 0 0 62.485 1.04 A 3.376 3.376 0 0 0 61.772 1.499 A 3.124 3.124 0 0 0 61.68 1.58 L 61.5 1.38 A 3.073 3.073 0 0 1 61.921 1.06 A 4.191 4.191 0 0 1 62.375 0.81 Q 62.9 0.56 63.54 0.56 Q 64 0.56 64.36 0.71 A 1.326 1.326 0 0 1 64.768 0.971 A 1.24 1.24 0 0 1 64.93 1.16 A 1.137 1.137 0 0 1 65.113 1.602 A 1.567 1.567 0 0 1 65.14 1.9 Q 65.14 2.6 64.695 3.085 Q 64.25 3.57 63.33 3.73 L 63.33 3.76 A 2.906 2.906 0 0 1 63.796 3.873 Q 64.037 3.954 64.224 4.076 A 1.445 1.445 0 0 1 64.455 4.26 A 1.275 1.275 0 0 1 64.823 5.014 A 1.78 1.78 0 0 1 64.84 5.26 A 2.192 2.192 0 0 1 64.787 5.756 A 1.611 1.611 0 0 1 64.54 6.32 A 1.886 1.886 0 0 1 63.777 6.953 A 2.25 2.25 0 0 1 63.73 6.975 A 2.637 2.637 0 0 1 62.977 7.177 A 3.316 3.316 0 0 1 62.58 7.2 A 3.285 3.285 0 0 1 62.145 7.173 Q 61.922 7.143 61.732 7.08 A 1.812 1.812 0 0 1 61.61 7.035 A 2.753 2.753 0 0 1 61.231 6.845 A 2.126 2.126 0 0 1 60.935 6.63 A 4.164 4.164 0 0 1 60.698 6.407 Q 60.576 6.282 60.48 6.16 Z M 108.56 6.1 L 108.8 5.94 Q 109.12 6.42 109.58 6.68 A 1.958 1.958 0 0 0 110.19 6.897 A 2.675 2.675 0 0 0 110.68 6.94 Q 111.18 6.94 111.585 6.74 Q 111.99 6.54 112.225 6.175 A 1.474 1.474 0 0 0 112.447 5.543 A 1.876 1.876 0 0 0 112.46 5.32 A 1.435 1.435 0 0 0 112.412 4.94 A 1.142 1.142 0 0 0 112.225 4.555 A 1.857 1.857 0 0 0 111.829 4.167 A 2.31 2.31 0 0 0 111.6 4.02 L 110.72 3.5 Q 110.32 3.26 110 2.9 A 1.26 1.26 0 0 1 109.682 2.102 A 1.63 1.63 0 0 1 109.68 2.02 Q 109.68 1.58 109.91 1.2 Q 110.14 0.82 110.555 0.59 A 1.823 1.823 0 0 1 111.188 0.383 A 2.357 2.357 0 0 1 111.52 0.36 A 2.35 2.35 0 0 1 112.084 0.425 A 1.902 1.902 0 0 1 112.575 0.62 Q 113.03 0.88 113.28 1.24 L 113.06 1.42 A 2.065 2.065 0 0 0 112.623 0.997 A 2.541 2.541 0 0 0 112.405 0.855 A 1.731 1.731 0 0 0 111.769 0.641 A 2.233 2.233 0 0 0 111.46 0.62 A 1.704 1.704 0 0 0 111.064 0.664 A 1.332 1.332 0 0 0 110.68 0.82 A 1.487 1.487 0 0 0 110.241 1.219 A 1.433 1.433 0 0 0 110.165 1.335 A 1.361 1.361 0 0 0 110.015 1.694 A 1.173 1.173 0 0 0 109.98 1.98 A 1.384 1.384 0 0 0 110.018 2.313 A 0.971 0.971 0 0 0 110.25 2.75 Q 110.52 3.04 110.86 3.24 L 111.72 3.74 A 3.154 3.154 0 0 1 112.103 4 A 2.693 2.693 0 0 1 112.265 4.14 Q 112.5 4.36 112.63 4.64 A 1.386 1.386 0 0 1 112.744 5.039 A 1.784 1.784 0 0 1 112.76 5.28 Q 112.76 5.86 112.48 6.29 Q 112.2 6.72 111.72 6.96 A 2.284 2.284 0 0 1 110.915 7.187 A 2.805 2.805 0 0 1 110.64 7.2 A 2.857 2.857 0 0 1 110.003 7.132 A 2.24 2.24 0 0 1 109.415 6.91 Q 108.89 6.62 108.56 6.1 Z M 216.56 6.1 L 216.8 5.94 Q 217.12 6.42 217.58 6.68 A 1.958 1.958 0 0 0 218.19 6.897 A 2.675 2.675 0 0 0 218.68 6.94 Q 219.18 6.94 219.585 6.74 Q 219.99 6.54 220.225 6.175 A 1.474 1.474 0 0 0 220.447 5.543 A 1.876 1.876 0 0 0 220.46 5.32 A 1.435 1.435 0 0 0 220.412 4.94 A 1.142 1.142 0 0 0 220.225 4.555 A 1.857 1.857 0 0 0 219.829 4.167 A 2.31 2.31 0 0 0 219.6 4.02 L 218.72 3.5 Q 218.32 3.26 218 2.9 A 1.26 1.26 0 0 1 217.682 2.102 A 1.63 1.63 0 0 1 217.68 2.02 Q 217.68 1.58 217.91 1.2 Q 218.14 0.82 218.555 0.59 A 1.823 1.823 0 0 1 219.188 0.383 A 2.357 2.357 0 0 1 219.52 0.36 A 2.35 2.35 0 0 1 220.084 0.425 A 1.902 1.902 0 0 1 220.575 0.62 Q 221.03 0.88 221.28 1.24 L 221.06 1.42 A 2.065 2.065 0 0 0 220.623 0.997 A 2.541 2.541 0 0 0 220.405 0.855 A 1.731 1.731 0 0 0 219.769 0.641 A 2.233 2.233 0 0 0 219.46 0.62 A 1.704 1.704 0 0 0 219.064 0.664 A 1.332 1.332 0 0 0 218.68 0.82 A 1.487 1.487 0 0 0 218.241 1.219 A 1.433 1.433 0 0 0 218.165 1.335 A 1.361 1.361 0 0 0 218.015 1.694 A 1.173 1.173 0 0 0 217.98 1.98 A 1.384 1.384 0 0 0 218.018 2.313 A 0.971 0.971 0 0 0 218.25 2.75 Q 218.52 3.04 218.86 3.24 L 219.72 3.74 A 3.154 3.154 0 0 1 220.103 4 A 2.693 2.693 0 0 1 220.265 4.14 Q 220.5 4.36 220.63 4.64 A 1.386 1.386 0 0 1 220.744 5.039 A 1.784 1.784 0 0 1 220.76 5.28 Q 220.76 5.86 220.48 6.29 Q 220.2 6.72 219.72 6.96 A 2.284 2.284 0 0 1 218.915 7.187 A 2.805 2.805 0 0 1 218.64 7.2 A 2.857 2.857 0 0 1 218.003 7.132 A 2.24 2.24 0 0 1 217.415 6.91 Q 216.89 6.62 216.56 6.1 Z M 288.56 6.1 L 288.8 5.94 Q 289.12 6.42 289.58 6.68 A 1.958 1.958 0 0 0 290.19 6.897 A 2.675 2.675 0 0 0 290.68 6.94 Q 291.18 6.94 291.585 6.74 Q 291.99 6.54 292.225 6.175 A 1.474 1.474 0 0 0 292.447 5.543 A 1.876 1.876 0 0 0 292.46 5.32 A 1.435 1.435 0 0 0 292.412 4.94 A 1.142 1.142 0 0 0 292.225 4.555 A 1.857 1.857 0 0 0 291.829 4.167 A 2.31 2.31 0 0 0 291.6 4.02 L 290.72 3.5 Q 290.32 3.26 290 2.9 A 1.26 1.26 0 0 1 289.682 2.102 A 1.63 1.63 0 0 1 289.68 2.02 Q 289.68 1.58 289.91 1.2 Q 290.14 0.82 290.555 0.59 A 1.823 1.823 0 0 1 291.188 0.383 A 2.357 2.357 0 0 1 291.52 0.36 A 2.35 2.35 0 0 1 292.084 0.425 A 1.902 1.902 0 0 1 292.575 0.62 Q 293.03 0.88 293.28 1.24 L 293.06 1.42 A 2.065 2.065 0 0 0 292.623 0.997 A 2.541 2.541 0 0 0 292.405 0.855 A 1.731 1.731 0 0 0 291.769 0.641 A 2.233 2.233 0 0 0 291.46 0.62 A 1.704 1.704 0 0 0 291.064 0.664 A 1.332 1.332 0 0 0 290.68 0.82 A 1.487 1.487 0 0 0 290.241 1.219 A 1.433 1.433 0 0 0 290.165 1.335 A 1.361 1.361 0 0 0 290.015 1.694 A 1.173 1.173 0 0 0 289.98 1.98 A 1.384 1.384 0 0 0 290.018 2.313 A 0.971 0.971 0 0 0 290.25 2.75 Q 290.52 3.04 290.86 3.24 L 291.72 3.74 A 3.154 3.154 0 0 1 292.103 4 A 2.693 2.693 0 0 1 292.265 4.14 Q 292.5 4.36 292.63 4.64 A 1.386 1.386 0 0 1 292.744 5.039 A 1.784 1.784 0 0 1 292.76 5.28 Q 292.76 5.86 292.48 6.29 Q 292.2 6.72 291.72 6.96 A 2.284 2.284 0 0 1 290.915 7.187 A 2.805 2.805 0 0 1 290.64 7.2 A 2.857 2.857 0 0 1 290.003 7.132 A 2.24 2.24 0 0 1 289.415 6.91 Q 288.89 6.62 288.56 6.1 Z M 396.56 6.1 L 396.8 5.94 Q 397.12 6.42 397.58 6.68 A 1.958 1.958 0 0 0 398.19 6.897 A 2.675 2.675 0 0 0 398.68 6.94 Q 399.18 6.94 399.585 6.74 Q 399.99 6.54 400.225 6.175 A 1.474 1.474 0 0 0 400.447 5.543 A 1.876 1.876 0 0 0 400.46 5.32 A 1.435 1.435 0 0 0 400.412 4.94 A 1.142 1.142 0 0 0 400.225 4.555 A 1.857 1.857 0 0 0 399.829 4.167 A 2.31 2.31 0 0 0 399.6 4.02 L 398.72 3.5 Q 398.32 3.26 398 2.9 A 1.26 1.26 0 0 1 397.682 2.102 A 1.63 1.63 0 0 1 397.68 2.02 Q 397.68 1.58 397.91 1.2 Q 398.14 0.82 398.555 0.59 A 1.823 1.823 0 0 1 399.188 0.383 A 2.357 2.357 0 0 1 399.52 0.36 A 2.35 2.35 0 0 1 400.084 0.425 A 1.902 1.902 0 0 1 400.575 0.62 Q 401.03 0.88 401.28 1.24 L 401.06 1.42 A 2.065 2.065 0 0 0 400.623 0.997 A 2.541 2.541 0 0 0 400.405 0.855 A 1.731 1.731 0 0 0 399.769 0.641 A 2.233 2.233 0 0 0 399.46 0.62 A 1.704 1.704 0 0 0 399.064 0.664 A 1.332 1.332 0 0 0 398.68 0.82 A 1.487 1.487 0 0 0 398.241 1.219 A 1.433 1.433 0 0 0 398.165 1.335 A 1.361 1.361 0 0 0 398.015 1.694 A 1.173 1.173 0 0 0 397.98 1.98 A 1.384 1.384 0 0 0 398.018 2.313 A 0.971 0.971 0 0 0 398.25 2.75 Q 398.52 3.04 398.86 3.24 L 399.72 3.74 A 3.154 3.154 0 0 1 400.103 4 A 2.693 2.693 0 0 1 400.265 4.14 Q 400.5 4.36 400.63 4.64 A 1.386 1.386 0 0 1 400.744 5.039 A 1.784 1.784 0 0 1 400.76 5.28 Q 400.76 5.86 400.48 6.29 Q 400.2 6.72 399.72 6.96 A 2.284 2.284 0 0 1 398.915 7.187 A 2.805 2.805 0 0 1 398.64 7.2 A 2.857 2.857 0 0 1 398.003 7.132 A 2.24 2.24 0 0 1 397.415 6.91 Q 396.89 6.62 396.56 6.1 Z M 0.32 7.08 L 0 7.08 L 3.74 0.48 L 4.04 0.48 L 4.96 7.08 L 4.66 7.08 L 4.14 3.12 Q 4.07 2.56 4 1.96 Q 3.93 1.36 3.85 0.81 L 3.8 0.81 A 96.825 96.825 0 0 0 3.325 1.67 A 84.872 84.872 0 0 0 3.175 1.945 A 1490.936 1490.936 0 0 1 2.718 2.788 A 1680.708 1680.708 0 0 1 2.56 3.08 L 0.32 7.08 Z M 102.32 7.08 L 102 7.08 L 105.74 0.48 L 106.04 0.48 L 106.96 7.08 L 106.66 7.08 L 106.14 3.12 Q 106.07 2.56 106 1.96 Q 105.93 1.36 105.85 0.81 L 105.8 0.81 A 96.825 96.825 0 0 0 105.325 1.67 A 84.872 84.872 0 0 0 105.175 1.945 A 1490.936 1490.936 0 0 1 104.718 2.788 A 1680.708 1680.708 0 0 1 104.56 3.08 L 102.32 7.08 Z M 180.32 7.08 L 180 7.08 L 183.74 0.48 L 184.04 0.48 L 184.96 7.08 L 184.66 7.08 L 184.14 3.12 Q 184.07 2.56 184 1.96 Q 183.93 1.36 183.85 0.81 L 183.8 0.81 A 96.825 96.825 0 0 0 183.325 1.67 A 84.872 84.872 0 0 0 183.175 1.945 A 1490.936 1490.936 0 0 1 182.718 2.788 A 1680.708 1680.708 0 0 1 182.56 3.08 L 180.32 7.08 Z M 234.32 7.08 L 234 7.08 L 237.74 0.48 L 238.04 0.48 L 238.96 7.08 L 238.66 7.08 L 238.14 3.12 Q 238.07 2.56 238 1.96 Q 237.93 1.36 237.85 0.81 L 237.8 0.81 A 96.825 96.825 0 0 0 237.325 1.67 A 84.872 84.872 0 0 0 237.175 1.945 A 1490.936 1490.936 0 0 1 236.718 2.788 A 1680.708 1680.708 0 0 1 236.56 3.08 L 234.32 7.08 Z M 408.32 7.08 L 408 7.08 L 411.74 0.48 L 412.04 0.48 L 412.96 7.08 L 412.66 7.08 L 412.14 3.12 Q 412.07 2.56 412 1.96 Q 411.93 1.36 411.85 0.81 L 411.8 0.81 A 96.825 96.825 0 0 0 411.325 1.67 A 84.872 84.872 0 0 0 411.175 1.945 A 1490.936 1490.936 0 0 1 410.718 2.788 A 1680.708 1680.708 0 0 1 410.56 3.08 L 408.32 7.08 Z M 32.64 7.08 L 32.3 7.08 L 31.58 0.48 L 31.86 0.48 L 32.28 4.47 Q 32.34 5.02 32.4 5.58 L 32.52 6.7 L 32.56 6.7 A 91.694 91.694 0 0 1 32.929 6.007 A 100.85 100.85 0 0 1 32.955 5.96 Q 33.16 5.58 33.365 5.205 A 288.795 288.795 0 0 0 33.664 4.657 A 259.187 259.187 0 0 0 33.76 4.48 L 35.94 0.48 L 36.25 0.48 L 32.64 7.08 Z M 272.64 7.08 L 272.3 7.08 L 271.58 0.48 L 271.86 0.48 L 272.28 4.47 Q 272.34 5.02 272.4 5.58 L 272.52 6.7 L 272.56 6.7 A 91.694 91.694 0 0 1 272.929 6.007 A 100.85 100.85 0 0 1 272.955 5.96 Q 273.16 5.58 273.365 5.205 A 288.795 288.795 0 0 0 273.664 4.657 A 259.187 259.187 0 0 0 273.76 4.48 L 275.94 0.48 L 276.25 0.48 L 272.64 7.08 Z M 356.64 7.08 L 356.3 7.08 L 355.58 0.48 L 355.86 0.48 L 356.28 4.47 Q 356.34 5.02 356.4 5.58 L 356.52 6.7 L 356.56 6.7 A 91.694 91.694 0 0 1 356.929 6.007 A 100.85 100.85 0 0 1 356.955 5.96 Q 357.16 5.58 357.365 5.205 A 288.795 288.795 0 0 0 357.664 4.657 A 259.187 259.187 0 0 0 357.76 4.48 L 359.94 0.48 L 360.25 0.48 L 356.64 7.08 Z M 28.32 7.08 L 24.58 7.08 L 24.64 6.82 L 26.34 6.82 L 27.56 0.74 L 25.84 0.74 L 25.9 0.48 L 29.66 0.48 L 29.6 0.74 L 27.86 0.74 L 26.64 6.82 L 28.38 6.82 L 28.32 7.08 Z M 148.32 7.08 L 144.58 7.08 L 144.64 6.82 L 146.34 6.82 L 147.56 0.74 L 145.84 0.74 L 145.9 0.48 L 149.66 0.48 L 149.6 0.74 L 147.86 0.74 L 146.64 6.82 L 148.38 6.82 L 148.32 7.08 Z M 202.32 7.08 L 198.58 7.08 L 198.64 6.82 L 200.34 6.82 L 201.56 0.74 L 199.84 0.74 L 199.9 0.48 L 203.66 0.48 L 203.6 0.74 L 201.86 0.74 L 200.64 6.82 L 202.38 6.82 L 202.32 7.08 Z M 214.32 7.08 L 210.58 7.08 L 210.64 6.82 L 212.34 6.82 L 213.56 0.74 L 211.84 0.74 L 211.9 0.48 L 215.66 0.48 L 215.6 0.74 L 213.86 0.74 L 212.64 6.82 L 214.38 6.82 L 214.32 7.08 Z M 298.32 7.08 L 294.58 7.08 L 294.64 6.82 L 296.34 6.82 L 297.56 0.74 L 295.84 0.74 L 295.9 0.48 L 299.66 0.48 L 299.6 0.74 L 297.86 0.74 L 296.64 6.82 L 298.38 6.82 L 298.32 7.08 Z M 328.32 7.08 L 324.58 7.08 L 324.64 6.82 L 326.34 6.82 L 327.56 0.74 L 325.84 0.74 L 325.9 0.48 L 329.66 0.48 L 329.6 0.74 L 327.86 0.74 L 326.64 6.82 L 328.38 6.82 L 328.32 7.08 Z M 130.08 8.6 L 127.5 8.6 L 129.22 0 L 131.78 0 L 131.74 0.22 L 129.42 0.22 L 127.8 8.38 L 130.12 8.38 L 130.08 8.6 Z M 394.08 8.6 L 391.5 8.6 L 393.22 0 L 395.78 0 L 395.74 0.22 L 393.42 0.22 L 391.8 8.38 L 394.12 8.38 L 394.08 8.6 Z M 434.8 8.6 L 432.24 8.6 L 432.28 8.38 L 434.6 8.38 L 436.22 0.22 L 433.9 0.22 L 433.94 0 L 436.52 0 L 434.8 8.6 Z M 440.8 8.6 L 438.24 8.6 L 438.28 8.38 L 440.6 8.38 L 442.22 0.22 L 439.9 0.22 L 439.94 0 L 442.52 0 L 440.8 8.6 Z M 337.36 7.08 L 337.06 7.08 L 338.38 0.48 L 342.18 0.48 L 342.12 0.74 L 338.62 0.74 L 338.06 3.56 L 340.98 3.56 L 340.92 3.82 L 338.02 3.82 L 337.36 7.08 Z M 17.76 1.28 L 17.52 1.44 Q 17.33 1.08 17.01 0.85 A 1.202 1.202 0 0 0 16.519 0.646 A 1.649 1.649 0 0 0 16.22 0.62 A 2.419 2.419 0 0 0 15.554 0.709 A 2.121 2.121 0 0 0 15.17 0.86 Q 14.7 1.1 14.335 1.515 Q 13.97 1.93 13.72 2.44 Q 13.47 2.95 13.345 3.5 A 5.014 5.014 0 0 0 13.232 4.237 A 4.327 4.327 0 0 0 13.22 4.56 A 3.876 3.876 0 0 0 13.276 5.235 A 3.081 3.081 0 0 0 13.42 5.77 A 1.948 1.948 0 0 0 13.721 6.313 A 1.729 1.729 0 0 0 14.045 6.625 A 1.54 1.54 0 0 0 14.614 6.883 Q 14.832 6.935 15.087 6.939 A 2.788 2.788 0 0 0 15.14 6.94 Q 15.61 6.94 16 6.765 A 3.092 3.092 0 0 0 16.527 6.461 A 3.744 3.744 0 0 0 16.76 6.28 L 16.94 6.48 A 4.31 4.31 0 0 1 16.572 6.752 A 3.622 3.622 0 0 1 16.38 6.87 Q 16.1 7.03 15.79 7.115 Q 15.48 7.2 15.12 7.2 Q 14.38 7.2 13.89 6.86 A 2.029 2.029 0 0 1 13.176 5.974 A 2.44 2.44 0 0 1 13.16 5.935 Q 12.92 5.35 12.92 4.62 A 4.979 4.979 0 0 1 13.046 3.52 A 5.548 5.548 0 0 1 13.065 3.44 Q 13.21 2.84 13.485 2.29 Q 13.76 1.74 14.165 1.305 Q 14.57 0.87 15.09 0.615 Q 15.61 0.36 16.24 0.36 A 1.914 1.914 0 0 1 16.66 0.404 A 1.36 1.36 0 0 1 17.17 0.63 Q 17.54 0.9 17.76 1.28 Z M 137.76 1.28 L 137.52 1.44 Q 137.33 1.08 137.01 0.85 A 1.202 1.202 0 0 0 136.519 0.646 A 1.649 1.649 0 0 0 136.22 0.62 A 2.419 2.419 0 0 0 135.554 0.709 A 2.121 2.121 0 0 0 135.17 0.86 Q 134.7 1.1 134.335 1.515 Q 133.97 1.93 133.72 2.44 Q 133.47 2.95 133.345 3.5 A 5.014 5.014 0 0 0 133.232 4.237 A 4.327 4.327 0 0 0 133.22 4.56 A 3.876 3.876 0 0 0 133.276 5.235 A 3.081 3.081 0 0 0 133.42 5.77 A 1.948 1.948 0 0 0 133.721 6.313 A 1.729 1.729 0 0 0 134.045 6.625 A 1.54 1.54 0 0 0 134.614 6.883 Q 134.832 6.935 135.087 6.939 A 2.788 2.788 0 0 0 135.14 6.94 Q 135.61 6.94 136 6.765 A 3.092 3.092 0 0 0 136.527 6.461 A 3.744 3.744 0 0 0 136.76 6.28 L 136.94 6.48 A 4.31 4.31 0 0 1 136.572 6.752 A 3.622 3.622 0 0 1 136.38 6.87 Q 136.1 7.03 135.79 7.115 Q 135.48 7.2 135.12 7.2 Q 134.38 7.2 133.89 6.86 A 2.029 2.029 0 0 1 133.176 5.974 A 2.44 2.44 0 0 1 133.16 5.935 Q 132.92 5.35 132.92 4.62 A 4.979 4.979 0 0 1 133.046 3.52 A 5.548 5.548 0 0 1 133.065 3.44 Q 133.21 2.84 133.485 2.29 Q 133.76 1.74 134.165 1.305 Q 134.57 0.87 135.09 0.615 Q 135.61 0.36 136.24 0.36 A 1.914 1.914 0 0 1 136.66 0.404 A 1.36 1.36 0 0 1 137.17 0.63 Q 137.54 0.9 137.76 1.28 Z M 370.72 7.08 L 366.62 7.08 L 366.68 6.82 L 368.6 6.82 L 369.72 1.26 L 368.3 1.26 L 368.34 1.06 Q 368.79 1.01 369.21 0.91 A 4.474 4.474 0 0 0 369.479 0.838 Q 369.716 0.765 369.88 0.68 L 370.12 0.68 L 368.88 6.82 L 370.76 6.82 L 370.72 7.08 Z M 92.6 7.08 L 92.3 7.08 L 93.56 0.76 L 91.22 0.76 L 91.28 0.48 L 96.26 0.48 L 96.2 0.76 L 93.86 0.76 L 92.6 7.08 Z M 164.6 7.08 L 164.3 7.08 L 165.56 0.76 L 163.22 0.76 L 163.28 0.48 L 168.26 0.48 L 168.2 0.76 L 165.86 0.76 L 164.6 7.08 Z M 224.6 7.08 L 224.3 7.08 L 225.56 0.76 L 223.22 0.76 L 223.28 0.48 L 228.26 0.48 L 228.2 0.76 L 225.86 0.76 L 224.6 7.08 Z M 242.6 7.08 L 242.3 7.08 L 243.56 0.76 L 241.22 0.76 L 241.28 0.48 L 246.26 0.48 L 246.2 0.76 L 243.86 0.76 L 242.6 7.08 Z M 404.6 7.08 L 404.3 7.08 L 405.56 0.76 L 403.22 0.76 L 403.28 0.48 L 408.26 0.48 L 408.2 0.76 L 405.86 0.76 L 404.6 7.08 Z M 98.52 7.08 L 96.62 7.08 L 97.94 0.48 L 99.5 0.48 A 4.095 4.095 0 0 1 99.937 0.502 Q 100.153 0.525 100.336 0.573 A 1.924 1.924 0 0 1 100.57 0.65 A 1.551 1.551 0 0 1 100.886 0.82 A 1.153 1.153 0 0 1 101.195 1.14 A 1.287 1.287 0 0 1 101.382 1.649 A 1.683 1.683 0 0 1 101.4 1.9 A 1.705 1.705 0 0 1 101.35 2.323 A 1.335 1.335 0 0 1 101.155 2.755 A 1.861 1.861 0 0 1 100.733 3.197 A 1.728 1.728 0 0 1 100.56 3.31 A 2.475 2.475 0 0 1 100.267 3.454 Q 100.112 3.517 99.967 3.548 A 1.438 1.438 0 0 1 99.9 3.56 L 99.9 3.6 Q 100.22 3.67 100.51 3.845 Q 100.8 4.02 100.98 4.31 A 1.163 1.163 0 0 1 101.13 4.699 A 1.635 1.635 0 0 1 101.16 5.02 A 2.441 2.441 0 0 1 101.11 5.529 Q 101.031 5.898 100.83 6.175 Q 100.5 6.63 99.905 6.855 A 3.354 3.354 0 0 1 99.218 7.031 Q 98.901 7.078 98.543 7.08 A 5.504 5.504 0 0 1 98.52 7.08 Z M 416.52 7.08 L 414.62 7.08 L 415.94 0.48 L 417.5 0.48 A 4.095 4.095 0 0 1 417.937 0.502 Q 418.153 0.525 418.336 0.573 A 1.924 1.924 0 0 1 418.57 0.65 A 1.551 1.551 0 0 1 418.886 0.82 A 1.153 1.153 0 0 1 419.195 1.14 A 1.287 1.287 0 0 1 419.382 1.649 A 1.683 1.683 0 0 1 419.4 1.9 A 1.705 1.705 0 0 1 419.35 2.323 A 1.335 1.335 0 0 1 419.155 2.755 A 1.861 1.861 0 0 1 418.733 3.197 A 1.728 1.728 0 0 1 418.56 3.31 A 2.475 2.475 0 0 1 418.267 3.454 Q 418.112 3.517 417.967 3.548 A 1.438 1.438 0 0 1 417.9 3.56 L 417.9 3.6 Q 418.22 3.67 418.51 3.845 Q 418.8 4.02 418.98 4.31 A 1.163 1.163 0 0 1 419.13 4.699 A 1.635 1.635 0 0 1 419.16 5.02 A 2.441 2.441 0 0 1 419.11 5.529 Q 419.031 5.898 418.83 6.175 Q 418.5 6.63 417.905 6.855 A 3.354 3.354 0 0 1 417.218 7.031 Q 416.901 7.078 416.543 7.08 A 5.504 5.504 0 0 1 416.52 7.08 Z M 143.16 7.08 L 139.34 7.08 L 140.66 0.48 L 140.96 0.48 L 139.7 6.82 L 143.22 6.82 L 143.16 7.08 Z M 425.16 7.08 L 421.34 7.08 L 422.66 0.48 L 422.96 0.48 L 421.7 6.82 L 425.22 6.82 L 425.16 7.08 Z M 43.94 7.08 L 42.38 7.08 L 43.7 0.48 L 44.88 0.48 A 4.27 4.27 0 0 1 45.631 0.542 Q 46.049 0.616 46.375 0.782 A 1.958 1.958 0 0 1 46.915 1.18 A 2.364 2.364 0 0 1 47.518 2.376 A 3.406 3.406 0 0 1 47.58 3.04 A 5.444 5.444 0 0 1 47.461 4.193 A 4.828 4.828 0 0 1 47.35 4.615 A 3.864 3.864 0 0 1 46.891 5.595 A 3.515 3.515 0 0 1 46.665 5.9 Q 46.21 6.45 45.53 6.765 A 3.316 3.316 0 0 1 44.667 7.024 A 4.505 4.505 0 0 1 43.94 7.08 Z M 187.94 7.08 L 186.38 7.08 L 187.7 0.48 L 188.88 0.48 A 4.27 4.27 0 0 1 189.631 0.542 Q 190.049 0.616 190.375 0.782 A 1.958 1.958 0 0 1 190.915 1.18 A 2.364 2.364 0 0 1 191.518 2.376 A 3.406 3.406 0 0 1 191.58 3.04 A 5.444 5.444 0 0 1 191.461 4.193 A 4.828 4.828 0 0 1 191.35 4.615 A 3.864 3.864 0 0 1 190.891 5.595 A 3.515 3.515 0 0 1 190.665 5.9 Q 190.21 6.45 189.53 6.765 A 3.316 3.316 0 0 1 188.667 7.024 A 4.505 4.505 0 0 1 187.94 7.08 Z M 343.94 7.08 L 342.38 7.08 L 343.7 0.48 L 344.88 0.48 A 4.27 4.27 0 0 1 345.631 0.542 Q 346.049 0.616 346.375 0.782 A 1.958 1.958 0 0 1 346.915 1.18 A 2.364 2.364 0 0 1 347.518 2.376 A 3.406 3.406 0 0 1 347.58 3.04 A 5.444 5.444 0 0 1 347.461 4.193 A 4.828 4.828 0 0 1 347.35 4.615 A 3.864 3.864 0 0 1 346.891 5.595 A 3.515 3.515 0 0 1 346.665 5.9 Q 346.21 6.45 345.53 6.765 A 3.316 3.316 0 0 1 344.667 7.024 A 4.505 4.505 0 0 1 343.94 7.08 Z M 6.88 7.08 L 6.58 7.08 L 7.9 0.48 L 9.5 0.48 A 4.046 4.046 0 0 1 9.952 0.504 Q 10.185 0.53 10.385 0.585 A 2.237 2.237 0 0 1 10.515 0.625 A 1.504 1.504 0 0 1 10.865 0.795 A 1.192 1.192 0 0 1 11.17 1.085 Q 11.386 1.38 11.399 1.838 A 2.1 2.1 0 0 1 11.4 1.9 A 2.146 2.146 0 0 1 11.341 2.41 A 1.805 1.805 0 0 1 11.215 2.765 Q 11.03 3.15 10.695 3.42 Q 10.36 3.69 9.905 3.835 A 3.101 3.101 0 0 1 9.18 3.971 A 3.68 3.68 0 0 1 8.92 3.98 L 7.5 3.98 L 6.88 7.08 Z M 228.88 7.08 L 228.58 7.08 L 229.9 0.48 L 231.5 0.48 A 4.046 4.046 0 0 1 231.952 0.504 Q 232.185 0.53 232.385 0.585 A 2.237 2.237 0 0 1 232.515 0.625 A 1.504 1.504 0 0 1 232.865 0.795 A 1.192 1.192 0 0 1 233.17 1.085 Q 233.386 1.38 233.399 1.838 A 2.1 2.1 0 0 1 233.4 1.9 A 2.146 2.146 0 0 1 233.341 2.41 A 1.805 1.805 0 0 1 233.215 2.765 Q 233.03 3.15 232.695 3.42 Q 232.36 3.69 231.905 3.835 A 3.101 3.101 0 0 1 231.18 3.971 A 3.68 3.68 0 0 1 230.92 3.98 L 229.5 3.98 L 228.88 7.08 Z M 252.88 7.08 L 252.58 7.08 L 253.9 0.48 L 255.5 0.48 A 4.046 4.046 0 0 1 255.952 0.504 Q 256.185 0.53 256.385 0.585 A 2.237 2.237 0 0 1 256.515 0.625 A 1.504 1.504 0 0 1 256.865 0.795 A 1.192 1.192 0 0 1 257.17 1.085 Q 257.386 1.38 257.399 1.838 A 2.1 2.1 0 0 1 257.4 1.9 A 2.146 2.146 0 0 1 257.341 2.41 A 1.805 1.805 0 0 1 257.215 2.765 Q 257.03 3.15 256.695 3.42 Q 256.36 3.69 255.905 3.835 A 3.101 3.101 0 0 1 255.18 3.971 A 3.68 3.68 0 0 1 254.92 3.98 L 253.5 3.98 L 252.88 7.08 Z M 282.88 7.08 L 282.58 7.08 L 283.9 0.48 L 285.5 0.48 A 4.046 4.046 0 0 1 285.952 0.504 Q 286.185 0.53 286.385 0.585 A 2.237 2.237 0 0 1 286.515 0.625 A 1.504 1.504 0 0 1 286.865 0.795 A 1.192 1.192 0 0 1 287.17 1.085 Q 287.386 1.38 287.399 1.838 A 2.1 2.1 0 0 1 287.4 1.9 A 2.146 2.146 0 0 1 287.341 2.41 A 1.805 1.805 0 0 1 287.215 2.765 Q 287.03 3.15 286.695 3.42 Q 286.36 3.69 285.905 3.835 A 3.101 3.101 0 0 1 285.18 3.971 A 3.68 3.68 0 0 1 284.92 3.98 L 283.5 3.98 L 282.88 7.08 Z M 248.101 7.138 A 2.232 2.232 0 0 0 248.64 7.2 A 2.637 2.637 0 0 0 248.79 7.196 A 2.203 2.203 0 0 0 249.71 6.945 Q 250.19 6.69 250.555 6.25 A 4.059 4.059 0 0 0 250.644 6.138 A 4.39 4.39 0 0 0 251.17 5.255 Q 251.42 4.7 251.55 4.095 Q 251.68 3.49 251.68 2.9 Q 251.68 2.16 251.44 1.585 A 2.436 2.436 0 0 0 251.342 1.378 A 1.962 1.962 0 0 0 250.74 0.685 A 1.711 1.711 0 0 0 250.159 0.422 A 2.232 2.232 0 0 0 249.62 0.36 A 2.637 2.637 0 0 0 249.47 0.364 A 2.203 2.203 0 0 0 248.55 0.615 Q 248.07 0.87 247.705 1.31 A 4.059 4.059 0 0 0 247.616 1.422 A 4.39 4.39 0 0 0 247.09 2.305 Q 246.84 2.86 246.71 3.465 Q 246.58 4.07 246.58 4.66 Q 246.58 5.4 246.82 5.975 A 2.436 2.436 0 0 0 246.918 6.182 A 1.962 1.962 0 0 0 247.52 6.875 A 1.711 1.711 0 0 0 248.101 7.138 Z M 302.101 7.138 A 2.232 2.232 0 0 0 302.64 7.2 A 2.637 2.637 0 0 0 302.79 7.196 A 2.203 2.203 0 0 0 303.71 6.945 Q 304.19 6.69 304.555 6.25 A 4.059 4.059 0 0 0 304.644 6.138 A 4.39 4.39 0 0 0 305.17 5.255 Q 305.42 4.7 305.55 4.095 Q 305.68 3.49 305.68 2.9 Q 305.68 2.16 305.44 1.585 A 2.436 2.436 0 0 0 305.342 1.378 A 1.962 1.962 0 0 0 304.74 0.685 A 1.711 1.711 0 0 0 304.159 0.422 A 2.232 2.232 0 0 0 303.62 0.36 A 2.637 2.637 0 0 0 303.47 0.364 A 2.203 2.203 0 0 0 302.55 0.615 Q 302.07 0.87 301.705 1.31 A 4.059 4.059 0 0 0 301.616 1.422 A 4.39 4.39 0 0 0 301.09 2.305 Q 300.84 2.86 300.71 3.465 Q 300.58 4.07 300.58 4.66 Q 300.58 5.4 300.82 5.975 A 2.436 2.436 0 0 0 300.918 6.182 A 1.962 1.962 0 0 0 301.52 6.875 A 1.711 1.711 0 0 0 302.101 7.138 Z M 58.94 6.11 L 58.94 6.46 L 55.32 3.91 L 55.32 3.61 L 58.94 1.06 L 58.94 1.41 L 55.62 3.74 L 55.62 3.78 L 58.94 6.11 Z M 43.94 0.74 L 42.72 6.82 L 43.96 6.82 A 3.867 3.867 0 0 0 44.811 6.731 A 2.82 2.82 0 0 0 45.78 6.32 Q 46.52 5.82 46.9 4.965 Q 47.28 4.11 47.28 3.06 A 2.96 2.96 0 0 0 47.193 2.322 A 2.142 2.142 0 0 0 46.685 1.38 A 1.85 1.85 0 0 0 45.903 0.89 Q 45.602 0.789 45.235 0.756 A 4.181 4.181 0 0 0 44.86 0.74 L 43.94 0.74 Z M 187.94 0.74 L 186.72 6.82 L 187.96 6.82 A 3.867 3.867 0 0 0 188.811 6.731 A 2.82 2.82 0 0 0 189.78 6.32 Q 190.52 5.82 190.9 4.965 Q 191.28 4.11 191.28 3.06 A 2.96 2.96 0 0 0 191.193 2.322 A 2.142 2.142 0 0 0 190.685 1.38 A 1.85 1.85 0 0 0 189.903 0.89 Q 189.602 0.789 189.235 0.756 A 4.181 4.181 0 0 0 188.86 0.74 L 187.94 0.74 Z M 343.94 0.74 L 342.72 6.82 L 343.96 6.82 A 3.867 3.867 0 0 0 344.811 6.731 A 2.82 2.82 0 0 0 345.78 6.32 Q 346.52 5.82 346.9 4.965 Q 347.28 4.11 347.28 3.06 A 2.96 2.96 0 0 0 347.193 2.322 A 2.142 2.142 0 0 0 346.685 1.38 A 1.85 1.85 0 0 0 345.903 0.89 Q 345.602 0.789 345.235 0.756 A 4.181 4.181 0 0 0 344.86 0.74 L 343.94 0.74 Z M 248.66 6.94 A 1.976 1.976 0 0 0 249.327 6.829 A 1.828 1.828 0 0 0 249.62 6.695 A 2.607 2.607 0 0 0 250.317 6.111 A 2.999 2.999 0 0 0 250.38 6.035 A 3.963 3.963 0 0 0 250.899 5.173 A 4.44 4.44 0 0 0 250.93 5.1 Q 251.15 4.58 251.265 4.02 A 5.587 5.587 0 0 0 251.371 3.236 A 4.865 4.865 0 0 0 251.38 2.94 A 4.056 4.056 0 0 0 251.337 2.337 A 3.011 3.011 0 0 0 251.185 1.735 A 1.975 1.975 0 0 0 250.945 1.274 A 1.612 1.612 0 0 0 250.595 0.915 A 1.448 1.448 0 0 0 250.013 0.66 A 2.041 2.041 0 0 0 249.6 0.62 A 1.976 1.976 0 0 0 248.933 0.731 A 1.828 1.828 0 0 0 248.64 0.865 A 2.607 2.607 0 0 0 247.943 1.449 A 2.999 2.999 0 0 0 247.88 1.525 A 3.963 3.963 0 0 0 247.361 2.387 A 4.44 4.44 0 0 0 247.33 2.46 Q 247.11 2.98 246.995 3.54 A 5.587 5.587 0 0 0 246.889 4.324 A 4.865 4.865 0 0 0 246.88 4.62 A 4.056 4.056 0 0 0 246.923 5.223 A 3.011 3.011 0 0 0 247.075 5.825 A 1.975 1.975 0 0 0 247.315 6.286 A 1.612 1.612 0 0 0 247.665 6.645 A 1.448 1.448 0 0 0 248.247 6.9 A 2.041 2.041 0 0 0 248.66 6.94 Z M 302.66 6.94 A 1.976 1.976 0 0 0 303.327 6.829 A 1.828 1.828 0 0 0 303.62 6.695 A 2.607 2.607 0 0 0 304.317 6.111 A 2.999 2.999 0 0 0 304.38 6.035 A 3.963 3.963 0 0 0 304.899 5.173 A 4.44 4.44 0 0 0 304.93 5.1 Q 305.15 4.58 305.265 4.02 A 5.587 5.587 0 0 0 305.371 3.236 A 4.865 4.865 0 0 0 305.38 2.94 A 4.056 4.056 0 0 0 305.337 2.337 A 3.011 3.011 0 0 0 305.185 1.735 A 1.975 1.975 0 0 0 304.945 1.274 A 1.612 1.612 0 0 0 304.595 0.915 A 1.448 1.448 0 0 0 304.013 0.66 A 2.041 2.041 0 0 0 303.6 0.62 A 1.976 1.976 0 0 0 302.933 0.731 A 1.828 1.828 0 0 0 302.64 0.865 A 2.607 2.607 0 0 0 301.943 1.449 A 2.999 2.999 0 0 0 301.88 1.525 A 3.963 3.963 0 0 0 301.361 2.387 A 4.44 4.44 0 0 0 301.33 2.46 Q 301.11 2.98 300.995 3.54 A 5.587 5.587 0 0 0 300.889 4.324 A 4.865 4.865 0 0 0 300.88 4.62 A 4.056 4.056 0 0 0 300.923 5.223 A 3.011 3.011 0 0 0 301.075 5.825 A 1.975 1.975 0 0 0 301.315 6.286 A 1.612 1.612 0 0 0 301.665 6.645 A 1.448 1.448 0 0 0 302.247 6.9 A 2.041 2.041 0 0 0 302.66 6.94 Z M 97.6 3.7 L 96.96 6.82 L 98.34 6.82 Q 99.052 6.82 99.601 6.662 A 3.282 3.282 0 0 0 99.66 6.645 A 2.108 2.108 0 0 0 100.109 6.451 A 1.582 1.582 0 0 0 100.545 6.08 A 1.36 1.36 0 0 0 100.804 5.546 Q 100.86 5.32 100.86 5.05 A 1.161 1.161 0 0 0 100.475 4.172 A 1.58 1.58 0 0 0 100.375 4.085 Q 99.989 3.779 99.348 3.716 A 3.577 3.577 0 0 0 99 3.7 L 97.6 3.7 Z M 415.6 3.7 L 414.96 6.82 L 416.34 6.82 Q 417.052 6.82 417.601 6.662 A 3.282 3.282 0 0 0 417.66 6.645 A 2.108 2.108 0 0 0 418.109 6.451 A 1.582 1.582 0 0 0 418.545 6.08 A 1.36 1.36 0 0 0 418.804 5.546 Q 418.86 5.32 418.86 5.05 A 1.161 1.161 0 0 0 418.475 4.172 A 1.58 1.58 0 0 0 418.375 4.085 Q 417.989 3.779 417.348 3.716 A 3.577 3.577 0 0 0 417 3.7 L 415.6 3.7 Z M 8.14 0.74 L 7.56 3.72 L 8.78 3.72 Q 9.536 3.72 10.058 3.497 A 1.897 1.897 0 0 0 10.495 3.24 Q 11.1 2.76 11.1 1.92 A 1.48 1.48 0 0 0 11.063 1.576 A 0.869 0.869 0 0 0 10.655 1.005 A 1.539 1.539 0 0 0 10.296 0.854 Q 9.943 0.751 9.434 0.741 A 5.69 5.69 0 0 0 9.32 0.74 L 8.14 0.74 Z M 230.14 0.74 L 229.56 3.72 L 230.78 3.72 Q 231.536 3.72 232.058 3.497 A 1.897 1.897 0 0 0 232.495 3.24 Q 233.1 2.76 233.1 1.92 A 1.48 1.48 0 0 0 233.063 1.576 A 0.869 0.869 0 0 0 232.655 1.005 A 1.539 1.539 0 0 0 232.296 0.854 Q 231.943 0.751 231.434 0.741 A 5.69 5.69 0 0 0 231.32 0.74 L 230.14 0.74 Z M 254.14 0.74 L 253.56 3.72 L 254.78 3.72 Q 255.536 3.72 256.058 3.497 A 1.897 1.897 0 0 0 256.495 3.24 Q 257.1 2.76 257.1 1.92 A 1.48 1.48 0 0 0 257.063 1.576 A 0.869 0.869 0 0 0 256.655 1.005 A 1.539 1.539 0 0 0 256.296 0.854 Q 255.943 0.751 255.434 0.741 A 5.69 5.69 0 0 0 255.32 0.74 L 254.14 0.74 Z M 284.14 0.74 L 283.56 3.72 L 284.78 3.72 Q 285.536 3.72 286.058 3.497 A 1.897 1.897 0 0 0 286.495 3.24 Q 287.1 2.76 287.1 1.92 A 1.48 1.48 0 0 0 287.063 1.576 A 0.869 0.869 0 0 0 286.655 1.005 A 1.539 1.539 0 0 0 286.296 0.854 Q 285.943 0.751 285.434 0.741 A 5.69 5.69 0 0 0 285.32 0.74 L 284.14 0.74 Z M 98.18 0.74 L 97.64 3.44 L 98.82 3.44 Q 99.931 3.44 100.501 3.031 A 1.501 1.501 0 0 0 100.53 3.01 A 1.545 1.545 0 0 0 100.883 2.647 A 1.264 1.264 0 0 0 101.1 1.92 Q 101.1 1.36 100.71 1.05 A 1.09 1.09 0 0 0 100.409 0.887 Q 100.102 0.773 99.628 0.747 A 5.376 5.376 0 0 0 99.34 0.74 L 98.18 0.74 Z M 416.18 0.74 L 415.64 3.44 L 416.82 3.44 Q 417.931 3.44 418.501 3.031 A 1.501 1.501 0 0 0 418.53 3.01 A 1.545 1.545 0 0 0 418.883 2.647 A 1.264 1.264 0 0 0 419.1 1.92 Q 419.1 1.36 418.71 1.05 A 1.09 1.09 0 0 0 418.409 0.887 Q 418.102 0.773 417.628 0.747 A 5.376 5.376 0 0 0 417.34 0.74 L 416.18 0.74 Z M 259.13 9.09 L 259.06 8.84 A 2.861 2.861 0 0 0 259.678 8.588 A 2.205 2.205 0 0 0 260.24 8.145 A 2.062 2.062 0 0 0 260.611 7.58 A 1.834 1.834 0 0 0 260.75 7.06 L 260.79 6.87 L 261 6.95 A 0.354 0.354 0 0 1 260.843 7.074 A 0.459 0.459 0 0 1 260.8 7.09 A 1.062 1.062 0 0 1 260.707 7.114 Q 260.658 7.125 260.614 7.128 A 0.551 0.551 0 0 1 260.57 7.13 A 0.519 0.519 0 0 1 260.429 7.112 A 0.39 0.39 0 0 1 260.25 7.005 Q 260.13 6.88 260.13 6.67 Q 260.13 6.49 260.215 6.34 A 0.642 0.642 0 0 1 260.397 6.134 A 0.628 0.628 0 0 1 260.44 6.105 Q 260.58 6.02 260.75 6.02 A 0.482 0.482 0 0 1 260.908 6.045 A 0.398 0.398 0 0 1 261.105 6.195 Q 261.2 6.329 261.223 6.546 A 1.393 1.393 0 0 1 261.23 6.69 Q 261.23 7.27 260.955 7.755 Q 260.68 8.24 260.21 8.58 Q 259.74 8.92 259.13 9.09 Z M 10.18 7.08 L 8.9 3.96 L 9.18 3.84 L 10.52 7.08 L 10.18 7.08 Z M 232.18 7.08 L 230.9 3.96 L 231.18 3.84 L 232.52 7.08 L 232.18 7.08 Z M 256.18 7.08 L 254.9 3.96 L 255.18 3.84 L 256.52 7.08 L 256.18 7.08 Z M 286.18 7.08 L 284.9 3.96 L 285.18 3.84 L 286.52 7.08 L 286.18 7.08 Z M 4.45 4.7 L 1.58 4.7 L 1.66 4.44 L 4.46 4.44 L 4.45 4.7 Z M 106.45 4.7 L 103.58 4.7 L 103.66 4.44 L 106.46 4.44 L 106.45 4.7 Z M 184.45 4.7 L 181.58 4.7 L 181.66 4.44 L 184.46 4.44 L 184.45 4.7 Z M 238.45 4.7 L 235.58 4.7 L 235.66 4.44 L 238.46 4.44 L 238.45 4.7 Z M 412.45 4.7 L 409.58 4.7 L 409.66 4.44 L 412.46 4.44 L 412.45 4.7 Z M 170.321 7.18 A 0.468 0.468 0 0 0 170.46 7.2 A 0.488 0.488 0 0 0 170.593 7.182 A 0.538 0.538 0 0 0 170.76 7.1 Q 170.9 7 170.99 6.845 A 0.75 0.75 0 0 0 170.993 6.84 A 0.637 0.637 0 0 0 171.08 6.52 A 0.789 0.789 0 0 0 171.08 6.509 Q 171.077 6.307 170.97 6.185 A 0.354 0.354 0 0 0 170.787 6.075 A 0.514 0.514 0 0 0 170.66 6.06 A 0.488 0.488 0 0 0 170.527 6.078 A 0.538 0.538 0 0 0 170.36 6.16 Q 170.22 6.26 170.13 6.415 A 0.75 0.75 0 0 0 170.127 6.42 A 0.637 0.637 0 0 0 170.04 6.74 A 0.623 0.623 0 0 0 170.055 6.88 A 0.422 0.422 0 0 0 170.155 7.075 A 0.371 0.371 0 0 0 170.321 7.18 Z M 314.321 7.18 A 0.468 0.468 0 0 0 314.46 7.2 A 0.488 0.488 0 0 0 314.593 7.182 A 0.538 0.538 0 0 0 314.76 7.1 Q 314.9 7 314.99 6.845 A 0.75 0.75 0 0 0 314.993 6.84 A 0.637 0.637 0 0 0 315.08 6.52 A 0.789 0.789 0 0 0 315.08 6.509 Q 315.077 6.307 314.97 6.185 A 0.354 0.354 0 0 0 314.787 6.075 A 0.514 0.514 0 0 0 314.66 6.06 A 0.488 0.488 0 0 0 314.527 6.078 A 0.538 0.538 0 0 0 314.36 6.16 Q 314.22 6.26 314.13 6.415 A 0.75 0.75 0 0 0 314.127 6.42 A 0.637 0.637 0 0 0 314.04 6.74 A 0.623 0.623 0 0 0 314.055 6.88 A 0.422 0.422 0 0 0 314.155 7.075 A 0.371 0.371 0 0 0 314.321 7.18 Z M 374.321 7.18 A 0.468 0.468 0 0 0 374.46 7.2 A 0.488 0.488 0 0 0 374.593 7.182 A 0.538 0.538 0 0 0 374.76 7.1 Q 374.9 7 374.99 6.845 A 0.75 0.75 0 0 0 374.993 6.84 A 0.637 0.637 0 0 0 375.08 6.52 A 0.789 0.789 0 0 0 375.08 6.509 Q 375.077 6.307 374.97 6.185 A 0.354 0.354 0 0 0 374.787 6.075 A 0.514 0.514 0 0 0 374.66 6.06 A 0.488 0.488 0 0 0 374.527 6.078 A 0.538 0.538 0 0 0 374.36 6.16 Q 374.22 6.26 374.13 6.415 A 0.75 0.75 0 0 0 374.127 6.42 A 0.637 0.637 0 0 0 374.04 6.74 A 0.623 0.623 0 0 0 374.055 6.88 A 0.422 0.422 0 0 0 374.155 7.075 A 0.371 0.371 0 0 0 374.321 7.18 Z M 171.081 3.32 A 0.468 0.468 0 0 0 171.22 3.34 A 0.488 0.488 0 0 0 171.353 3.322 A 0.538 0.538 0 0 0 171.52 3.24 Q 171.66 3.14 171.75 2.985 A 0.75 0.75 0 0 0 171.753 2.98 A 0.637 0.637 0 0 0 171.84 2.66 A 0.789 0.789 0 0 0 171.84 2.649 Q 171.837 2.447 171.73 2.325 A 0.354 0.354 0 0 0 171.547 2.215 A 0.514 0.514 0 0 0 171.42 2.2 A 0.488 0.488 0 0 0 171.287 2.218 A 0.538 0.538 0 0 0 171.12 2.3 Q 170.98 2.4 170.89 2.555 A 0.75 0.75 0 0 0 170.887 2.56 A 0.637 0.637 0 0 0 170.8 2.88 A 0.623 0.623 0 0 0 170.815 3.02 A 0.422 0.422 0 0 0 170.915 3.215 A 0.371 0.371 0 0 0 171.081 3.32 Z M 315.081 3.32 A 0.468 0.468 0 0 0 315.22 3.34 A 0.488 0.488 0 0 0 315.353 3.322 A 0.538 0.538 0 0 0 315.52 3.24 Q 315.66 3.14 315.75 2.985 A 0.75 0.75 0 0 0 315.753 2.98 A 0.637 0.637 0 0 0 315.84 2.66 A 0.789 0.789 0 0 0 315.84 2.649 Q 315.837 2.447 315.73 2.325 A 0.354 0.354 0 0 0 315.547 2.215 A 0.514 0.514 0 0 0 315.42 2.2 A 0.488 0.488 0 0 0 315.287 2.218 A 0.538 0.538 0 0 0 315.12 2.3 Q 314.98 2.4 314.89 2.555 A 0.75 0.75 0 0 0 314.887 2.56 A 0.637 0.637 0 0 0 314.8 2.88 A 0.623 0.623 0 0 0 314.815 3.02 A 0.422 0.422 0 0 0 314.915 3.215 A 0.371 0.371 0 0 0 315.081 3.32 Z" vector-effect="non-scaling-stroke"/></g></svg>
