<svg width="382.3" height="34.201" viewBox="0 0 382.3 34.201" xmlns="http://www.w3.org/2000/svg"><g id="svgGroup" stroke-linecap="round" fill-rule="evenodd" font-size="9pt" stroke="#000" stroke-width="0.25mm" fill="black" style="stroke:#000;stroke-width:0.25mm;fill:black"><path d="M 175.5 33.6 L 174 33.6 L 180.6 0.6 L 182.1 0.6 L 179.1 15.4 L 196.9 15.4 L 199.9 0.6 L 201.4 0.6 L 194.8 33.6 L 193.3 33.6 L 196.7 16.7 L 178.9 16.7 L 175.5 33.6 Z M 376.1 33.6 L 356.4 33.6 L 363 0.6 L 382.3 0.6 L 382 1.9 L 364.2 1.9 L 361.5 15.4 L 376.4 15.4 L 376.1 16.7 L 361.3 16.7 L 358.1 32.3 L 376.4 32.3 L 376.1 33.6 Z M 324.9 28.7 L 326.1 27.9 A 12.084 12.084 0 0 0 328.373 30.471 A 10.727 10.727 0 0 0 330 31.6 A 9.791 9.791 0 0 0 333.049 32.686 A 13.376 13.376 0 0 0 335.5 32.9 A 10.794 10.794 0 0 0 338.301 32.548 A 9.333 9.333 0 0 0 340.025 31.9 Q 342.05 30.9 343.225 29.075 A 7.371 7.371 0 0 0 344.335 25.914 A 9.381 9.381 0 0 0 344.4 24.8 A 7.173 7.173 0 0 0 344.159 22.9 A 5.709 5.709 0 0 0 343.225 20.975 A 9.283 9.283 0 0 0 341.243 19.034 A 11.551 11.551 0 0 0 340.1 18.3 L 335.7 15.7 Q 333.7 14.5 332.1 12.7 A 6.299 6.299 0 0 1 330.51 8.712 A 8.15 8.15 0 0 1 330.5 8.3 Q 330.5 6.1 331.65 4.2 A 8.42 8.42 0 0 1 334.611 1.302 A 10.012 10.012 0 0 1 334.875 1.15 A 9.116 9.116 0 0 1 338.042 0.113 A 11.784 11.784 0 0 1 339.7 0 Q 342.7 0 344.975 1.3 Q 347.25 2.6 348.5 4.4 L 347.4 5.3 A 10.326 10.326 0 0 0 345.217 3.184 A 12.707 12.707 0 0 0 344.125 2.475 A 8.655 8.655 0 0 0 340.944 1.404 A 11.163 11.163 0 0 0 339.4 1.3 Q 337.15 1.3 335.5 2.3 A 7.433 7.433 0 0 0 333.306 4.293 A 7.165 7.165 0 0 0 332.925 4.875 Q 332 6.45 332 8.1 Q 332 10.5 333.35 11.95 Q 334.7 13.4 336.4 14.4 L 340.7 16.9 A 15.772 15.772 0 0 1 342.614 18.2 A 13.464 13.464 0 0 1 343.425 18.9 Q 344.6 20 345.25 21.4 A 6.932 6.932 0 0 1 345.821 23.397 A 8.922 8.922 0 0 1 345.9 24.6 Q 345.9 27.5 344.5 29.65 Q 343.1 31.8 340.7 33 A 11.421 11.421 0 0 1 336.673 34.134 A 14.025 14.025 0 0 1 335.3 34.2 A 14.285 14.285 0 0 1 332.115 33.86 A 11.201 11.201 0 0 1 329.175 32.75 Q 326.55 31.3 324.9 28.7 Z M 203.7 33.6 L 202.1 33.6 L 220.8 0.6 L 222.3 0.6 L 226.9 33.6 L 225.4 33.6 L 222.8 13.8 Q 222.45 11 222.1 8 Q 221.75 5 221.35 2.25 L 221.1 2.25 A 484.135 484.135 0 0 0 218.723 6.549 A 424.441 424.441 0 0 0 217.975 7.925 A 7454.019 7454.019 0 0 1 215.692 12.139 A 8394.915 8394.915 0 0 1 214.9 13.6 L 203.7 33.6 Z M 293.7 33.6 L 292.1 33.6 L 310.8 0.6 L 312.3 0.6 L 316.9 33.6 L 315.4 33.6 L 312.8 13.8 Q 312.45 11 312.1 8 Q 311.75 5 311.35 2.25 L 311.1 2.25 A 484.135 484.135 0 0 0 308.723 6.549 A 424.441 424.441 0 0 0 307.975 7.925 A 7454.019 7454.019 0 0 1 305.692 12.139 A 8394.915 8394.915 0 0 1 304.9 13.6 L 293.7 33.6 Z M 5.3 33.6 L 3.6 33.6 L 0 0.6 L 1.4 0.6 L 3.5 20.55 Q 3.8 23.3 4.1 26.1 L 4.7 31.7 L 4.9 31.7 A 458.481 458.481 0 0 1 6.747 28.237 A 501.986 501.986 0 0 1 6.875 28 Q 7.9 26.1 8.925 24.225 A 1444.217 1444.217 0 0 0 10.42 21.483 A 1297.719 1297.719 0 0 0 10.9 20.6 L 21.8 0.6 L 23.35 0.6 L 5.3 33.6 Z M 73.7 33.6 L 55 33.6 L 55.3 32.3 L 63.8 32.3 L 69.9 1.9 L 61.3 1.9 L 61.6 0.6 L 80.4 0.6 L 80.1 1.9 L 71.4 1.9 L 65.3 32.3 L 74 32.3 L 73.7 33.6 Z M 170.9 4.6 L 169.7 5.4 Q 168.75 3.6 167.15 2.45 A 6.012 6.012 0 0 0 164.694 1.43 A 8.246 8.246 0 0 0 163.2 1.3 A 12.094 12.094 0 0 0 159.87 1.746 A 10.604 10.604 0 0 0 157.95 2.5 Q 155.6 3.7 153.775 5.775 Q 151.95 7.85 150.7 10.4 Q 149.45 12.95 148.825 15.7 A 25.069 25.069 0 0 0 148.261 19.387 A 21.635 21.635 0 0 0 148.2 21 A 19.378 19.378 0 0 0 148.482 24.376 A 15.406 15.406 0 0 0 149.2 27.05 A 9.739 9.739 0 0 0 150.707 29.764 A 8.646 8.646 0 0 0 152.325 31.325 Q 154.45 32.9 157.8 32.9 A 10.998 10.998 0 0 0 160.581 32.558 A 9.632 9.632 0 0 0 162.1 32.025 A 15.462 15.462 0 0 0 164.734 30.503 A 18.72 18.72 0 0 0 165.9 29.6 L 166.8 30.6 Q 165.4 31.75 164 32.55 Q 162.6 33.35 161.05 33.775 A 11.972 11.972 0 0 1 158.801 34.159 A 14.31 14.31 0 0 1 157.7 34.2 Q 154.07 34.2 151.643 32.564 A 8.438 8.438 0 0 1 151.55 32.5 A 10.146 10.146 0 0 1 147.981 28.068 A 12.203 12.203 0 0 1 147.9 27.875 A 15.945 15.945 0 0 1 146.842 23.724 A 20.123 20.123 0 0 1 146.7 21.3 Q 146.7 18.4 147.425 15.4 Q 148.15 12.4 149.525 9.65 Q 150.9 6.9 152.925 4.725 Q 154.95 2.55 157.55 1.275 A 12.599 12.599 0 0 1 162.329 0.031 A 14.963 14.963 0 0 1 163.3 0 A 9.568 9.568 0 0 1 165.399 0.219 A 6.8 6.8 0 0 1 167.95 1.35 Q 169.8 2.7 170.9 4.6 Z M 245.1 33.6 L 243.6 33.6 L 249.9 2 L 238.2 2 L 238.5 0.6 L 263.4 0.6 L 263.1 2 L 251.4 2 L 245.1 33.6 Z M 274.7 33.6 L 265.2 33.6 L 271.8 0.6 L 279.6 0.6 A 20.477 20.477 0 0 1 281.787 0.71 Q 283.605 0.906 284.95 1.45 A 7.756 7.756 0 0 1 286.531 2.301 A 5.766 5.766 0 0 1 288.075 3.9 A 6.437 6.437 0 0 1 289.01 6.447 A 8.417 8.417 0 0 1 289.1 7.7 Q 289.1 10.2 287.875 11.975 A 9.303 9.303 0 0 1 285.767 14.183 A 8.641 8.641 0 0 1 284.9 14.75 A 12.373 12.373 0 0 1 283.433 15.471 Q 282.662 15.785 281.934 15.938 A 7.192 7.192 0 0 1 281.6 16 L 281.6 16.2 Q 283.2 16.55 284.65 17.425 Q 286.1 18.3 287 19.75 A 5.816 5.816 0 0 1 287.75 21.694 A 8.176 8.176 0 0 1 287.9 23.3 A 12.205 12.205 0 0 1 287.648 25.848 Q 287.255 27.689 286.25 29.075 A 9.372 9.372 0 0 1 282.947 31.885 A 12.002 12.002 0 0 1 281.625 32.475 Q 278.65 33.6 274.7 33.6 Z M 91.8 33.6 L 84 33.6 L 90.6 0.6 L 96.5 0.6 A 21.351 21.351 0 0 1 100.257 0.909 Q 104.337 1.639 106.675 4.1 Q 110 7.6 110 13.4 Q 110 17.6 108.85 21.275 Q 107.7 24.95 105.425 27.7 Q 103.15 30.45 99.75 32.025 Q 96.35 33.6 91.8 33.6 Z M 32.604 33.889 A 11.161 11.161 0 0 0 35.3 34.2 A 13.183 13.183 0 0 0 36.051 34.179 A 11.017 11.017 0 0 0 40.65 32.925 Q 43.05 31.65 44.875 29.45 A 20.294 20.294 0 0 0 45.322 28.891 A 21.95 21.95 0 0 0 47.95 24.475 Q 49.2 21.7 49.85 18.675 Q 50.5 15.65 50.5 12.7 A 20.014 20.014 0 0 0 50.302 9.83 A 15.261 15.261 0 0 0 49.3 6.125 A 12.178 12.178 0 0 0 48.811 5.091 A 9.809 9.809 0 0 0 45.8 1.625 A 8.556 8.556 0 0 0 42.896 0.311 A 11.161 11.161 0 0 0 40.2 0 A 13.183 13.183 0 0 0 39.449 0.021 A 11.017 11.017 0 0 0 34.85 1.275 Q 32.45 2.55 30.625 4.75 A 20.294 20.294 0 0 0 30.178 5.309 A 21.95 21.95 0 0 0 27.55 9.725 Q 26.3 12.5 25.65 15.525 Q 25 18.55 25 21.5 A 20.014 20.014 0 0 0 25.198 24.37 A 15.261 15.261 0 0 0 26.2 28.075 A 12.178 12.178 0 0 0 26.689 29.109 A 9.809 9.809 0 0 0 29.7 32.575 A 8.556 8.556 0 0 0 32.604 33.889 Z M 91.8 1.9 L 85.7 32.3 L 91.9 32.3 A 19.337 19.337 0 0 0 96.154 31.855 A 14.099 14.099 0 0 0 101 29.8 Q 104.7 27.3 106.6 23.025 A 22.148 22.148 0 0 0 108.374 16.143 A 27.084 27.084 0 0 0 108.5 13.5 A 14.799 14.799 0 0 0 108.064 9.812 A 10.708 10.708 0 0 0 105.525 5.1 A 9.25 9.25 0 0 0 101.613 2.651 Q 99.379 1.9 96.4 1.9 L 91.8 1.9 Z M 35.4 32.9 Q 38.05 32.9 40.2 31.675 A 13.034 13.034 0 0 0 43.686 28.757 A 14.994 14.994 0 0 0 44 28.375 A 19.815 19.815 0 0 0 46.593 24.063 A 22.196 22.196 0 0 0 46.75 23.7 Q 47.85 21.1 48.425 18.3 Q 49 15.5 49 12.9 Q 49 9.5 48.025 6.875 A 9.873 9.873 0 0 0 46.823 4.57 A 8.061 8.061 0 0 0 45.075 2.775 A 7.238 7.238 0 0 0 42.165 1.499 A 10.206 10.206 0 0 0 40.1 1.3 Q 37.45 1.3 35.3 2.525 A 13.034 13.034 0 0 0 31.814 5.444 A 14.994 14.994 0 0 0 31.5 5.825 A 19.815 19.815 0 0 0 28.907 10.137 A 22.196 22.196 0 0 0 28.75 10.5 Q 27.65 13.1 27.075 15.9 Q 26.5 18.7 26.5 21.3 Q 26.5 24.7 27.475 27.325 A 9.873 9.873 0 0 0 28.677 29.631 A 8.061 8.061 0 0 0 30.425 31.425 A 7.238 7.238 0 0 0 33.335 32.701 A 10.206 10.206 0 0 0 35.4 32.9 Z M 270.1 16.7 L 266.9 32.3 L 273.8 32.3 Q 277.55 32.3 280.4 31.425 A 10.542 10.542 0 0 0 282.645 30.457 A 7.91 7.91 0 0 0 284.825 28.6 Q 286.4 26.65 286.4 23.45 A 5.806 5.806 0 0 0 284.476 19.058 A 7.898 7.898 0 0 0 283.975 18.625 A 8.041 8.041 0 0 0 281.362 17.276 Q 279.534 16.7 277.1 16.7 L 270.1 16.7 Z M 273 1.9 L 270.3 15.4 L 276.2 15.4 A 24.396 24.396 0 0 0 279.181 15.23 Q 282.578 14.811 284.604 13.358 A 7.505 7.505 0 0 0 284.75 13.25 A 7.726 7.726 0 0 0 286.514 11.436 A 6.319 6.319 0 0 0 287.6 7.8 Q 287.6 5 285.65 3.45 A 5.452 5.452 0 0 0 284.143 2.633 Q 282.611 2.064 280.24 1.937 A 26.882 26.882 0 0 0 278.8 1.9 L 273 1.9 Z M 137.55 17.75 L 117.45 17.75 L 117.45 16.45 L 137.55 16.45 L 137.55 17.75 Z M 224.35 21.7 L 210 21.7 L 210.4 20.4 L 224.4 20.4 L 224.35 21.7 Z M 314.35 21.7 L 300 21.7 L 300.4 20.4 L 314.4 20.4 L 314.35 21.7 Z" vector-effect="non-scaling-stroke"/></g></svg>
