<svg width="100" height="15.2" viewBox="0 0 191.15 17.1" xmlns="http://www.w3.org/2000/svg"><g id="svgGroup" stroke-linecap="round" fill-rule="evenodd" font-size="9pt" stroke="#000" stroke-width="0.25mm" fill="black" style="stroke:#000;stroke-width:0.25mm;fill:black"><path d="M 87.75 16.8 L 87 16.8 L 90.3 0.3 L 91.05 0.3 L 89.55 7.7 L 98.45 7.7 L 99.95 0.3 L 100.7 0.3 L 97.4 16.8 L 96.65 16.8 L 98.35 8.35 L 89.45 8.35 L 87.75 16.8 Z M 188.05 16.8 L 178.2 16.8 L 181.5 0.3 L 191.15 0.3 L 191 0.95 L 182.1 0.95 L 180.75 7.7 L 188.2 7.7 L 188.05 8.35 L 180.65 8.35 L 179.05 16.15 L 188.2 16.15 L 188.05 16.8 Z M 162.45 14.35 L 163.05 13.95 A 6.042 6.042 0 0 0 164.187 15.235 A 5.363 5.363 0 0 0 165 15.8 A 4.896 4.896 0 0 0 166.524 16.343 A 6.688 6.688 0 0 0 167.75 16.45 A 5.397 5.397 0 0 0 169.151 16.274 A 4.667 4.667 0 0 0 170.012 15.95 Q 171.025 15.45 171.613 14.538 A 3.685 3.685 0 0 0 172.168 12.957 A 4.691 4.691 0 0 0 172.2 12.4 A 3.586 3.586 0 0 0 172.079 11.45 A 2.855 2.855 0 0 0 171.612 10.488 A 4.642 4.642 0 0 0 170.622 9.517 A 5.776 5.776 0 0 0 170.05 9.15 L 167.85 7.85 Q 166.85 7.25 166.05 6.35 A 3.149 3.149 0 0 1 165.255 4.356 A 4.075 4.075 0 0 1 165.25 4.15 Q 165.25 3.05 165.825 2.1 Q 166.4 1.15 167.438 0.575 Q 168.475 0 169.85 0 Q 171.35 0 172.488 0.65 A 6.182 6.182 0 0 1 173.441 1.314 A 4.676 4.676 0 0 1 174.25 2.2 L 173.7 2.65 A 5.163 5.163 0 0 0 172.608 1.592 A 6.354 6.354 0 0 0 172.063 1.238 Q 171.05 0.65 169.7 0.65 A 4.26 4.26 0 0 0 168.711 0.76 A 3.329 3.329 0 0 0 167.75 1.15 A 3.716 3.716 0 0 0 166.653 2.147 A 3.582 3.582 0 0 0 166.463 2.438 A 3.403 3.403 0 0 0 166.089 3.335 A 2.933 2.933 0 0 0 166 4.05 A 3.461 3.461 0 0 0 166.095 4.883 A 2.428 2.428 0 0 0 166.675 5.975 Q 167.35 6.7 168.2 7.2 L 170.35 8.45 A 7.886 7.886 0 0 1 171.307 9.1 A 6.732 6.732 0 0 1 171.713 9.45 Q 172.3 10 172.625 10.7 A 3.466 3.466 0 0 1 172.911 11.699 A 4.461 4.461 0 0 1 172.95 12.3 Q 172.95 13.75 172.25 14.825 Q 171.55 15.9 170.35 16.5 Q 169.15 17.1 167.65 17.1 A 7.143 7.143 0 0 1 166.057 16.93 A 5.601 5.601 0 0 1 164.587 16.375 Q 163.275 15.65 162.45 14.35 Z M 101.85 16.8 L 101.05 16.8 L 110.4 0.3 L 111.15 0.3 L 113.45 16.8 L 112.7 16.8 L 111.4 6.9 Q 111.225 5.5 111.05 4 A 105.84 105.84 0 0 0 110.773 1.82 A 93.324 93.324 0 0 0 110.675 1.125 L 110.55 1.125 A 242.068 242.068 0 0 0 109.362 3.274 A 212.221 212.221 0 0 0 108.987 3.963 A 3726.132 3726.132 0 0 1 107.846 6.07 A 4206.493 4206.493 0 0 1 107.45 6.8 L 101.85 16.8 Z M 146.85 16.8 L 146.05 16.8 L 155.4 0.3 L 156.15 0.3 L 158.45 16.8 L 157.7 16.8 L 156.4 6.9 Q 156.225 5.5 156.05 4 A 105.84 105.84 0 0 0 155.773 1.82 A 93.324 93.324 0 0 0 155.675 1.125 L 155.55 1.125 A 242.068 242.068 0 0 0 154.362 3.274 A 212.221 212.221 0 0 0 153.987 3.963 A 3726.132 3726.132 0 0 1 152.846 6.07 A 4206.493 4206.493 0 0 1 152.45 6.8 L 146.85 16.8 Z M 2.65 16.8 L 1.8 16.8 L 0 0.3 L 0.7 0.3 L 1.75 10.275 Q 1.9 11.65 2.05 13.05 L 2.35 15.85 L 2.45 15.85 Q 2.925 14.95 3.438 14 Q 3.95 13.05 4.463 12.113 A 722.073 722.073 0 0 0 5.21 10.742 A 649.131 649.131 0 0 0 5.45 10.3 L 10.9 0.3 L 11.675 0.3 L 2.65 16.8 Z M 36.85 16.8 L 27.5 16.8 L 27.65 16.15 L 31.9 16.15 L 34.95 0.95 L 30.65 0.95 L 30.8 0.3 L 40.2 0.3 L 40.05 0.95 L 35.7 0.95 L 32.65 16.15 L 37 16.15 L 36.85 16.8 Z M 85.45 2.3 L 84.85 2.7 Q 84.375 1.8 83.575 1.225 A 3.006 3.006 0 0 0 82.347 0.715 A 4.123 4.123 0 0 0 81.6 0.65 A 6.047 6.047 0 0 0 79.935 0.873 A 5.302 5.302 0 0 0 78.975 1.25 Q 77.8 1.85 76.888 2.888 Q 75.975 3.925 75.35 5.2 Q 74.725 6.475 74.413 7.85 Q 74.1 9.225 74.1 10.5 A 9.689 9.689 0 0 0 74.241 12.188 A 7.703 7.703 0 0 0 74.6 13.525 A 4.87 4.87 0 0 0 75.353 14.882 A 4.323 4.323 0 0 0 76.163 15.663 A 3.849 3.849 0 0 0 77.585 16.307 Q 78.13 16.437 78.767 16.449 A 6.971 6.971 0 0 0 78.9 16.45 Q 80.075 16.45 81.05 16.013 A 7.731 7.731 0 0 0 82.367 15.252 A 9.36 9.36 0 0 0 82.95 14.8 L 83.4 15.3 A 10.776 10.776 0 0 1 82.481 15.979 A 9.055 9.055 0 0 1 82 16.275 Q 81.3 16.675 80.525 16.888 A 5.986 5.986 0 0 1 79.4 17.079 A 7.155 7.155 0 0 1 78.85 17.1 A 6.64 6.64 0 0 1 77.475 16.965 Q 76.542 16.768 75.821 16.282 A 4.219 4.219 0 0 1 75.775 16.25 A 5.073 5.073 0 0 1 73.991 14.034 A 6.103 6.103 0 0 1 73.95 13.938 A 7.972 7.972 0 0 1 73.421 11.862 A 10.061 10.061 0 0 1 73.35 10.65 A 12.447 12.447 0 0 1 73.666 7.899 A 13.865 13.865 0 0 1 73.713 7.7 Q 74.075 6.2 74.763 4.825 Q 75.45 3.45 76.463 2.363 Q 77.475 1.275 78.775 0.638 A 6.299 6.299 0 0 1 81.165 0.016 A 7.481 7.481 0 0 1 81.65 0 A 4.784 4.784 0 0 1 82.7 0.109 A 3.4 3.4 0 0 1 83.975 0.675 Q 84.9 1.35 85.45 2.3 Z M 122.55 16.8 L 121.8 16.8 L 124.95 1 L 119.1 1 L 119.25 0.3 L 131.7 0.3 L 131.55 1 L 125.7 1 L 122.55 16.8 Z M 137.35 16.8 L 132.6 16.8 L 135.9 0.3 L 139.8 0.3 A 10.239 10.239 0 0 1 140.894 0.355 Q 141.433 0.413 141.89 0.533 A 4.809 4.809 0 0 1 142.475 0.725 A 3.878 3.878 0 0 1 143.265 1.15 A 2.883 2.883 0 0 1 144.038 1.95 A 3.218 3.218 0 0 1 144.505 3.223 A 4.208 4.208 0 0 1 144.55 3.85 A 4.263 4.263 0 0 1 144.424 4.909 A 3.338 3.338 0 0 1 143.938 5.988 A 4.652 4.652 0 0 1 142.884 7.092 A 4.32 4.32 0 0 1 142.45 7.375 Q 141.669 7.822 140.967 7.969 A 3.596 3.596 0 0 1 140.8 8 L 140.8 8.1 Q 141.6 8.275 142.325 8.713 Q 143.05 9.15 143.5 9.875 Q 143.95 10.6 143.95 11.65 Q 143.95 13.333 143.187 14.45 A 3.847 3.847 0 0 1 143.125 14.538 A 4.686 4.686 0 0 1 141.473 15.942 A 6.001 6.001 0 0 1 140.812 16.238 Q 139.347 16.792 137.408 16.8 A 13.782 13.782 0 0 1 137.35 16.8 Z M 45.9 16.8 L 42 16.8 L 45.3 0.3 L 48.25 0.3 A 10.676 10.676 0 0 1 50.128 0.454 Q 51.172 0.641 51.988 1.055 A 4.894 4.894 0 0 1 53.337 2.05 A 5.91 5.91 0 0 1 54.846 5.04 A 8.515 8.515 0 0 1 55 6.7 A 13.611 13.611 0 0 1 54.703 9.583 A 12.07 12.07 0 0 1 54.425 10.638 A 9.659 9.659 0 0 1 53.277 13.087 A 8.787 8.787 0 0 1 52.712 13.85 Q 51.575 15.225 49.875 16.013 A 8.291 8.291 0 0 1 47.717 16.66 A 11.263 11.263 0 0 1 45.9 16.8 Z M 17.65 17.1 Q 16 17.1 14.85 16.288 A 4.904 4.904 0 0 1 13.344 14.555 A 6.089 6.089 0 0 1 13.1 14.038 A 7.63 7.63 0 0 1 12.599 12.185 A 10.007 10.007 0 0 1 12.5 10.75 Q 12.5 9.275 12.825 7.763 Q 13.15 6.25 13.775 4.863 A 10.975 10.975 0 0 1 15.089 2.655 A 10.147 10.147 0 0 1 15.312 2.375 Q 16.225 1.275 17.425 0.638 A 5.509 5.509 0 0 1 19.724 0.011 A 6.591 6.591 0 0 1 20.1 0 Q 21.75 0 22.9 0.813 A 4.904 4.904 0 0 1 24.406 2.546 A 6.089 6.089 0 0 1 24.65 3.063 A 7.63 7.63 0 0 1 25.151 4.915 A 10.007 10.007 0 0 1 25.25 6.35 Q 25.25 7.825 24.925 9.338 Q 24.6 10.85 23.975 12.238 A 10.975 10.975 0 0 1 22.661 14.446 A 10.147 10.147 0 0 1 22.438 14.725 Q 21.525 15.825 20.325 16.463 A 5.509 5.509 0 0 1 18.026 17.09 A 6.591 6.591 0 0 1 17.65 17.1 Z M 45.9 0.95 L 42.85 16.15 L 45.95 16.15 A 9.669 9.669 0 0 0 48.077 15.928 A 7.049 7.049 0 0 0 50.5 14.9 Q 52.35 13.65 53.3 11.513 A 11.074 11.074 0 0 0 54.187 8.071 A 13.542 13.542 0 0 0 54.25 6.75 A 7.399 7.399 0 0 0 54.032 4.906 A 5.354 5.354 0 0 0 52.763 2.55 Q 51.275 0.95 48.2 0.95 L 45.9 0.95 Z M 17.7 16.45 A 4.94 4.94 0 0 0 19.368 16.174 A 4.571 4.571 0 0 0 20.1 15.838 A 6.517 6.517 0 0 0 21.843 14.378 A 7.497 7.497 0 0 0 22 14.188 A 9.908 9.908 0 0 0 23.296 12.032 A 11.097 11.097 0 0 0 23.375 11.85 Q 23.925 10.55 24.213 9.15 A 13.968 13.968 0 0 0 24.477 7.189 A 12.162 12.162 0 0 0 24.5 6.45 A 10.14 10.14 0 0 0 24.393 4.942 A 7.526 7.526 0 0 0 24.013 3.438 A 4.936 4.936 0 0 0 23.411 2.285 A 4.031 4.031 0 0 0 22.537 1.388 A 3.619 3.619 0 0 0 21.082 0.75 A 5.103 5.103 0 0 0 20.05 0.65 A 4.94 4.94 0 0 0 18.382 0.927 A 4.571 4.571 0 0 0 17.65 1.263 A 6.517 6.517 0 0 0 15.907 2.722 A 7.497 7.497 0 0 0 15.75 2.913 A 9.908 9.908 0 0 0 14.454 5.069 A 11.097 11.097 0 0 0 14.375 5.25 Q 13.825 6.55 13.538 7.95 A 13.968 13.968 0 0 0 13.273 9.911 A 12.162 12.162 0 0 0 13.25 10.65 A 10.14 10.14 0 0 0 13.357 12.159 A 7.526 7.526 0 0 0 13.737 13.663 A 4.936 4.936 0 0 0 14.339 14.815 A 4.031 4.031 0 0 0 15.213 15.713 A 3.619 3.619 0 0 0 16.668 16.351 A 5.103 5.103 0 0 0 17.7 16.45 Z M 135.05 8.35 L 133.45 16.15 L 136.9 16.15 A 13.655 13.655 0 0 0 138.507 16.06 Q 139.335 15.962 140.053 15.756 A 8.203 8.203 0 0 0 140.2 15.713 A 5.271 5.271 0 0 0 141.323 15.228 A 3.955 3.955 0 0 0 142.412 14.3 A 3.4 3.4 0 0 0 143.06 12.964 Q 143.182 12.471 143.198 11.892 A 6.304 6.304 0 0 0 143.2 11.725 A 2.903 2.903 0 0 0 142.238 9.529 A 3.949 3.949 0 0 0 141.987 9.313 A 4.02 4.02 0 0 0 140.681 8.638 Q 139.767 8.35 138.55 8.35 L 135.05 8.35 Z M 136.5 0.95 L 135.15 7.7 L 138.1 7.7 Q 140.95 7.7 142.375 6.625 A 3.863 3.863 0 0 0 143.257 5.718 A 3.16 3.16 0 0 0 143.8 3.9 A 3.216 3.216 0 0 0 143.669 2.956 A 2.46 2.46 0 0 0 142.825 1.725 Q 141.85 0.95 139.4 0.95 L 136.5 0.95 Z M 68.775 8.875 L 58.725 8.875 L 58.725 8.225 L 68.775 8.225 L 68.775 8.875 Z M 112.175 10.85 L 105 10.85 L 105.2 10.2 L 112.2 10.2 L 112.175 10.85 Z M 157.175 10.85 L 150 10.85 L 150.2 10.2 L 157.2 10.2 L 157.175 10.85 Z" vector-effect="non-scaling-stroke"/></g></svg>
