<svg width="140" height="90.9" viewBox="0 0 5085.2 90.9" xmlns="http://www.w3.org/2000/svg"><g id="svgGroup" stroke-linecap="round" fill-rule="evenodd" font-size="9pt" stroke="#000" stroke-width="0.25mm" fill="black" style="stroke:#000;stroke-width:0.25mm;fill:black"><path d="M 1386.8 70.8 L 1383.8 70.8 L 1397 4.8 L 1401.4 4.8 L 1407.4 39.5 L 1408.7 48.9 L 1409.1 48.9 L 1414.1 39.4 L 1434.3 4.8 L 1438.6 4.8 L 1425.4 70.8 L 1422.4 70.8 L 1432.5 20.6 Q 1432.8 19.1 1433.15 17.55 L 1433.85 14.45 Q 1434.2 12.9 1434.6 11.3 A 206.226 206.226 0 0 1 1435.35 8.388 A 188.076 188.076 0 0 1 1435.4 8.2 L 1435 8.2 Q 1434.2 9.9 1433.3 11.65 A 195.887 195.887 0 0 1 1431.648 14.789 A 216.213 216.213 0 0 1 1431.4 15.25 Q 1430.4 17.1 1429.2 19.2 L 1409.7 52.7 L 1406.7 52.7 L 1401.2 19.1 Q 1401 17.9 1400.75 16.55 Q 1400.5 15.2 1400.3 13.8 Q 1400.1 12.4 1399.85 10.95 Q 1399.6 9.5 1399.4 8.2 L 1399 8.2 A 105.534 105.534 0 0 1 1398.325 12.169 A 114.708 114.708 0 0 1 1398.3 12.3 Q 1397.9 14.4 1397.55 16.5 Q 1397.2 18.6 1396.8 20.6 L 1386.8 70.8 Z M 2586.8 70.8 L 2583.8 70.8 L 2597 4.8 L 2601.4 4.8 L 2607.4 39.5 L 2608.7 48.9 L 2609.1 48.9 L 2614.1 39.4 L 2634.3 4.8 L 2638.6 4.8 L 2625.4 70.8 L 2622.4 70.8 L 2632.5 20.6 Q 2632.8 19.1 2633.15 17.55 L 2633.85 14.45 Q 2634.2 12.9 2634.6 11.3 A 206.226 206.226 0 0 1 2635.35 8.388 A 188.076 188.076 0 0 1 2635.4 8.2 L 2635 8.2 Q 2634.2 9.9 2633.3 11.65 A 195.887 195.887 0 0 1 2631.648 14.789 A 216.213 216.213 0 0 1 2631.4 15.25 Q 2630.4 17.1 2629.2 19.2 L 2609.7 52.7 L 2606.7 52.7 L 2601.2 19.1 Q 2601 17.9 2600.75 16.55 Q 2600.5 15.2 2600.3 13.8 Q 2600.1 12.4 2599.85 10.95 Q 2599.6 9.5 2599.4 8.2 L 2599 8.2 A 105.534 105.534 0 0 1 2598.325 12.169 A 114.708 114.708 0 0 1 2598.3 12.3 Q 2597.9 14.4 2597.55 16.5 Q 2597.2 18.6 2596.8 20.6 L 2586.8 70.8 Z M 787.4 70.8 L 784.4 70.8 L 797.6 4.8 L 800.8 4.8 L 818.6 53.6 L 823.2 66.6 L 823.6 66.6 Q 824 64.3 824.35 62.05 Q 824.7 59.8 825.1 57.55 Q 825.5 55.3 825.95 53.05 Q 826.4 50.8 826.8 48.6 L 835.4 4.8 L 838.4 4.8 L 825.2 70.8 L 822 70.8 L 804.2 22 L 799.6 9 L 799.2 9 Q 798.7 12.1 798.2 15.05 Q 797.7 18 797.15 20.95 Q 796.6 23.9 796 27 L 787.4 70.8 Z M 2227.4 70.8 L 2224.4 70.8 L 2237.6 4.8 L 2240.8 4.8 L 2258.6 53.6 L 2263.2 66.6 L 2263.6 66.6 Q 2264 64.3 2264.35 62.05 Q 2264.7 59.8 2265.1 57.55 Q 2265.5 55.3 2265.95 53.05 Q 2266.4 50.8 2266.8 48.6 L 2275.4 4.8 L 2278.4 4.8 L 2265.2 70.8 L 2262 70.8 L 2244.2 22 L 2239.6 9 L 2239.2 9 Q 2238.7 12.1 2238.2 15.05 Q 2237.7 18 2237.15 20.95 Q 2236.6 23.9 2236 27 L 2227.4 70.8 Z M 2707.4 70.8 L 2704.4 70.8 L 2717.6 4.8 L 2720.8 4.8 L 2738.6 53.6 L 2743.2 66.6 L 2743.6 66.6 Q 2744 64.3 2744.35 62.05 Q 2744.7 59.8 2745.1 57.55 Q 2745.5 55.3 2745.95 53.05 Q 2746.4 50.8 2746.8 48.6 L 2755.4 4.8 L 2758.4 4.8 L 2745.2 70.8 L 2742 70.8 L 2724.2 22 L 2719.6 9 L 2719.2 9 Q 2718.7 12.1 2718.2 15.05 Q 2717.7 18 2717.15 20.95 Q 2716.6 23.9 2716 27 L 2707.4 70.8 Z M 3727.4 70.8 L 3724.4 70.8 L 3737.6 4.8 L 3740.8 4.8 L 3758.6 53.6 L 3763.2 66.6 L 3763.6 66.6 Q 3764 64.3 3764.35 62.05 Q 3764.7 59.8 3765.1 57.55 Q 3765.5 55.3 3765.95 53.05 Q 3766.4 50.8 3766.8 48.6 L 3775.4 4.8 L 3778.4 4.8 L 3765.2 70.8 L 3762 70.8 L 3744.2 22 L 3739.6 9 L 3739.2 9 Q 3738.7 12.1 3738.2 15.05 Q 3737.7 18 3737.15 20.95 Q 3736.6 23.9 3736 27 L 3727.4 70.8 Z M 3967.4 70.8 L 3964.4 70.8 L 3977.6 4.8 L 3980.8 4.8 L 3998.6 53.6 L 4003.2 66.6 L 4003.6 66.6 Q 4004 64.3 4004.35 62.05 Q 4004.7 59.8 4005.1 57.55 Q 4005.5 55.3 4005.95 53.05 Q 4006.4 50.8 4006.8 48.6 L 4015.4 4.8 L 4018.4 4.8 L 4005.2 70.8 L 4002 70.8 L 3984.2 22 L 3979.6 9 L 3979.2 9 Q 3978.7 12.1 3978.2 15.05 Q 3977.7 18 3977.15 20.95 Q 3976.6 23.9 3976 27 L 3967.4 70.8 Z M 186.8 70.8 L 183.8 70.8 L 197 4.8 L 200 4.8 L 194 34.4 L 229.6 34.4 L 235.6 4.8 L 238.6 4.8 L 225.4 70.8 L 222.4 70.8 L 229.2 37 L 193.6 37 L 186.8 70.8 Z M 408 70.8 L 368.6 70.8 L 381.8 4.8 L 420.4 4.8 L 419.8 7.4 L 384.2 7.4 L 378.8 34.4 L 408.6 34.4 L 408 37 L 378.4 37 L 372 68.2 L 408.6 68.2 L 408 70.8 Z M 1248 70.8 L 1208.6 70.8 L 1221.8 4.8 L 1260.4 4.8 L 1259.8 7.4 L 1224.2 7.4 L 1218.8 34.4 L 1248.6 34.4 L 1248 37 L 1218.4 37 L 1212 68.2 L 1248.6 68.2 L 1248 70.8 Z M 1488 70.8 L 1448.6 70.8 L 1461.8 4.8 L 1500.4 4.8 L 1499.8 7.4 L 1464.2 7.4 L 1458.8 34.4 L 1488.6 34.4 L 1488 37 L 1458.4 37 L 1452 68.2 L 1488.6 68.2 L 1488 70.8 Z M 1548 70.8 L 1508.6 70.8 L 1521.8 4.8 L 1560.4 4.8 L 1559.8 7.4 L 1524.2 7.4 L 1518.8 34.4 L 1548.6 34.4 L 1548 37 L 1518.4 37 L 1512 68.2 L 1548.6 68.2 L 1548 70.8 Z M 1848 70.8 L 1808.6 70.8 L 1821.8 4.8 L 1860.4 4.8 L 1859.8 7.4 L 1824.2 7.4 L 1818.8 34.4 L 1848.6 34.4 L 1848 37 L 1818.4 37 L 1812 68.2 L 1848.6 68.2 L 1848 70.8 Z M 2208 70.8 L 2168.6 70.8 L 2181.8 4.8 L 2220.4 4.8 L 2219.8 7.4 L 2184.2 7.4 L 2178.8 34.4 L 2208.6 34.4 L 2208 37 L 2178.4 37 L 2172 68.2 L 2208.6 68.2 L 2208 70.8 Z M 3468 70.8 L 3428.6 70.8 L 3441.8 4.8 L 3480.4 4.8 L 3479.8 7.4 L 3444.2 7.4 L 3438.8 34.4 L 3468.6 34.4 L 3468 37 L 3438.4 37 L 3432 68.2 L 3468.6 68.2 L 3468 70.8 Z M 4188 70.8 L 4148.6 70.8 L 4161.8 4.8 L 4200.4 4.8 L 4199.8 7.4 L 4164.2 7.4 L 4158.8 34.4 L 4188.6 34.4 L 4188 37 L 4158.4 37 L 4152 68.2 L 4188.6 68.2 L 4188 70.8 Z M 4968 70.8 L 4928.6 70.8 L 4941.8 4.8 L 4980.4 4.8 L 4979.8 7.4 L 4944.2 7.4 L 4938.8 34.4 L 4968.6 34.4 L 4968 37 L 4938.4 37 L 4932 68.2 L 4968.6 68.2 L 4968 70.8 Z M 604.8 61.6 L 607 60 Q 608.575 62.067 610.974 64.183 A 40.364 40.364 0 0 0 611.05 64.25 A 18.613 18.613 0 0 0 614.006 66.351 A 25.384 25.384 0 0 0 617.2 67.9 Q 620.662 69.303 625.348 69.394 A 33.773 33.773 0 0 0 626 69.4 A 25.823 25.823 0 0 0 632.59 68.582 A 22.8 22.8 0 0 0 635.75 67.5 A 17.885 17.885 0 0 0 640.811 64.298 A 16.396 16.396 0 0 0 642.9 62 A 13.383 13.383 0 0 0 645.409 55.85 A 17.829 17.829 0 0 0 645.6 53.2 A 13.239 13.239 0 0 0 644.897 48.827 A 11.796 11.796 0 0 0 643.25 45.7 A 12.358 12.358 0 0 0 640.295 42.877 Q 638.91 41.916 637.145 41.15 A 24.178 24.178 0 0 0 635.9 40.65 A 27.718 27.718 0 0 0 631.738 39.499 Q 629.567 39.064 627.01 38.834 A 64.921 64.921 0 0 0 622.8 38.6 L 623.2 36 Q 629.473 36 634.121 34.882 A 26.408 26.408 0 0 0 637.6 33.8 A 23.803 23.803 0 0 0 641.392 31.932 Q 644.213 30.194 645.9 27.85 Q 648.6 24.1 648.6 19.6 Q 648.6 14 644.85 11.1 A 13.434 13.434 0 0 0 639.521 8.651 Q 637.528 8.2 635.2 8.2 A 26.133 26.133 0 0 0 629.393 8.82 A 21.197 21.197 0 0 0 624.85 10.4 Q 620.3 12.6 616.8 15.8 L 615 13.8 A 30.729 30.729 0 0 1 619.213 10.598 A 41.906 41.906 0 0 1 623.75 8.1 Q 629 5.6 635.4 5.6 Q 640 5.6 643.6 7.1 A 13.258 13.258 0 0 1 647.679 9.715 A 12.397 12.397 0 0 1 649.3 11.6 A 11.374 11.374 0 0 1 651.129 16.018 A 15.67 15.67 0 0 1 651.4 19 Q 651.4 26 646.95 30.85 Q 643.393 34.727 636.801 36.527 A 38.027 38.027 0 0 1 633.3 37.3 L 633.3 37.6 A 29.057 29.057 0 0 1 637.956 38.728 Q 642.02 40.103 644.55 42.6 A 12.749 12.749 0 0 1 648.235 50.136 A 17.798 17.798 0 0 1 648.4 52.6 A 21.919 21.919 0 0 1 647.866 57.56 A 16.113 16.113 0 0 1 645.4 63.2 A 18.863 18.863 0 0 1 637.774 69.535 A 22.512 22.512 0 0 1 637.3 69.75 A 26.366 26.366 0 0 1 629.767 71.769 A 33.16 33.16 0 0 1 625.8 72 A 32.848 32.848 0 0 1 621.449 71.728 Q 618.475 71.33 616.1 70.35 A 27.529 27.529 0 0 1 612.307 68.449 A 21.262 21.262 0 0 1 609.35 66.3 Q 606.783 64.059 605.043 61.906 A 25.422 25.422 0 0 1 604.8 61.6 Z M 909 44.6 L 917 4.8 L 920 4.8 L 912.2 43.8 Q 911.6 46.2 911.4 48.2 A 40.291 40.291 0 0 0 911.22 50.855 A 34.132 34.132 0 0 0 911.2 52 A 26.734 26.734 0 0 0 911.657 57.103 Q 912.234 60.068 913.54 62.385 A 14.158 14.158 0 0 0 915.25 64.8 Q 919.094 69.166 926.407 69.388 A 26.148 26.148 0 0 0 927.2 69.4 Q 931.5 69.4 935.45 67.2 Q 939.03 65.206 941.911 60.954 A 29.916 29.916 0 0 0 942.5 60.05 A 28.425 28.425 0 0 0 944.771 55.508 Q 945.695 53.196 946.413 50.451 A 58.412 58.412 0 0 0 947.2 47 L 955.6 4.8 L 958.6 4.8 L 950 47.8 A 56.729 56.729 0 0 1 948.48 53.791 Q 947.556 56.708 946.379 59.091 A 26.474 26.474 0 0 1 944.65 62.1 A 26.265 26.265 0 0 1 941.396 66.101 A 18.833 18.833 0 0 1 936.45 69.7 Q 931.8 72 926.8 72 A 24.155 24.155 0 0 1 921.146 71.376 A 16.254 16.254 0 0 1 913.15 66.95 A 16.538 16.538 0 0 1 909.017 59.525 Q 908.315 56.923 908.216 53.827 A 32.211 32.211 0 0 1 908.2 52.8 Q 908.2 50.8 908.4 48.9 A 59.901 59.901 0 0 1 908.631 47.009 Q 908.787 45.875 909 44.6 Z M 4489 70.8 L 4446 70.8 L 4446.2 68.8 A 1267.175 1267.175 0 0 0 4453.932 62.223 Q 4456.969 59.618 4459.699 57.237 A 677.201 677.201 0 0 0 4464.85 52.7 A 233.05 233.05 0 0 0 4470.269 47.729 Q 4472.886 45.246 4475.076 42.984 A 113.353 113.353 0 0 0 4477.55 40.35 Q 4482.5 34.9 4484.85 30.2 Q 4487.2 25.5 4487.2 20.6 Q 4487.2 15.428 4484.689 12.191 A 10.623 10.623 0 0 0 4484.15 11.55 A 9.105 9.105 0 0 0 4480.595 9.202 Q 4479.121 8.638 4477.281 8.392 A 23.237 23.237 0 0 0 4474.2 8.2 Q 4468.7 8.2 4463.9 11 Q 4459.1 13.8 4455.4 17.8 L 4453.4 15.9 Q 4457.5 11.6 4462.9 8.6 A 24.05 24.05 0 0 1 4473.345 5.647 A 28.891 28.891 0 0 1 4475 5.6 A 20.833 20.833 0 0 1 4479.37 6.031 Q 4482.195 6.637 4484.317 8.097 A 11.927 11.927 0 0 1 4486.1 9.6 A 13.354 13.354 0 0 1 4489.58 16.239 A 19.556 19.556 0 0 1 4490 20.4 Q 4490 25.9 4487.45 31.05 A 39.365 39.365 0 0 1 4484.75 35.642 Q 4483.222 37.898 4481.258 40.234 A 69.794 69.794 0 0 1 4479.9 41.8 Q 4475.603 46.613 4469.534 52.09 A 202.965 202.965 0 0 1 4467.5 53.9 A 968.508 968.508 0 0 1 4460.585 59.913 Q 4457.038 62.969 4453.083 66.327 A 1648.463 1648.463 0 0 1 4450.4 68.6 Q 4454.3 68.3 4456.7 68.25 A 214.623 214.623 0 0 1 4458.934 68.216 Q 4460.456 68.2 4462.2 68.2 L 4489.4 68.2 L 4489 70.8 Z M 965.6 61 L 968 59.4 Q 971.2 64.2 975.8 66.8 A 19.583 19.583 0 0 0 981.897 68.971 A 26.753 26.753 0 0 0 986.8 69.4 A 21.587 21.587 0 0 0 992.403 68.695 A 18.667 18.667 0 0 0 995.85 67.4 Q 999.9 65.4 1002.25 61.75 A 14.742 14.742 0 0 0 1004.471 55.428 A 18.763 18.763 0 0 0 1004.6 53.2 A 14.345 14.345 0 0 0 1004.117 49.399 A 11.419 11.419 0 0 0 1002.25 45.55 A 18.566 18.566 0 0 0 998.286 41.668 A 23.102 23.102 0 0 0 996 40.2 L 987.2 35 Q 983.2 32.6 980 29 Q 976.8 25.4 976.8 20.2 Q 976.8 15.8 979.1 12 A 16.84 16.84 0 0 1 985.023 6.203 A 20.025 20.025 0 0 1 985.55 5.9 A 18.232 18.232 0 0 1 991.884 3.826 A 23.569 23.569 0 0 1 995.2 3.6 Q 1001.2 3.6 1005.75 6.2 A 24.729 24.729 0 0 1 1009.565 8.857 A 18.705 18.705 0 0 1 1012.8 12.4 L 1010.6 14.2 A 20.652 20.652 0 0 0 1006.234 9.967 A 25.414 25.414 0 0 0 1004.05 8.55 A 17.309 17.309 0 0 0 997.687 6.407 A 22.326 22.326 0 0 0 994.6 6.2 A 17.042 17.042 0 0 0 990.645 6.639 A 13.317 13.317 0 0 0 986.8 8.2 A 14.865 14.865 0 0 0 982.411 12.186 A 14.329 14.329 0 0 0 981.65 13.35 A 13.611 13.611 0 0 0 980.155 16.938 A 11.734 11.734 0 0 0 979.8 19.8 A 13.842 13.842 0 0 0 980.18 23.133 A 9.714 9.714 0 0 0 982.5 27.5 Q 985.2 30.4 988.6 32.4 L 997.2 37.4 Q 1000.3 39.2 1002.65 41.4 Q 1005 43.6 1006.3 46.4 A 13.864 13.864 0 0 1 1007.443 50.394 A 17.844 17.844 0 0 1 1007.6 52.8 Q 1007.6 58.6 1004.8 62.9 Q 1002 67.2 997.2 69.6 A 22.843 22.843 0 0 1 989.147 71.868 A 28.05 28.05 0 0 1 986.4 72 A 28.57 28.57 0 0 1 980.029 71.32 A 22.403 22.403 0 0 1 974.15 69.1 Q 968.9 66.2 965.6 61 Z M 1265.6 61 L 1268 59.4 Q 1271.2 64.2 1275.8 66.8 A 19.583 19.583 0 0 0 1281.897 68.971 A 26.753 26.753 0 0 0 1286.8 69.4 A 21.587 21.587 0 0 0 1292.403 68.695 A 18.667 18.667 0 0 0 1295.85 67.4 Q 1299.9 65.4 1302.25 61.75 A 14.742 14.742 0 0 0 1304.471 55.428 A 18.763 18.763 0 0 0 1304.6 53.2 A 14.345 14.345 0 0 0 1304.117 49.399 A 11.419 11.419 0 0 0 1302.25 45.55 A 18.566 18.566 0 0 0 1298.286 41.668 A 23.102 23.102 0 0 0 1296 40.2 L 1287.2 35 Q 1283.2 32.6 1280 29 Q 1276.8 25.4 1276.8 20.2 Q 1276.8 15.8 1279.1 12 A 16.84 16.84 0 0 1 1285.023 6.203 A 20.025 20.025 0 0 1 1285.55 5.9 A 18.232 18.232 0 0 1 1291.884 3.826 A 23.569 23.569 0 0 1 1295.2 3.6 Q 1301.2 3.6 1305.75 6.2 A 24.729 24.729 0 0 1 1309.565 8.857 A 18.705 18.705 0 0 1 1312.8 12.4 L 1310.6 14.2 A 20.652 20.652 0 0 0 1306.234 9.967 A 25.414 25.414 0 0 0 1304.05 8.55 A 17.309 17.309 0 0 0 1297.687 6.407 A 22.326 22.326 0 0 0 1294.6 6.2 A 17.042 17.042 0 0 0 1290.645 6.639 A 13.317 13.317 0 0 0 1286.8 8.2 A 14.865 14.865 0 0 0 1282.411 12.186 A 14.329 14.329 0 0 0 1281.65 13.35 A 13.611 13.611 0 0 0 1280.155 16.938 A 11.734 11.734 0 0 0 1279.8 19.8 A 13.842 13.842 0 0 0 1280.18 23.133 A 9.714 9.714 0 0 0 1282.5 27.5 Q 1285.2 30.4 1288.6 32.4 L 1297.2 37.4 Q 1300.3 39.2 1302.65 41.4 Q 1305 43.6 1306.3 46.4 A 13.864 13.864 0 0 1 1307.443 50.394 A 17.844 17.844 0 0 1 1307.6 52.8 Q 1307.6 58.6 1304.8 62.9 Q 1302 67.2 1297.2 69.6 A 22.843 22.843 0 0 1 1289.147 71.868 A 28.05 28.05 0 0 1 1286.4 72 A 28.57 28.57 0 0 1 1280.029 71.32 A 22.403 22.403 0 0 1 1274.15 69.1 Q 1268.9 66.2 1265.6 61 Z M 1745.6 61 L 1748 59.4 Q 1751.2 64.2 1755.8 66.8 A 19.583 19.583 0 0 0 1761.897 68.971 A 26.753 26.753 0 0 0 1766.8 69.4 A 21.587 21.587 0 0 0 1772.403 68.695 A 18.667 18.667 0 0 0 1775.85 67.4 Q 1779.9 65.4 1782.25 61.75 A 14.742 14.742 0 0 0 1784.471 55.428 A 18.763 18.763 0 0 0 1784.6 53.2 A 14.345 14.345 0 0 0 1784.117 49.399 A 11.419 11.419 0 0 0 1782.25 45.55 A 18.566 18.566 0 0 0 1778.286 41.668 A 23.102 23.102 0 0 0 1776 40.2 L 1767.2 35 Q 1763.2 32.6 1760 29 Q 1756.8 25.4 1756.8 20.2 Q 1756.8 15.8 1759.1 12 A 16.84 16.84 0 0 1 1765.023 6.203 A 20.025 20.025 0 0 1 1765.55 5.9 A 18.232 18.232 0 0 1 1771.884 3.826 A 23.569 23.569 0 0 1 1775.2 3.6 Q 1781.2 3.6 1785.75 6.2 A 24.729 24.729 0 0 1 1789.565 8.857 A 18.705 18.705 0 0 1 1792.8 12.4 L 1790.6 14.2 A 20.652 20.652 0 0 0 1786.234 9.967 A 25.414 25.414 0 0 0 1784.05 8.55 A 17.309 17.309 0 0 0 1777.687 6.407 A 22.326 22.326 0 0 0 1774.6 6.2 A 17.042 17.042 0 0 0 1770.645 6.639 A 13.317 13.317 0 0 0 1766.8 8.2 A 14.865 14.865 0 0 0 1762.411 12.186 A 14.329 14.329 0 0 0 1761.65 13.35 A 13.611 13.611 0 0 0 1760.155 16.938 A 11.734 11.734 0 0 0 1759.8 19.8 A 13.842 13.842 0 0 0 1760.18 23.133 A 9.714 9.714 0 0 0 1762.5 27.5 Q 1765.2 30.4 1768.6 32.4 L 1777.2 37.4 Q 1780.3 39.2 1782.65 41.4 Q 1785 43.6 1786.3 46.4 A 13.864 13.864 0 0 1 1787.443 50.394 A 17.844 17.844 0 0 1 1787.6 52.8 Q 1787.6 58.6 1784.8 62.9 Q 1782 67.2 1777.2 69.6 A 22.843 22.843 0 0 1 1769.147 71.868 A 28.05 28.05 0 0 1 1766.4 72 A 28.57 28.57 0 0 1 1760.029 71.32 A 22.403 22.403 0 0 1 1754.15 69.1 Q 1748.9 66.2 1745.6 61 Z M 2825.6 61 L 2828 59.4 Q 2831.2 64.2 2835.8 66.8 A 19.583 19.583 0 0 0 2841.897 68.971 A 26.753 26.753 0 0 0 2846.8 69.4 A 21.587 21.587 0 0 0 2852.403 68.695 A 18.667 18.667 0 0 0 2855.85 67.4 Q 2859.9 65.4 2862.25 61.75 A 14.742 14.742 0 0 0 2864.471 55.428 A 18.763 18.763 0 0 0 2864.6 53.2 A 14.345 14.345 0 0 0 2864.117 49.399 A 11.419 11.419 0 0 0 2862.25 45.55 A 18.566 18.566 0 0 0 2858.286 41.668 A 23.102 23.102 0 0 0 2856 40.2 L 2847.2 35 Q 2843.2 32.6 2840 29 Q 2836.8 25.4 2836.8 20.2 Q 2836.8 15.8 2839.1 12 A 16.84 16.84 0 0 1 2845.023 6.203 A 20.025 20.025 0 0 1 2845.55 5.9 A 18.232 18.232 0 0 1 2851.884 3.826 A 23.569 23.569 0 0 1 2855.2 3.6 Q 2861.2 3.6 2865.75 6.2 A 24.729 24.729 0 0 1 2869.565 8.857 A 18.705 18.705 0 0 1 2872.8 12.4 L 2870.6 14.2 A 20.652 20.652 0 0 0 2866.234 9.967 A 25.414 25.414 0 0 0 2864.05 8.55 A 17.309 17.309 0 0 0 2857.687 6.407 A 22.326 22.326 0 0 0 2854.6 6.2 A 17.042 17.042 0 0 0 2850.645 6.639 A 13.317 13.317 0 0 0 2846.8 8.2 A 14.865 14.865 0 0 0 2842.411 12.186 A 14.329 14.329 0 0 0 2841.65 13.35 A 13.611 13.611 0 0 0 2840.155 16.938 A 11.734 11.734 0 0 0 2839.8 19.8 A 13.842 13.842 0 0 0 2840.18 23.133 A 9.714 9.714 0 0 0 2842.5 27.5 Q 2845.2 30.4 2848.6 32.4 L 2857.2 37.4 Q 2860.3 39.2 2862.65 41.4 Q 2865 43.6 2866.3 46.4 A 13.864 13.864 0 0 1 2867.443 50.394 A 17.844 17.844 0 0 1 2867.6 52.8 Q 2867.6 58.6 2864.8 62.9 Q 2862 67.2 2857.2 69.6 A 22.843 22.843 0 0 1 2849.147 71.868 A 28.05 28.05 0 0 1 2846.4 72 A 28.57 28.57 0 0 1 2840.029 71.32 A 22.403 22.403 0 0 1 2834.15 69.1 Q 2828.9 66.2 2825.6 61 Z M 3545.6 61 L 3548 59.4 Q 3551.2 64.2 3555.8 66.8 A 19.583 19.583 0 0 0 3561.897 68.971 A 26.753 26.753 0 0 0 3566.8 69.4 A 21.587 21.587 0 0 0 3572.403 68.695 A 18.667 18.667 0 0 0 3575.85 67.4 Q 3579.9 65.4 3582.25 61.75 A 14.742 14.742 0 0 0 3584.471 55.428 A 18.763 18.763 0 0 0 3584.6 53.2 A 14.345 14.345 0 0 0 3584.117 49.399 A 11.419 11.419 0 0 0 3582.25 45.55 A 18.566 18.566 0 0 0 3578.286 41.668 A 23.102 23.102 0 0 0 3576 40.2 L 3567.2 35 Q 3563.2 32.6 3560 29 Q 3556.8 25.4 3556.8 20.2 Q 3556.8 15.8 3559.1 12 A 16.84 16.84 0 0 1 3565.023 6.203 A 20.025 20.025 0 0 1 3565.55 5.9 A 18.232 18.232 0 0 1 3571.884 3.826 A 23.569 23.569 0 0 1 3575.2 3.6 Q 3581.2 3.6 3585.75 6.2 A 24.729 24.729 0 0 1 3589.565 8.857 A 18.705 18.705 0 0 1 3592.8 12.4 L 3590.6 14.2 A 20.652 20.652 0 0 0 3586.234 9.967 A 25.414 25.414 0 0 0 3584.05 8.55 A 17.309 17.309 0 0 0 3577.687 6.407 A 22.326 22.326 0 0 0 3574.6 6.2 A 17.042 17.042 0 0 0 3570.645 6.639 A 13.317 13.317 0 0 0 3566.8 8.2 A 14.865 14.865 0 0 0 3562.411 12.186 A 14.329 14.329 0 0 0 3561.65 13.35 A 13.611 13.611 0 0 0 3560.155 16.938 A 11.734 11.734 0 0 0 3559.8 19.8 A 13.842 13.842 0 0 0 3560.18 23.133 A 9.714 9.714 0 0 0 3562.5 27.5 Q 3565.2 30.4 3568.6 32.4 L 3577.2 37.4 Q 3580.3 39.2 3582.65 41.4 Q 3585 43.6 3586.3 46.4 A 13.864 13.864 0 0 1 3587.443 50.394 A 17.844 17.844 0 0 1 3587.6 52.8 Q 3587.6 58.6 3584.8 62.9 Q 3582 67.2 3577.2 69.6 A 22.843 22.843 0 0 1 3569.147 71.868 A 28.05 28.05 0 0 1 3566.4 72 A 28.57 28.57 0 0 1 3560.029 71.32 A 22.403 22.403 0 0 1 3554.15 69.1 Q 3548.9 66.2 3545.6 61 Z M 4625.6 61 L 4628 59.4 Q 4631.2 64.2 4635.8 66.8 A 19.583 19.583 0 0 0 4641.897 68.971 A 26.753 26.753 0 0 0 4646.8 69.4 A 21.587 21.587 0 0 0 4652.403 68.695 A 18.667 18.667 0 0 0 4655.85 67.4 Q 4659.9 65.4 4662.25 61.75 A 14.742 14.742 0 0 0 4664.471 55.428 A 18.763 18.763 0 0 0 4664.6 53.2 A 14.345 14.345 0 0 0 4664.117 49.399 A 11.419 11.419 0 0 0 4662.25 45.55 A 18.566 18.566 0 0 0 4658.286 41.668 A 23.102 23.102 0 0 0 4656 40.2 L 4647.2 35 Q 4643.2 32.6 4640 29 Q 4636.8 25.4 4636.8 20.2 Q 4636.8 15.8 4639.1 12 A 16.84 16.84 0 0 1 4645.023 6.203 A 20.025 20.025 0 0 1 4645.55 5.9 A 18.232 18.232 0 0 1 4651.884 3.826 A 23.569 23.569 0 0 1 4655.2 3.6 Q 4661.2 3.6 4665.75 6.2 A 24.729 24.729 0 0 1 4669.565 8.857 A 18.705 18.705 0 0 1 4672.8 12.4 L 4670.6 14.2 A 20.652 20.652 0 0 0 4666.234 9.967 A 25.414 25.414 0 0 0 4664.05 8.55 A 17.309 17.309 0 0 0 4657.687 6.407 A 22.326 22.326 0 0 0 4654.6 6.2 A 17.042 17.042 0 0 0 4650.645 6.639 A 13.317 13.317 0 0 0 4646.8 8.2 A 14.865 14.865 0 0 0 4642.411 12.186 A 14.329 14.329 0 0 0 4641.65 13.35 A 13.611 13.611 0 0 0 4640.155 16.938 A 11.734 11.734 0 0 0 4639.8 19.8 A 13.842 13.842 0 0 0 4640.18 23.133 A 9.714 9.714 0 0 0 4642.5 27.5 Q 4645.2 30.4 4648.6 32.4 L 4657.2 37.4 Q 4660.3 39.2 4662.65 41.4 Q 4665 43.6 4666.3 46.4 A 13.864 13.864 0 0 1 4667.443 50.394 A 17.844 17.844 0 0 1 4667.6 52.8 Q 4667.6 58.6 4664.8 62.9 Q 4662 67.2 4657.2 69.6 A 22.843 22.843 0 0 1 4649.147 71.868 A 28.05 28.05 0 0 1 4646.4 72 A 28.57 28.57 0 0 1 4640.029 71.32 A 22.403 22.403 0 0 1 4634.15 69.1 Q 4628.9 66.2 4625.6 61 Z M 3.2 70.8 L 0 70.8 L 37.4 4.8 L 40.4 4.8 L 49.6 70.8 L 46.6 70.8 L 41.4 31.2 Q 40.7 25.6 40 19.6 A 423.356 423.356 0 0 0 38.894 10.881 A 373.287 373.287 0 0 0 38.5 8.1 L 38 8.1 Q 34.7 14 31.75 19.45 Q 28.8 24.9 25.6 30.8 L 3.2 70.8 Z M 1683.2 70.8 L 1680 70.8 L 1717.4 4.8 L 1720.4 4.8 L 1729.6 70.8 L 1726.6 70.8 L 1721.4 31.2 Q 1720.7 25.6 1720 19.6 A 423.356 423.356 0 0 0 1718.894 10.881 A 373.287 373.287 0 0 0 1718.5 8.1 L 1718 8.1 Q 1714.7 14 1711.75 19.45 Q 1708.8 24.9 1705.6 30.8 L 1683.2 70.8 Z M 2463.2 70.8 L 2460 70.8 L 2497.4 4.8 L 2500.4 4.8 L 2509.6 70.8 L 2506.6 70.8 L 2501.4 31.2 Q 2500.7 25.6 2500 19.6 A 423.356 423.356 0 0 0 2498.894 10.881 A 373.287 373.287 0 0 0 2498.5 8.1 L 2498 8.1 Q 2494.7 14 2491.75 19.45 Q 2488.8 24.9 2485.6 30.8 L 2463.2 70.8 Z M 3003.2 70.8 L 3000 70.8 L 3037.4 4.8 L 3040.4 4.8 L 3049.6 70.8 L 3046.6 70.8 L 3041.4 31.2 Q 3040.7 25.6 3040 19.6 A 423.356 423.356 0 0 0 3038.894 10.881 A 373.287 373.287 0 0 0 3038.5 8.1 L 3038 8.1 Q 3034.7 14 3031.75 19.45 Q 3028.8 24.9 3025.6 30.8 L 3003.2 70.8 Z M 4743.2 70.8 L 4740 70.8 L 4777.4 4.8 L 4780.4 4.8 L 4789.6 70.8 L 4786.6 70.8 L 4781.4 31.2 Q 4780.7 25.6 4780 19.6 A 423.356 423.356 0 0 0 4778.894 10.881 A 373.287 373.287 0 0 0 4778.5 8.1 L 4778 8.1 Q 4774.7 14 4771.75 19.45 Q 4768.8 24.9 4765.6 30.8 L 4743.2 70.8 Z M 326.4 70.8 L 323 70.8 L 315.8 4.8 L 318.6 4.8 L 322.8 44.7 Q 323.4 50.2 324 55.8 L 325.2 67 L 325.6 67 A 916.957 916.957 0 0 1 329.294 60.074 A 1000.225 1000.225 0 0 1 329.55 59.6 Q 331.6 55.8 333.65 52.05 Q 335.7 48.3 337.6 44.8 L 359.4 4.8 L 362.5 4.8 L 326.4 70.8 Z M 3386.4 70.8 L 3383 70.8 L 3375.8 4.8 L 3378.6 4.8 L 3382.8 44.7 Q 3383.4 50.2 3384 55.8 L 3385.2 67 L 3385.6 67 A 916.957 916.957 0 0 1 3389.294 60.074 A 1000.225 1000.225 0 0 1 3389.55 59.6 Q 3391.6 55.8 3393.65 52.05 Q 3395.7 48.3 3397.6 44.8 L 3419.4 4.8 L 3422.5 4.8 L 3386.4 70.8 Z M 4226.4 70.8 L 4223 70.8 L 4215.8 4.8 L 4218.6 4.8 L 4222.8 44.7 Q 4223.4 50.2 4224 55.8 L 4225.2 67 L 4225.6 67 A 916.957 916.957 0 0 1 4229.294 60.074 A 1000.225 1000.225 0 0 1 4229.55 59.6 Q 4231.6 55.8 4233.65 52.05 Q 4235.7 48.3 4237.6 44.8 L 4259.4 4.8 L 4262.5 4.8 L 4226.4 70.8 Z M 283.2 70.8 L 245.8 70.8 L 246.4 68.2 L 263.4 68.2 L 275.6 7.4 L 258.4 7.4 L 259 4.8 L 296.6 4.8 L 296 7.4 L 278.6 7.4 L 266.4 68.2 L 283.8 68.2 L 283.2 70.8 Z M 763.2 70.8 L 725.8 70.8 L 726.4 68.2 L 743.4 68.2 L 755.6 7.4 L 738.4 7.4 L 739 4.8 L 776.6 4.8 L 776 7.4 L 758.6 7.4 L 746.4 68.2 L 763.8 68.2 L 763.2 70.8 Z M 1183.2 70.8 L 1145.8 70.8 L 1146.4 68.2 L 1163.4 68.2 L 1175.6 7.4 L 1158.4 7.4 L 1159 4.8 L 1196.6 4.8 L 1196 7.4 L 1178.6 7.4 L 1166.4 68.2 L 1183.8 68.2 L 1183.2 70.8 Z M 2143.2 70.8 L 2105.8 70.8 L 2106.4 68.2 L 2123.4 68.2 L 2135.6 7.4 L 2118.4 7.4 L 2119 4.8 L 2156.6 4.8 L 2156 7.4 L 2138.6 7.4 L 2126.4 68.2 L 2143.8 68.2 L 2143.2 70.8 Z M 2683.2 70.8 L 2645.8 70.8 L 2646.4 68.2 L 2663.4 68.2 L 2675.6 7.4 L 2658.4 7.4 L 2659 4.8 L 2696.6 4.8 L 2696 7.4 L 2678.6 7.4 L 2666.4 68.2 L 2683.8 68.2 L 2683.2 70.8 Z M 2803.2 70.8 L 2765.8 70.8 L 2766.4 68.2 L 2783.4 68.2 L 2795.6 7.4 L 2778.4 7.4 L 2779 4.8 L 2816.6 4.8 L 2816 7.4 L 2798.6 7.4 L 2786.4 68.2 L 2803.8 68.2 L 2803.2 70.8 Z M 3643.2 70.8 L 3605.8 70.8 L 3606.4 68.2 L 3623.4 68.2 L 3635.6 7.4 L 3618.4 7.4 L 3619 4.8 L 3656.6 4.8 L 3656 7.4 L 3638.6 7.4 L 3626.4 68.2 L 3643.8 68.2 L 3643.2 70.8 Z M 3943.2 70.8 L 3905.8 70.8 L 3906.4 68.2 L 3923.4 68.2 L 3935.6 7.4 L 3918.4 7.4 L 3919 4.8 L 3956.6 4.8 L 3956 7.4 L 3938.6 7.4 L 3926.4 68.2 L 3943.8 68.2 L 3943.2 70.8 Z M 5008 86 L 4982.4 86 L 4982.8 83.8 L 5006 83.8 L 5022.2 2.2 L 4999 2.2 L 4999.4 0 L 5025.2 0 L 5008 86 Z M 5068 86 L 5042.4 86 L 5042.8 83.8 L 5066 83.8 L 5082.2 2.2 L 5059 2.2 L 5059.4 0 L 5085.2 0 L 5068 86 Z M 1960.8 86 L 1935 86 L 1952.2 0 L 1977.8 0 L 1977.4 2.2 L 1954.2 2.2 L 1938 83.8 L 1961.2 83.8 L 1960.8 86 Z M 4600.8 86 L 4575 86 L 4592.2 0 L 4617.8 0 L 4617.4 2.2 L 4594.2 2.2 L 4578 83.8 L 4601.2 83.8 L 4600.8 86 Z M 4033.6 70.8 L 4030.6 70.8 L 4043.8 4.8 L 4081.8 4.8 L 4081.2 7.4 L 4046.2 7.4 L 4040.6 35.6 L 4069.8 35.6 L 4069.2 38.2 L 4040.2 38.2 L 4033.6 70.8 Z M 177.6 12.8 L 175.2 14.4 Q 173.3 10.8 170.1 8.5 Q 166.9 6.2 162.2 6.2 A 24.188 24.188 0 0 0 155.54 7.091 A 21.207 21.207 0 0 0 151.7 8.6 Q 147 11 143.35 15.15 Q 139.7 19.3 137.2 24.4 Q 134.7 29.5 133.45 35 A 50.139 50.139 0 0 0 132.322 42.373 A 43.271 43.271 0 0 0 132.2 45.6 A 38.756 38.756 0 0 0 132.764 52.352 A 30.813 30.813 0 0 0 134.2 57.7 A 19.479 19.479 0 0 0 137.213 63.128 A 17.291 17.291 0 0 0 140.45 66.25 Q 144.7 69.4 151.4 69.4 A 21.996 21.996 0 0 0 156.962 68.716 A 19.263 19.263 0 0 0 160 67.65 A 30.925 30.925 0 0 0 165.268 64.606 A 37.441 37.441 0 0 0 167.6 62.8 L 169.4 64.8 A 43.102 43.102 0 0 1 165.725 67.517 A 36.22 36.22 0 0 1 163.8 68.7 Q 161 70.3 157.9 71.15 A 23.945 23.945 0 0 1 153.401 71.917 A 28.62 28.62 0 0 1 151.2 72 A 26.561 26.561 0 0 1 145.7 71.46 Q 141.968 70.671 139.085 68.727 A 16.875 16.875 0 0 1 138.9 68.6 A 20.292 20.292 0 0 1 131.762 59.736 A 24.408 24.408 0 0 1 131.6 59.35 A 31.889 31.889 0 0 1 129.484 51.047 A 40.246 40.246 0 0 1 129.2 46.2 A 49.788 49.788 0 0 1 130.464 35.196 A 55.454 55.454 0 0 1 130.65 34.4 Q 132.1 28.4 134.85 22.9 Q 137.6 17.4 141.65 13.05 Q 145.7 8.7 150.9 6.15 A 25.198 25.198 0 0 1 160.458 3.662 A 29.926 29.926 0 0 1 162.4 3.6 A 19.137 19.137 0 0 1 166.599 4.037 A 13.601 13.601 0 0 1 171.7 6.3 Q 175.4 9 177.6 12.8 Z M 2037.6 12.8 L 2035.2 14.4 Q 2033.3 10.8 2030.1 8.5 Q 2026.9 6.2 2022.2 6.2 A 24.188 24.188 0 0 0 2015.54 7.091 A 21.207 21.207 0 0 0 2011.7 8.6 Q 2007 11 2003.35 15.15 Q 1999.7 19.3 1997.2 24.4 Q 1994.7 29.5 1993.45 35 A 50.139 50.139 0 0 0 1992.322 42.373 A 43.271 43.271 0 0 0 1992.2 45.6 A 38.756 38.756 0 0 0 1992.764 52.352 A 30.813 30.813 0 0 0 1994.2 57.7 A 19.479 19.479 0 0 0 1997.213 63.128 A 17.291 17.291 0 0 0 2000.45 66.25 Q 2004.7 69.4 2011.4 69.4 A 21.996 21.996 0 0 0 2016.962 68.716 A 19.263 19.263 0 0 0 2020 67.65 A 30.925 30.925 0 0 0 2025.268 64.606 A 37.441 37.441 0 0 0 2027.6 62.8 L 2029.4 64.8 A 43.102 43.102 0 0 1 2025.725 67.517 A 36.22 36.22 0 0 1 2023.8 68.7 Q 2021 70.3 2017.9 71.15 A 23.945 23.945 0 0 1 2013.401 71.917 A 28.62 28.62 0 0 1 2011.2 72 A 26.561 26.561 0 0 1 2005.7 71.46 Q 2001.968 70.671 1999.085 68.727 A 16.875 16.875 0 0 1 1998.9 68.6 A 20.292 20.292 0 0 1 1991.762 59.736 A 24.408 24.408 0 0 1 1991.6 59.35 A 31.889 31.889 0 0 1 1989.484 51.047 A 40.246 40.246 0 0 1 1989.2 46.2 A 49.788 49.788 0 0 1 1990.464 35.196 A 55.454 55.454 0 0 1 1990.65 34.4 Q 1992.1 28.4 1994.85 22.9 Q 1997.6 17.4 2001.65 13.05 Q 2005.7 8.7 2010.9 6.15 A 25.198 25.198 0 0 1 2020.458 3.662 A 29.926 29.926 0 0 1 2022.4 3.6 A 19.137 19.137 0 0 1 2026.599 4.037 A 13.601 13.601 0 0 1 2031.7 6.3 Q 2035.4 9 2037.6 12.8 Z M 4367.2 70.8 L 4326.2 70.8 L 4326.8 68.2 L 4346 68.2 L 4357.2 12.6 L 4343 12.6 L 4343.4 10.6 Q 4347.9 10.1 4352.1 9.1 A 44.741 44.741 0 0 0 4354.787 8.377 Q 4356.047 7.992 4357.101 7.571 A 18.835 18.835 0 0 0 4358.8 6.8 L 4361.2 6.8 L 4348.8 68.2 L 4367.6 68.2 L 4367.2 70.8 Z M 1046 70.8 L 1043 70.8 L 1055.6 7.6 L 1032.2 7.6 L 1032.8 4.8 L 1082.6 4.8 L 1082 7.6 L 1058.6 7.6 L 1046 70.8 Z M 1586 70.8 L 1583 70.8 L 1595.6 7.6 L 1572.2 7.6 L 1572.8 4.8 L 1622.6 4.8 L 1622 7.6 L 1598.6 7.6 L 1586 70.8 Z M 2306 70.8 L 2303 70.8 L 2315.6 7.6 L 2292.2 7.6 L 2292.8 4.8 L 2342.6 4.8 L 2342 7.6 L 2318.6 7.6 L 2306 70.8 Z M 2906 70.8 L 2903 70.8 L 2915.6 7.6 L 2892.2 7.6 L 2892.8 4.8 L 2942.6 4.8 L 2942 7.6 L 2918.6 7.6 L 2906 70.8 Z M 3086 70.8 L 3083 70.8 L 3095.6 7.6 L 3072.2 7.6 L 3072.8 4.8 L 3122.6 4.8 L 3122 7.6 L 3098.6 7.6 L 3086 70.8 Z M 4706 70.8 L 4703 70.8 L 4715.6 7.6 L 4692.2 7.6 L 4692.8 4.8 L 4742.6 4.8 L 4742 7.6 L 4718.6 7.6 L 4706 70.8 Z M 1645.2 70.8 L 1626.2 70.8 L 1639.4 4.8 L 1655 4.8 A 40.955 40.955 0 0 1 1659.375 5.02 Q 1661.533 5.252 1663.358 5.73 A 19.237 19.237 0 0 1 1665.7 6.5 A 15.512 15.512 0 0 1 1668.861 8.201 A 11.532 11.532 0 0 1 1671.95 11.4 A 12.873 12.873 0 0 1 1673.819 16.493 A 16.833 16.833 0 0 1 1674 19 A 17.052 17.052 0 0 1 1673.497 23.234 A 13.353 13.353 0 0 1 1671.55 27.55 A 18.607 18.607 0 0 1 1667.335 31.966 A 17.281 17.281 0 0 1 1665.6 33.1 Q 1662.1 35.1 1659 35.6 L 1659 36 Q 1662.2 36.7 1665.1 38.45 Q 1668 40.2 1669.8 43.1 Q 1671.6 46 1671.6 50.2 A 24.41 24.41 0 0 1 1671.096 55.295 Q 1670.36 58.747 1668.547 61.4 A 15.387 15.387 0 0 1 1668.3 61.75 A 18.744 18.744 0 0 1 1661.693 67.369 A 24.005 24.005 0 0 1 1659.05 68.55 A 33.545 33.545 0 0 1 1652.178 70.306 Q 1649.005 70.785 1645.431 70.8 A 55.175 55.175 0 0 1 1645.2 70.8 Z M 4825.2 70.8 L 4806.2 70.8 L 4819.4 4.8 L 4835 4.8 A 40.955 40.955 0 0 1 4839.375 5.02 Q 4841.533 5.252 4843.358 5.73 A 19.237 19.237 0 0 1 4845.7 6.5 A 15.512 15.512 0 0 1 4848.861 8.201 A 11.532 11.532 0 0 1 4851.95 11.4 A 12.873 12.873 0 0 1 4853.819 16.493 A 16.833 16.833 0 0 1 4854 19 A 17.052 17.052 0 0 1 4853.497 23.234 A 13.353 13.353 0 0 1 4851.55 27.55 A 18.607 18.607 0 0 1 4847.335 31.966 A 17.281 17.281 0 0 1 4845.6 33.1 Q 4842.1 35.1 4839 35.6 L 4839 36 Q 4842.2 36.7 4845.1 38.45 Q 4848 40.2 4849.8 43.1 Q 4851.6 46 4851.6 50.2 A 24.41 24.41 0 0 1 4851.096 55.295 Q 4850.36 58.747 4848.547 61.4 A 15.387 15.387 0 0 1 4848.3 61.75 A 18.744 18.744 0 0 1 4841.693 67.369 A 24.005 24.005 0 0 1 4839.05 68.55 A 33.545 33.545 0 0 1 4832.178 70.306 Q 4829.005 70.785 4825.431 70.8 A 55.175 55.175 0 0 1 4825.2 70.8 Z M 2091.6 70.8 L 2053.4 70.8 L 2066.6 4.8 L 2069.6 4.8 L 2057 68.2 L 2092.2 68.2 L 2091.6 70.8 Z M 4911.6 70.8 L 4873.4 70.8 L 4886.6 4.8 L 4889.6 4.8 L 4877 68.2 L 4912.2 68.2 L 4911.6 70.8 Z M 439.4 70.8 L 423.8 70.8 L 437 4.8 L 448.8 4.8 Q 457.796 4.8 463.753 7.819 A 19.575 19.575 0 0 1 469.15 11.8 A 23.64 23.64 0 0 1 475.183 23.758 A 34.061 34.061 0 0 1 475.8 30.4 A 54.444 54.444 0 0 1 474.612 41.933 A 48.282 48.282 0 0 1 473.5 46.15 A 38.635 38.635 0 0 1 468.908 55.948 A 35.147 35.147 0 0 1 466.65 59 Q 462.1 64.5 455.3 67.65 A 33.163 33.163 0 0 1 446.669 70.239 A 45.053 45.053 0 0 1 439.4 70.8 Z M 859.4 70.8 L 843.8 70.8 L 857 4.8 L 868.8 4.8 Q 877.796 4.8 883.753 7.819 A 19.575 19.575 0 0 1 889.15 11.8 A 23.64 23.64 0 0 1 895.183 23.758 A 34.061 34.061 0 0 1 895.8 30.4 A 54.444 54.444 0 0 1 894.612 41.933 A 48.282 48.282 0 0 1 893.5 46.15 A 38.635 38.635 0 0 1 888.908 55.948 A 35.147 35.147 0 0 1 886.65 59 Q 882.1 64.5 875.3 67.65 A 33.163 33.163 0 0 1 866.669 70.239 A 45.053 45.053 0 0 1 859.4 70.8 Z M 2539.4 70.8 L 2523.8 70.8 L 2537 4.8 L 2548.8 4.8 Q 2557.796 4.8 2563.753 7.819 A 19.575 19.575 0 0 1 2569.15 11.8 A 23.64 23.64 0 0 1 2575.183 23.758 A 34.061 34.061 0 0 1 2575.8 30.4 A 54.444 54.444 0 0 1 2574.612 41.933 A 48.282 48.282 0 0 1 2573.5 46.15 A 38.635 38.635 0 0 1 2568.908 55.948 A 35.147 35.147 0 0 1 2566.65 59 Q 2562.1 64.5 2555.3 67.65 A 33.163 33.163 0 0 1 2546.669 70.239 A 45.053 45.053 0 0 1 2539.4 70.8 Z M 4099.4 70.8 L 4083.8 70.8 L 4097 4.8 L 4108.8 4.8 Q 4117.796 4.8 4123.753 7.819 A 19.575 19.575 0 0 1 4129.15 11.8 A 23.64 23.64 0 0 1 4135.183 23.758 A 34.061 34.061 0 0 1 4135.8 30.4 A 54.444 54.444 0 0 1 4134.612 41.933 A 48.282 48.282 0 0 1 4133.5 46.15 A 38.635 38.635 0 0 1 4128.908 55.948 A 35.147 35.147 0 0 1 4126.65 59 Q 4122.1 64.5 4115.3 67.65 A 33.163 33.163 0 0 1 4106.669 70.239 A 45.053 45.053 0 0 1 4099.4 70.8 Z M 68.8 70.8 L 65.8 70.8 L 79 4.8 L 95 4.8 A 40.455 40.455 0 0 1 99.521 5.039 Q 101.85 5.302 103.852 5.851 A 22.373 22.373 0 0 1 105.15 6.25 A 15.039 15.039 0 0 1 108.654 7.948 A 11.918 11.918 0 0 1 111.7 10.85 Q 113.856 13.803 113.991 18.381 A 20.999 20.999 0 0 1 114 19 A 21.458 21.458 0 0 1 113.415 24.099 A 18.05 18.05 0 0 1 112.15 27.65 Q 110.3 31.5 106.95 34.2 A 23.207 23.207 0 0 1 101.117 37.602 A 27.778 27.778 0 0 1 99.05 38.35 Q 94.5 39.8 89.2 39.8 L 75 39.8 L 68.8 70.8 Z M 1088.8 70.8 L 1085.8 70.8 L 1099 4.8 L 1115 4.8 A 40.455 40.455 0 0 1 1119.521 5.039 Q 1121.85 5.302 1123.852 5.851 A 22.373 22.373 0 0 1 1125.15 6.25 A 15.039 15.039 0 0 1 1128.654 7.948 A 11.918 11.918 0 0 1 1131.7 10.85 Q 1133.856 13.803 1133.991 18.381 A 20.999 20.999 0 0 1 1134 19 A 21.458 21.458 0 0 1 1133.415 24.099 A 18.05 18.05 0 0 1 1132.15 27.65 Q 1130.3 31.5 1126.95 34.2 A 23.207 23.207 0 0 1 1121.117 37.602 A 27.778 27.778 0 0 1 1119.05 38.35 Q 1114.5 39.8 1109.2 39.8 L 1095 39.8 L 1088.8 70.8 Z M 2948.8 70.8 L 2945.8 70.8 L 2959 4.8 L 2975 4.8 A 40.455 40.455 0 0 1 2979.521 5.039 Q 2981.85 5.302 2983.852 5.851 A 22.373 22.373 0 0 1 2985.15 6.25 A 15.039 15.039 0 0 1 2988.654 7.948 A 11.918 11.918 0 0 1 2991.7 10.85 Q 2993.856 13.803 2993.991 18.381 A 20.999 20.999 0 0 1 2994 19 A 21.458 21.458 0 0 1 2993.415 24.099 A 18.05 18.05 0 0 1 2992.15 27.65 Q 2990.3 31.5 2986.95 34.2 A 23.207 23.207 0 0 1 2981.117 37.602 A 27.778 27.778 0 0 1 2979.05 38.35 Q 2974.5 39.8 2969.2 39.8 L 2955 39.8 L 2948.8 70.8 Z M 3188.8 70.8 L 3185.8 70.8 L 3199 4.8 L 3215 4.8 A 40.455 40.455 0 0 1 3219.521 5.039 Q 3221.85 5.302 3223.852 5.851 A 22.373 22.373 0 0 1 3225.15 6.25 A 15.039 15.039 0 0 1 3228.654 7.948 A 11.918 11.918 0 0 1 3231.7 10.85 Q 3233.856 13.803 3233.991 18.381 A 20.999 20.999 0 0 1 3234 19 A 21.458 21.458 0 0 1 3233.415 24.099 A 18.05 18.05 0 0 1 3232.15 27.65 Q 3230.3 31.5 3226.95 34.2 A 23.207 23.207 0 0 1 3221.117 37.602 A 27.778 27.778 0 0 1 3219.05 38.35 Q 3214.5 39.8 3209.2 39.8 L 3195 39.8 L 3188.8 70.8 Z M 3488.8 70.8 L 3485.8 70.8 L 3499 4.8 L 3515 4.8 A 40.455 40.455 0 0 1 3519.521 5.039 Q 3521.85 5.302 3523.852 5.851 A 22.373 22.373 0 0 1 3525.15 6.25 A 15.039 15.039 0 0 1 3528.654 7.948 A 11.918 11.918 0 0 1 3531.7 10.85 Q 3533.856 13.803 3533.991 18.381 A 20.999 20.999 0 0 1 3534 19 A 21.458 21.458 0 0 1 3533.415 24.099 A 18.05 18.05 0 0 1 3532.15 27.65 Q 3530.3 31.5 3526.95 34.2 A 23.207 23.207 0 0 1 3521.117 37.602 A 27.778 27.778 0 0 1 3519.05 38.35 Q 3514.5 39.8 3509.2 39.8 L 3495 39.8 L 3488.8 70.8 Z M 3141.008 71.378 A 22.323 22.323 0 0 0 3146.4 72 A 26.365 26.365 0 0 0 3147.903 71.958 A 22.034 22.034 0 0 0 3157.1 69.45 Q 3161.9 66.9 3165.55 62.5 A 40.587 40.587 0 0 0 3166.445 61.382 A 43.901 43.901 0 0 0 3171.7 52.55 Q 3174.2 47 3175.5 40.95 Q 3176.8 34.9 3176.8 29 A 40.027 40.027 0 0 0 3176.404 23.26 A 30.521 30.521 0 0 0 3174.4 15.85 Q 3172 10.1 3167.4 6.85 A 17.111 17.111 0 0 0 3161.592 4.222 A 22.323 22.323 0 0 0 3156.2 3.6 A 26.365 26.365 0 0 0 3154.697 3.642 A 22.034 22.034 0 0 0 3145.5 6.15 Q 3140.7 8.7 3137.05 13.1 A 40.587 40.587 0 0 0 3136.155 14.218 A 43.901 43.901 0 0 0 3130.9 23.05 Q 3128.4 28.6 3127.1 34.65 Q 3125.8 40.7 3125.8 46.6 A 40.027 40.027 0 0 0 3126.196 52.34 A 30.521 30.521 0 0 0 3128.2 59.75 Q 3130.6 65.5 3135.2 68.75 A 17.111 17.111 0 0 0 3141.008 71.378 Z M 3681.008 71.378 A 22.323 22.323 0 0 0 3686.4 72 A 26.365 26.365 0 0 0 3687.903 71.958 A 22.034 22.034 0 0 0 3697.1 69.45 Q 3701.9 66.9 3705.55 62.5 A 40.587 40.587 0 0 0 3706.445 61.382 A 43.901 43.901 0 0 0 3711.7 52.55 Q 3714.2 47 3715.5 40.95 Q 3716.8 34.9 3716.8 29 A 40.027 40.027 0 0 0 3716.404 23.26 A 30.521 30.521 0 0 0 3714.4 15.85 Q 3712 10.1 3707.4 6.85 A 17.111 17.111 0 0 0 3701.592 4.222 A 22.323 22.323 0 0 0 3696.2 3.6 A 26.365 26.365 0 0 0 3694.697 3.642 A 22.034 22.034 0 0 0 3685.5 6.15 Q 3680.7 8.7 3677.05 13.1 A 40.587 40.587 0 0 0 3676.155 14.218 A 43.901 43.901 0 0 0 3670.9 23.05 Q 3668.4 28.6 3667.1 34.65 Q 3665.8 40.7 3665.8 46.6 A 40.027 40.027 0 0 0 3666.196 52.34 A 30.521 30.521 0 0 0 3668.2 59.75 Q 3670.6 65.5 3675.2 68.75 A 17.111 17.111 0 0 0 3681.008 71.378 Z M 589.4 61.1 L 589.4 64.6 L 553.2 39.1 L 553.2 36.1 L 589.4 10.6 L 589.4 14.1 L 556.2 37.4 L 556.2 37.8 L 589.4 61.1 Z M 439.4 7.4 L 427.2 68.2 L 439.6 68.2 Q 450.4 68.2 457.8 63.2 Q 465.2 58.2 469 49.65 A 44.297 44.297 0 0 0 472.547 35.884 A 54.169 54.169 0 0 0 472.8 30.6 A 29.598 29.598 0 0 0 471.928 23.224 A 21.417 21.417 0 0 0 466.85 13.8 A 18.5 18.5 0 0 0 459.026 8.902 Q 456.024 7.893 452.349 7.562 A 41.815 41.815 0 0 0 448.6 7.4 L 439.4 7.4 Z M 859.4 7.4 L 847.2 68.2 L 859.6 68.2 Q 870.4 68.2 877.8 63.2 Q 885.2 58.2 889 49.65 A 44.297 44.297 0 0 0 892.547 35.884 A 54.169 54.169 0 0 0 892.8 30.6 A 29.598 29.598 0 0 0 891.928 23.224 A 21.417 21.417 0 0 0 886.85 13.8 A 18.5 18.5 0 0 0 879.026 8.902 Q 876.024 7.893 872.349 7.562 A 41.815 41.815 0 0 0 868.6 7.4 L 859.4 7.4 Z M 2539.4 7.4 L 2527.2 68.2 L 2539.6 68.2 Q 2550.4 68.2 2557.8 63.2 Q 2565.2 58.2 2569 49.65 A 44.297 44.297 0 0 0 2572.547 35.884 A 54.169 54.169 0 0 0 2572.8 30.6 A 29.598 29.598 0 0 0 2571.928 23.224 A 21.417 21.417 0 0 0 2566.85 13.8 A 18.5 18.5 0 0 0 2559.026 8.902 Q 2556.024 7.893 2552.349 7.562 A 41.815 41.815 0 0 0 2548.6 7.4 L 2539.4 7.4 Z M 4099.4 7.4 L 4087.2 68.2 L 4099.6 68.2 Q 4110.4 68.2 4117.8 63.2 Q 4125.2 58.2 4129 49.65 A 44.297 44.297 0 0 0 4132.547 35.884 A 54.169 54.169 0 0 0 4132.8 30.6 A 29.598 29.598 0 0 0 4131.928 23.224 A 21.417 21.417 0 0 0 4126.85 13.8 A 18.5 18.5 0 0 0 4119.026 8.902 Q 4116.024 7.893 4112.349 7.562 A 41.815 41.815 0 0 0 4108.6 7.4 L 4099.4 7.4 Z M 3146.6 69.4 A 19.761 19.761 0 0 0 3153.27 68.294 A 18.284 18.284 0 0 0 3156.2 66.95 A 26.069 26.069 0 0 0 3163.172 61.113 A 29.988 29.988 0 0 0 3163.8 60.35 A 39.631 39.631 0 0 0 3168.985 51.726 A 44.389 44.389 0 0 0 3169.3 51 Q 3171.5 45.8 3172.65 40.2 A 55.871 55.871 0 0 0 3173.709 32.357 A 48.647 48.647 0 0 0 3173.8 29.4 A 40.558 40.558 0 0 0 3173.372 23.366 A 30.106 30.106 0 0 0 3171.85 17.35 A 19.746 19.746 0 0 0 3169.446 12.739 A 16.122 16.122 0 0 0 3165.95 9.15 A 14.476 14.476 0 0 0 3160.13 6.598 A 20.412 20.412 0 0 0 3156 6.2 A 19.761 19.761 0 0 0 3149.33 7.306 A 18.284 18.284 0 0 0 3146.4 8.65 A 26.069 26.069 0 0 0 3139.428 14.487 A 29.988 29.988 0 0 0 3138.8 15.25 A 39.631 39.631 0 0 0 3133.615 23.874 A 44.389 44.389 0 0 0 3133.3 24.6 Q 3131.1 29.8 3129.95 35.4 A 55.871 55.871 0 0 0 3128.891 43.243 A 48.647 48.647 0 0 0 3128.8 46.2 A 40.558 40.558 0 0 0 3129.228 52.234 A 30.106 30.106 0 0 0 3130.75 58.25 A 19.746 19.746 0 0 0 3133.154 62.861 A 16.122 16.122 0 0 0 3136.65 66.45 A 14.476 14.476 0 0 0 3142.47 69.002 A 20.412 20.412 0 0 0 3146.6 69.4 Z M 3686.6 69.4 A 19.761 19.761 0 0 0 3693.27 68.294 A 18.284 18.284 0 0 0 3696.2 66.95 A 26.069 26.069 0 0 0 3703.172 61.113 A 29.988 29.988 0 0 0 3703.8 60.35 A 39.631 39.631 0 0 0 3708.985 51.726 A 44.389 44.389 0 0 0 3709.3 51 Q 3711.5 45.8 3712.65 40.2 A 55.871 55.871 0 0 0 3713.709 32.357 A 48.647 48.647 0 0 0 3713.8 29.4 A 40.558 40.558 0 0 0 3713.372 23.366 A 30.106 30.106 0 0 0 3711.85 17.35 A 19.746 19.746 0 0 0 3709.446 12.739 A 16.122 16.122 0 0 0 3705.95 9.15 A 14.476 14.476 0 0 0 3700.13 6.598 A 20.412 20.412 0 0 0 3696 6.2 A 19.761 19.761 0 0 0 3689.33 7.306 A 18.284 18.284 0 0 0 3686.4 8.65 A 26.069 26.069 0 0 0 3679.428 14.487 A 29.988 29.988 0 0 0 3678.8 15.25 A 39.631 39.631 0 0 0 3673.615 23.874 A 44.389 44.389 0 0 0 3673.3 24.6 Q 3671.1 29.8 3669.95 35.4 A 55.871 55.871 0 0 0 3668.891 43.243 A 48.647 48.647 0 0 0 3668.8 46.2 A 40.558 40.558 0 0 0 3669.228 52.234 A 30.106 30.106 0 0 0 3670.75 58.25 A 19.746 19.746 0 0 0 3673.154 62.861 A 16.122 16.122 0 0 0 3676.65 66.45 A 14.476 14.476 0 0 0 3682.47 69.002 A 20.412 20.412 0 0 0 3686.6 69.4 Z M 1636 37 L 1629.6 68.2 L 1643.4 68.2 A 54.621 54.621 0 0 0 1649.827 67.841 Q 1653.14 67.448 1656.011 66.625 A 32.813 32.813 0 0 0 1656.6 66.45 A 21.083 21.083 0 0 0 1661.09 64.512 A 15.82 15.82 0 0 0 1665.45 60.8 A 13.601 13.601 0 0 0 1668.039 55.455 Q 1668.53 53.482 1668.591 51.168 A 25.218 25.218 0 0 0 1668.6 50.5 A 11.613 11.613 0 0 0 1664.753 41.716 A 15.796 15.796 0 0 0 1663.75 40.85 Q 1659.895 37.79 1653.48 37.162 A 35.77 35.77 0 0 0 1650 37 L 1636 37 Z M 4816 37 L 4809.6 68.2 L 4823.4 68.2 A 54.621 54.621 0 0 0 4829.827 67.841 Q 4833.14 67.448 4836.011 66.625 A 32.813 32.813 0 0 0 4836.6 66.45 A 21.083 21.083 0 0 0 4841.09 64.512 A 15.82 15.82 0 0 0 4845.45 60.8 A 13.601 13.601 0 0 0 4848.039 55.455 Q 4848.53 53.482 4848.591 51.168 A 25.218 25.218 0 0 0 4848.6 50.5 A 11.613 11.613 0 0 0 4844.753 41.716 A 15.796 15.796 0 0 0 4843.75 40.85 Q 4839.895 37.79 4833.48 37.162 A 35.77 35.77 0 0 0 4830 37 L 4816 37 Z M 81.4 7.4 L 75.6 37.2 L 87.8 37.2 A 41.268 41.268 0 0 0 94.393 36.708 Q 100.838 35.662 104.95 32.4 A 15.564 15.564 0 0 0 110.928 20.994 A 21.783 21.783 0 0 0 111 19.2 A 14.8 14.8 0 0 0 110.628 15.764 A 8.688 8.688 0 0 0 106.55 10.05 Q 102.391 7.573 94.345 7.411 A 56.904 56.904 0 0 0 93.2 7.4 L 81.4 7.4 Z M 1101.4 7.4 L 1095.6 37.2 L 1107.8 37.2 A 41.268 41.268 0 0 0 1114.393 36.708 Q 1120.838 35.662 1124.95 32.4 A 15.564 15.564 0 0 0 1130.928 20.994 A 21.783 21.783 0 0 0 1131 19.2 A 14.8 14.8 0 0 0 1130.628 15.764 A 8.688 8.688 0 0 0 1126.55 10.05 Q 1122.391 7.573 1114.345 7.411 A 56.904 56.904 0 0 0 1113.2 7.4 L 1101.4 7.4 Z M 2961.4 7.4 L 2955.6 37.2 L 2967.8 37.2 A 41.268 41.268 0 0 0 2974.393 36.708 Q 2980.838 35.662 2984.95 32.4 A 15.564 15.564 0 0 0 2990.928 20.994 A 21.783 21.783 0 0 0 2991 19.2 A 14.8 14.8 0 0 0 2990.628 15.764 A 8.688 8.688 0 0 0 2986.55 10.05 Q 2982.391 7.573 2974.345 7.411 A 56.904 56.904 0 0 0 2973.2 7.4 L 2961.4 7.4 Z M 3201.4 7.4 L 3195.6 37.2 L 3207.8 37.2 A 41.268 41.268 0 0 0 3214.393 36.708 Q 3220.838 35.662 3224.95 32.4 A 15.564 15.564 0 0 0 3230.928 20.994 A 21.783 21.783 0 0 0 3231 19.2 A 14.8 14.8 0 0 0 3230.628 15.764 A 8.688 8.688 0 0 0 3226.55 10.05 Q 3222.391 7.573 3214.345 7.411 A 56.904 56.904 0 0 0 3213.2 7.4 L 3201.4 7.4 Z M 3501.4 7.4 L 3495.6 37.2 L 3507.8 37.2 A 41.268 41.268 0 0 0 3514.393 36.708 Q 3520.838 35.662 3524.95 32.4 A 15.564 15.564 0 0 0 3530.928 20.994 A 21.783 21.783 0 0 0 3531 19.2 A 14.8 14.8 0 0 0 3530.628 15.764 A 8.688 8.688 0 0 0 3526.55 10.05 Q 3522.391 7.573 3514.345 7.411 A 56.904 56.904 0 0 0 3513.2 7.4 L 3501.4 7.4 Z M 1641.8 7.4 L 1636.4 34.4 L 1648.2 34.4 A 48.791 48.791 0 0 0 1654.162 34.06 Q 1660.956 33.221 1665.008 30.315 A 15.009 15.009 0 0 0 1665.3 30.1 A 15.452 15.452 0 0 0 1668.829 26.471 A 12.639 12.639 0 0 0 1671 19.2 A 12.863 12.863 0 0 0 1670.474 15.425 A 9.841 9.841 0 0 0 1667.1 10.5 A 10.905 10.905 0 0 0 1664.086 8.865 Q 1661.023 7.728 1656.28 7.474 A 53.765 53.765 0 0 0 1653.4 7.4 L 1641.8 7.4 Z M 4821.8 7.4 L 4816.4 34.4 L 4828.2 34.4 A 48.791 48.791 0 0 0 4834.162 34.06 Q 4840.956 33.221 4845.008 30.315 A 15.009 15.009 0 0 0 4845.3 30.1 A 15.452 15.452 0 0 0 4848.829 26.471 A 12.639 12.639 0 0 0 4851 19.2 A 12.863 12.863 0 0 0 4850.474 15.425 A 9.841 9.841 0 0 0 4847.1 10.5 A 10.905 10.905 0 0 0 4844.086 8.865 Q 4841.023 7.728 4836.28 7.474 A 53.765 53.765 0 0 0 4833.4 7.4 L 4821.8 7.4 Z M 3251.3 90.9 L 3250.6 88.4 A 28.606 28.606 0 0 0 3256.784 85.88 A 22.054 22.054 0 0 0 3262.4 81.45 A 20.615 20.615 0 0 0 3266.106 75.801 A 18.339 18.339 0 0 0 3267.5 70.6 L 3267.9 68.7 L 3270 69.5 A 3.545 3.545 0 0 1 3268.434 70.743 A 4.587 4.587 0 0 1 3268 70.9 Q 3266.7 71.3 3265.7 71.3 A 5.186 5.186 0 0 1 3264.286 71.117 A 3.9 3.9 0 0 1 3262.5 70.05 A 4.197 4.197 0 0 1 3261.423 67.958 A 6.109 6.109 0 0 1 3261.3 66.7 Q 3261.3 64.9 3262.15 63.4 A 6.421 6.421 0 0 1 3263.971 61.335 A 6.275 6.275 0 0 1 3264.4 61.05 Q 3265.8 60.2 3267.5 60.2 A 4.82 4.82 0 0 1 3269.077 60.446 A 3.981 3.981 0 0 1 3271.05 61.95 A 5.96 5.96 0 0 1 3271.882 63.685 Q 3272.129 64.49 3272.23 65.464 A 13.932 13.932 0 0 1 3272.3 66.9 Q 3272.3 72.7 3269.55 77.55 Q 3266.8 82.4 3262.1 85.8 A 32.79 32.79 0 0 1 3253.538 90.203 A 38.335 38.335 0 0 1 3251.3 90.9 Z M 101.8 70.8 L 89 39.6 L 91.8 38.4 L 105.2 70.8 L 101.8 70.8 Z M 1121.8 70.8 L 1109 39.6 L 1111.8 38.4 L 1125.2 70.8 L 1121.8 70.8 Z M 2981.8 70.8 L 2969 39.6 L 2971.8 38.4 L 2985.2 70.8 L 2981.8 70.8 Z M 3221.8 70.8 L 3209 39.6 L 3211.8 38.4 L 3225.2 70.8 L 3221.8 70.8 Z M 3521.8 70.8 L 3509 39.6 L 3511.8 38.4 L 3525.2 70.8 L 3521.8 70.8 Z M 44.5 47 L 15.8 47 L 16.6 44.4 L 44.6 44.4 L 44.5 47 Z M 1724.5 47 L 1695.8 47 L 1696.6 44.4 L 1724.6 44.4 L 1724.5 47 Z M 2504.5 47 L 2475.8 47 L 2476.6 44.4 L 2504.6 44.4 L 2504.5 47 Z M 3044.5 47 L 3015.8 47 L 3016.6 44.4 L 3044.6 44.4 L 3044.5 47 Z M 4784.5 47 L 4755.8 47 L 4756.6 44.4 L 4784.6 44.4 L 4784.5 47 Z M 2363.205 71.802 A 4.677 4.677 0 0 0 2364.6 72 A 4.878 4.878 0 0 0 2365.926 71.819 A 5.376 5.376 0 0 0 2367.6 71 Q 2369 70 2369.9 68.45 A 7.503 7.503 0 0 0 2369.928 68.402 A 6.367 6.367 0 0 0 2370.8 65.2 A 7.892 7.892 0 0 0 2370.799 65.091 Q 2370.771 63.067 2369.7 61.85 A 3.538 3.538 0 0 0 2367.869 60.748 A 5.143 5.143 0 0 0 2366.6 60.6 A 4.878 4.878 0 0 0 2365.274 60.781 A 5.376 5.376 0 0 0 2363.6 61.6 Q 2362.2 62.6 2361.3 64.15 A 7.503 7.503 0 0 0 2361.272 64.198 A 6.367 6.367 0 0 0 2360.4 67.4 A 6.232 6.232 0 0 0 2360.549 68.8 A 4.22 4.22 0 0 0 2361.55 70.75 A 3.711 3.711 0 0 0 2363.205 71.802 Z M 3803.205 71.802 A 4.677 4.677 0 0 0 3804.6 72 A 4.878 4.878 0 0 0 3805.926 71.819 A 5.376 5.376 0 0 0 3807.6 71 Q 3809 70 3809.9 68.45 A 7.503 7.503 0 0 0 3809.928 68.402 A 6.367 6.367 0 0 0 3810.8 65.2 A 7.892 7.892 0 0 0 3810.799 65.091 Q 3810.771 63.067 3809.7 61.85 A 3.538 3.538 0 0 0 3807.869 60.748 A 5.143 5.143 0 0 0 3806.6 60.6 A 4.878 4.878 0 0 0 3805.274 60.781 A 5.376 5.376 0 0 0 3803.6 61.6 Q 3802.2 62.6 3801.3 64.15 A 7.503 7.503 0 0 0 3801.272 64.198 A 6.367 6.367 0 0 0 3800.4 67.4 A 6.232 6.232 0 0 0 3800.549 68.8 A 4.22 4.22 0 0 0 3801.55 70.75 A 3.711 3.711 0 0 0 3803.205 71.802 Z M 4403.205 71.802 A 4.677 4.677 0 0 0 4404.6 72 A 4.878 4.878 0 0 0 4405.926 71.819 A 5.376 5.376 0 0 0 4407.6 71 Q 4409 70 4409.9 68.45 A 7.503 7.503 0 0 0 4409.928 68.402 A 6.367 6.367 0 0 0 4410.8 65.2 A 7.892 7.892 0 0 0 4410.799 65.091 Q 4410.771 63.067 4409.7 61.85 A 3.538 3.538 0 0 0 4407.869 60.748 A 5.143 5.143 0 0 0 4406.6 60.6 A 4.878 4.878 0 0 0 4405.274 60.781 A 5.376 5.376 0 0 0 4403.6 61.6 Q 4402.2 62.6 4401.3 64.15 A 7.503 7.503 0 0 0 4401.272 64.198 A 6.367 6.367 0 0 0 4400.4 67.4 A 6.232 6.232 0 0 0 4400.549 68.8 A 4.22 4.22 0 0 0 4401.55 70.75 A 3.711 3.711 0 0 0 4403.205 71.802 Z M 2370.805 33.202 A 4.677 4.677 0 0 0 2372.2 33.4 A 4.878 4.878 0 0 0 2373.526 33.219 A 5.376 5.376 0 0 0 2375.2 32.4 Q 2376.6 31.4 2377.5 29.85 A 7.503 7.503 0 0 0 2377.528 29.802 A 6.367 6.367 0 0 0 2378.4 26.6 A 7.892 7.892 0 0 0 2378.399 26.491 Q 2378.371 24.467 2377.3 23.25 A 3.538 3.538 0 0 0 2375.469 22.148 A 5.143 5.143 0 0 0 2374.2 22 A 4.878 4.878 0 0 0 2372.874 22.181 A 5.376 5.376 0 0 0 2371.2 23 Q 2369.8 24 2368.9 25.55 A 7.503 7.503 0 0 0 2368.872 25.598 A 6.367 6.367 0 0 0 2368 28.8 A 6.232 6.232 0 0 0 2368.149 30.2 A 4.22 4.22 0 0 0 2369.15 32.15 A 3.711 3.711 0 0 0 2370.805 33.202 Z M 3810.805 33.202 A 4.677 4.677 0 0 0 3812.2 33.4 A 4.878 4.878 0 0 0 3813.526 33.219 A 5.376 5.376 0 0 0 3815.2 32.4 Q 3816.6 31.4 3817.5 29.85 A 7.503 7.503 0 0 0 3817.528 29.802 A 6.367 6.367 0 0 0 3818.4 26.6 A 7.892 7.892 0 0 0 3818.399 26.491 Q 3818.371 24.467 3817.3 23.25 A 3.538 3.538 0 0 0 3815.469 22.148 A 5.143 5.143 0 0 0 3814.2 22 A 4.878 4.878 0 0 0 3812.874 22.181 A 5.376 5.376 0 0 0 3811.2 23 Q 3809.8 24 3808.9 25.55 A 7.503 7.503 0 0 0 3808.872 25.598 A 6.367 6.367 0 0 0 3808 28.8 A 6.232 6.232 0 0 0 3808.149 30.2 A 4.22 4.22 0 0 0 3809.15 32.15 A 3.711 3.711 0 0 0 3810.805 33.202 Z" vector-effect="non-scaling-stroke"/></g></svg>
