<svg width="71.35" height="3.5" viewBox="0 0 71.35 3.5" xmlns="http://www.w3.org/2000/svg"><g id="svgGroup" stroke-linecap="round" fill-rule="evenodd" font-size="9pt" stroke="#000" stroke-width="0.25mm" fill="black" style="stroke:#000;stroke-width:0.25mm;fill:black"><path d="M 47.67 3.44 L 47.52 3.44 L 48.18 0.14 L 48.4 0.14 L 48.7 1.875 L 48.765 2.345 L 48.785 2.345 L 49.035 1.87 L 50.045 0.14 L 50.26 0.14 L 49.6 3.44 L 49.45 3.44 L 49.955 0.93 Q 49.97 0.855 49.988 0.777 L 50.023 0.623 Q 50.04 0.545 50.06 0.465 Q 50.08 0.385 50.1 0.31 L 50.08 0.31 Q 50.04 0.395 49.995 0.482 A 9.795 9.795 0 0 1 49.912 0.639 A 10.827 10.827 0 0 1 49.9 0.663 Q 49.85 0.755 49.79 0.86 L 48.815 2.535 L 48.665 2.535 L 48.39 0.855 Q 48.38 0.795 48.368 0.728 Q 48.355 0.66 48.345 0.59 Q 48.335 0.52 48.323 0.447 Q 48.31 0.375 48.3 0.31 L 48.28 0.31 A 5.277 5.277 0 0 1 48.246 0.508 A 5.831 5.831 0 0 1 48.245 0.515 Q 48.225 0.62 48.207 0.725 Q 48.19 0.83 48.17 0.93 L 47.67 3.44 Z M 14.985 3.44 L 14.755 3.44 L 14.905 0.14 L 15.05 0.14 L 14.925 2.74 Q 14.92 2.903 14.911 3.034 A 5.074 5.074 0 0 1 14.91 3.052 A 70.459 70.459 0 0 0 14.905 3.117 Q 14.899 3.209 14.895 3.265 L 14.89 3.34 L 14.91 3.34 Q 14.927 3.299 14.949 3.247 A 33.441 33.441 0 0 1 14.97 3.197 Q 15.005 3.115 15.042 3.025 Q 15.08 2.935 15.115 2.855 A 45.125 45.125 0 0 1 15.132 2.817 Q 15.148 2.78 15.16 2.753 A 12.431 12.431 0 0 1 15.17 2.73 L 15.93 1.105 L 16.105 1.105 L 16.27 2.39 Q 16.284 2.479 16.298 2.592 A 10.412 10.412 0 0 1 16.31 2.7 Q 16.33 2.88 16.35 3.048 A 7.626 7.626 0 0 1 16.359 3.127 Q 16.368 3.212 16.373 3.274 A 1.97 1.97 0 0 1 16.375 3.31 L 16.405 3.31 Q 16.415 3.272 16.428 3.223 A 9.675 9.675 0 0 0 16.44 3.175 A 4.841 4.841 0 0 1 16.461 3.093 A 5.613 5.613 0 0 1 16.485 3.007 A 43.717 43.717 0 0 0 16.521 2.88 A 37.841 37.841 0 0 0 16.532 2.84 A 25.445 25.445 0 0 0 16.548 2.784 Q 16.561 2.739 16.57 2.705 L 17.375 0.14 L 17.515 0.14 L 16.485 3.44 L 16.26 3.44 L 16.065 1.86 Q 16.045 1.715 16.028 1.545 A 169.604 169.604 0 0 1 16.019 1.464 Q 16.011 1.386 16.005 1.326 A 51.358 51.358 0 0 1 16 1.275 L 15.975 1.275 A 2.19 2.19 0 0 1 15.949 1.347 Q 15.919 1.427 15.874 1.535 A 7.464 7.464 0 0 1 15.867 1.55 A 8.242 8.242 0 0 1 15.796 1.714 A 6.703 6.703 0 0 1 15.725 1.865 L 14.985 3.44 Z M 17.7 3.44 L 17.55 3.44 L 18.21 0.14 L 18.37 0.14 L 19.26 2.58 L 19.49 3.23 L 19.51 3.23 Q 19.53 3.115 19.548 3.003 Q 19.565 2.89 19.585 2.778 Q 19.605 2.665 19.628 2.553 Q 19.65 2.44 19.67 2.33 L 20.1 0.14 L 20.25 0.14 L 19.59 3.44 L 19.43 3.44 L 18.54 1 L 18.31 0.35 L 18.29 0.35 Q 18.265 0.505 18.24 0.652 Q 18.215 0.8 18.188 0.947 Q 18.16 1.095 18.13 1.25 L 17.7 3.44 Z M 4.73 3.44 L 2.76 3.44 L 3.42 0.14 L 5.35 0.14 L 5.32 0.27 L 3.54 0.27 L 3.27 1.62 L 4.76 1.62 L 4.73 1.75 L 3.25 1.75 L 2.93 3.31 L 4.76 3.31 L 4.73 3.44 Z M 52.73 3.44 L 50.76 3.44 L 51.42 0.14 L 53.35 0.14 L 53.32 0.27 L 51.54 0.27 L 51.27 1.62 L 52.76 1.62 L 52.73 1.75 L 51.25 1.75 L 50.93 3.31 L 52.76 3.31 L 52.73 3.44 Z M 55.73 3.44 L 53.76 3.44 L 54.42 0.14 L 56.35 0.14 L 56.32 0.27 L 54.54 0.27 L 54.27 1.62 L 55.76 1.62 L 55.73 1.75 L 54.25 1.75 L 53.93 3.31 L 55.76 3.31 L 55.73 3.44 Z M 70.73 3.44 L 68.76 3.44 L 69.42 0.14 L 71.35 0.14 L 71.32 0.27 L 69.54 0.27 L 69.27 1.62 L 70.76 1.62 L 70.73 1.75 L 69.25 1.75 L 68.93 3.31 L 70.76 3.31 L 70.73 3.44 Z M 41.61 2.95 L 41.73 2.87 A 1.208 1.208 0 0 0 41.957 3.127 A 1.073 1.073 0 0 0 42.12 3.24 A 0.979 0.979 0 0 0 42.425 3.349 A 1.338 1.338 0 0 0 42.67 3.37 A 1.079 1.079 0 0 0 42.95 3.335 A 0.933 0.933 0 0 0 43.123 3.27 Q 43.325 3.17 43.442 2.988 A 0.737 0.737 0 0 0 43.554 2.671 A 0.938 0.938 0 0 0 43.56 2.56 A 0.717 0.717 0 0 0 43.536 2.37 A 0.571 0.571 0 0 0 43.443 2.178 A 0.928 0.928 0 0 0 43.244 1.983 A 1.155 1.155 0 0 0 43.13 1.91 L 42.69 1.65 Q 42.49 1.53 42.33 1.35 A 0.63 0.63 0 0 1 42.171 0.951 A 0.815 0.815 0 0 1 42.17 0.91 Q 42.17 0.69 42.285 0.5 Q 42.4 0.31 42.607 0.195 A 0.912 0.912 0 0 1 42.924 0.091 A 1.178 1.178 0 0 1 43.09 0.08 Q 43.39 0.08 43.618 0.21 A 1.236 1.236 0 0 1 43.808 0.343 A 0.935 0.935 0 0 1 43.97 0.52 L 43.86 0.61 A 1.033 1.033 0 0 0 43.642 0.398 A 1.271 1.271 0 0 0 43.532 0.328 A 0.865 0.865 0 0 0 43.214 0.22 A 1.116 1.116 0 0 0 43.06 0.21 A 0.852 0.852 0 0 0 42.862 0.232 A 0.666 0.666 0 0 0 42.67 0.31 Q 42.505 0.41 42.412 0.567 A 0.681 0.681 0 0 0 42.338 0.747 A 0.587 0.587 0 0 0 42.32 0.89 A 0.692 0.692 0 0 0 42.339 1.057 A 0.486 0.486 0 0 0 42.455 1.275 Q 42.59 1.42 42.76 1.52 L 43.19 1.77 Q 43.345 1.86 43.463 1.97 Q 43.58 2.08 43.645 2.22 A 0.693 0.693 0 0 1 43.702 2.42 A 0.892 0.892 0 0 1 43.71 2.54 Q 43.71 2.83 43.57 3.045 Q 43.43 3.26 43.19 3.38 A 1.142 1.142 0 0 1 42.787 3.493 A 1.403 1.403 0 0 1 42.65 3.5 Q 42.3 3.5 42.037 3.355 Q 41.775 3.21 41.61 2.95 Z M 65.61 2.95 L 65.73 2.87 A 1.208 1.208 0 0 0 65.957 3.127 A 1.073 1.073 0 0 0 66.12 3.24 A 0.979 0.979 0 0 0 66.425 3.349 A 1.338 1.338 0 0 0 66.67 3.37 A 1.079 1.079 0 0 0 66.95 3.335 A 0.933 0.933 0 0 0 67.123 3.27 Q 67.325 3.17 67.443 2.988 A 0.737 0.737 0 0 0 67.554 2.671 A 0.938 0.938 0 0 0 67.56 2.56 A 0.717 0.717 0 0 0 67.536 2.37 A 0.571 0.571 0 0 0 67.443 2.178 A 0.928 0.928 0 0 0 67.244 1.983 A 1.155 1.155 0 0 0 67.13 1.91 L 66.69 1.65 Q 66.49 1.53 66.33 1.35 A 0.63 0.63 0 0 1 66.171 0.951 A 0.815 0.815 0 0 1 66.17 0.91 Q 66.17 0.69 66.285 0.5 Q 66.4 0.31 66.608 0.195 A 0.912 0.912 0 0 1 66.924 0.091 A 1.178 1.178 0 0 1 67.09 0.08 Q 67.39 0.08 67.618 0.21 A 1.236 1.236 0 0 1 67.808 0.343 A 0.935 0.935 0 0 1 67.97 0.52 L 67.86 0.61 A 1.033 1.033 0 0 0 67.642 0.398 A 1.271 1.271 0 0 0 67.532 0.328 A 0.865 0.865 0 0 0 67.214 0.22 A 1.116 1.116 0 0 0 67.06 0.21 A 0.852 0.852 0 0 0 66.862 0.232 A 0.666 0.666 0 0 0 66.67 0.31 Q 66.505 0.41 66.413 0.567 A 0.681 0.681 0 0 0 66.338 0.747 A 0.587 0.587 0 0 0 66.32 0.89 A 0.692 0.692 0 0 0 66.339 1.057 A 0.486 0.486 0 0 0 66.455 1.275 Q 66.59 1.42 66.76 1.52 L 67.19 1.77 Q 67.345 1.86 67.463 1.97 Q 67.58 2.08 67.645 2.22 A 0.693 0.693 0 0 1 67.702 2.42 A 0.892 0.892 0 0 1 67.71 2.54 Q 67.71 2.83 67.57 3.045 Q 67.43 3.26 67.19 3.38 A 1.142 1.142 0 0 1 66.787 3.493 A 1.403 1.403 0 0 1 66.65 3.5 Q 66.3 3.5 66.038 3.355 Q 65.775 3.21 65.61 2.95 Z M 62.49 3.44 L 62.33 3.44 L 64.2 0.14 L 64.35 0.14 L 64.81 3.44 L 64.66 3.44 L 64.4 1.46 Q 64.365 1.18 64.33 0.88 A 21.168 21.168 0 0 0 64.275 0.444 A 18.668 18.668 0 0 0 64.255 0.305 L 64.23 0.305 A 48.418 48.418 0 0 0 63.992 0.735 A 42.397 42.397 0 0 0 63.917 0.872 A 745.936 745.936 0 0 1 63.689 1.294 A 835.397 835.397 0 0 1 63.61 1.44 L 62.49 3.44 Z M 27.65 3.44 L 27.48 3.44 L 27.12 0.14 L 27.26 0.14 L 27.47 2.135 Q 27.5 2.41 27.53 2.69 L 27.59 3.25 L 27.61 3.25 A 45.845 45.845 0 0 1 27.795 2.904 A 47.475 47.475 0 0 1 27.807 2.88 Q 27.91 2.69 28.013 2.503 A 144.4 144.4 0 0 0 28.162 2.228 A 129.591 129.591 0 0 0 28.21 2.14 L 29.3 0.14 L 29.455 0.14 L 27.65 3.44 Z M 34.49 3.44 L 32.62 3.44 L 32.65 3.31 L 33.5 3.31 L 34.11 0.27 L 33.25 0.27 L 33.28 0.14 L 35.16 0.14 L 35.13 0.27 L 34.26 0.27 L 33.65 3.31 L 34.52 3.31 L 34.49 3.44 Z M 6.63 3.44 L 6.48 3.44 L 7.11 0.28 L 5.94 0.28 L 5.97 0.14 L 8.46 0.14 L 8.43 0.28 L 7.26 0.28 L 6.63 3.44 Z M 21.63 3.44 L 21.48 3.44 L 22.11 0.28 L 20.94 0.28 L 20.97 0.14 L 23.46 0.14 L 23.43 0.28 L 22.26 0.28 L 21.63 3.44 Z M 57.63 3.44 L 57.48 3.44 L 58.11 0.28 L 56.94 0.28 L 56.97 0.14 L 59.46 0.14 L 59.43 0.28 L 58.26 0.28 L 57.63 3.44 Z M 60.59 3.44 L 59.64 3.44 L 60.3 0.14 L 61.08 0.14 Q 61.32 0.14 61.498 0.187 A 0.962 0.962 0 0 1 61.615 0.225 A 0.776 0.776 0 0 1 61.773 0.31 A 0.577 0.577 0 0 1 61.928 0.47 A 0.644 0.644 0 0 1 62.021 0.725 A 0.842 0.842 0 0 1 62.03 0.85 Q 62.03 1.1 61.908 1.278 A 0.93 0.93 0 0 1 61.697 1.498 A 0.864 0.864 0 0 1 61.61 1.555 A 1.237 1.237 0 0 1 61.463 1.627 Q 61.386 1.658 61.313 1.674 A 0.719 0.719 0 0 1 61.28 1.68 L 61.28 1.7 Q 61.44 1.735 61.585 1.823 Q 61.73 1.91 61.82 2.055 A 0.582 0.582 0 0 1 61.895 2.249 A 0.818 0.818 0 0 1 61.91 2.41 Q 61.91 2.747 61.757 2.97 A 0.769 0.769 0 0 1 61.745 2.988 A 0.937 0.937 0 0 1 61.415 3.268 A 1.2 1.2 0 0 1 61.282 3.327 A 1.677 1.677 0 0 1 60.939 3.415 Q 60.78 3.439 60.602 3.44 A 2.729 2.729 0 0 1 60.59 3.44 Z M 1.91 3.44 L 0 3.44 L 0.66 0.14 L 0.81 0.14 L 0.18 3.31 L 1.94 3.31 L 1.91 3.44 Z M 9.3 3.44 L 8.52 3.44 L 9.18 0.14 L 9.77 0.14 A 2.135 2.135 0 0 1 10.146 0.171 Q 10.354 0.208 10.518 0.291 A 0.979 0.979 0 0 1 10.788 0.49 A 1.182 1.182 0 0 1 11.089 1.088 A 1.703 1.703 0 0 1 11.12 1.42 A 2.722 2.722 0 0 1 11.061 1.997 A 2.414 2.414 0 0 1 11.005 2.207 A 1.932 1.932 0 0 1 10.775 2.697 A 1.757 1.757 0 0 1 10.663 2.85 Q 10.435 3.125 10.095 3.283 A 1.658 1.658 0 0 1 9.663 3.412 A 2.253 2.253 0 0 1 9.3 3.44 Z M 36.3 3.44 L 35.52 3.44 L 36.18 0.14 L 36.77 0.14 A 2.135 2.135 0 0 1 37.146 0.171 Q 37.354 0.208 37.518 0.291 A 0.979 0.979 0 0 1 37.788 0.49 A 1.182 1.182 0 0 1 38.089 1.088 A 1.703 1.703 0 0 1 38.12 1.42 A 2.722 2.722 0 0 1 38.061 1.997 A 2.414 2.414 0 0 1 38.005 2.207 A 1.932 1.932 0 0 1 37.775 2.697 A 1.757 1.757 0 0 1 37.663 2.85 Q 37.435 3.125 37.095 3.283 A 1.658 1.658 0 0 1 36.663 3.412 A 2.253 2.253 0 0 1 36.3 3.44 Z M 12.38 3.469 A 1.116 1.116 0 0 0 12.65 3.5 A 1.318 1.318 0 0 0 12.725 3.498 A 1.102 1.102 0 0 0 13.185 3.373 Q 13.425 3.245 13.608 3.025 A 2.029 2.029 0 0 0 13.652 2.969 A 2.195 2.195 0 0 0 13.915 2.527 Q 14.04 2.25 14.105 1.948 Q 14.17 1.645 14.17 1.35 A 2.001 2.001 0 0 0 14.15 1.063 A 1.526 1.526 0 0 0 14.05 0.693 A 1.218 1.218 0 0 0 14.001 0.589 A 0.981 0.981 0 0 0 13.7 0.242 A 0.856 0.856 0 0 0 13.41 0.111 A 1.116 1.116 0 0 0 13.14 0.08 A 1.318 1.318 0 0 0 13.065 0.082 A 1.102 1.102 0 0 0 12.605 0.207 Q 12.365 0.335 12.183 0.555 A 2.029 2.029 0 0 0 12.138 0.611 A 2.195 2.195 0 0 0 11.875 1.053 Q 11.75 1.33 11.685 1.632 Q 11.62 1.935 11.62 2.23 A 2.001 2.001 0 0 0 11.64 2.517 A 1.526 1.526 0 0 0 11.74 2.887 A 1.218 1.218 0 0 0 11.789 2.991 A 0.981 0.981 0 0 0 12.09 3.338 A 0.856 0.856 0 0 0 12.38 3.469 Z M 24.38 3.469 A 1.116 1.116 0 0 0 24.65 3.5 A 1.318 1.318 0 0 0 24.725 3.498 A 1.102 1.102 0 0 0 25.185 3.373 Q 25.425 3.245 25.608 3.025 A 2.029 2.029 0 0 0 25.652 2.969 A 2.195 2.195 0 0 0 25.915 2.527 Q 26.04 2.25 26.105 1.948 Q 26.17 1.645 26.17 1.35 A 2.001 2.001 0 0 0 26.15 1.063 A 1.526 1.526 0 0 0 26.05 0.693 A 1.218 1.218 0 0 0 26.001 0.589 A 0.981 0.981 0 0 0 25.7 0.242 A 0.856 0.856 0 0 0 25.41 0.111 A 1.116 1.116 0 0 0 25.14 0.08 A 1.318 1.318 0 0 0 25.065 0.082 A 1.102 1.102 0 0 0 24.605 0.207 Q 24.365 0.335 24.183 0.555 A 2.029 2.029 0 0 0 24.138 0.611 A 2.195 2.195 0 0 0 23.875 1.053 Q 23.75 1.33 23.685 1.632 Q 23.62 1.935 23.62 2.23 A 2.001 2.001 0 0 0 23.64 2.517 A 1.526 1.526 0 0 0 23.74 2.887 A 1.218 1.218 0 0 0 23.789 2.991 A 0.981 0.981 0 0 0 24.09 3.338 A 0.856 0.856 0 0 0 24.38 3.469 Z M 30.38 3.469 A 1.116 1.116 0 0 0 30.65 3.5 A 1.318 1.318 0 0 0 30.725 3.498 A 1.102 1.102 0 0 0 31.185 3.373 Q 31.425 3.245 31.607 3.025 A 2.029 2.029 0 0 0 31.652 2.969 A 2.195 2.195 0 0 0 31.915 2.527 Q 32.04 2.25 32.105 1.948 Q 32.17 1.645 32.17 1.35 A 2.001 2.001 0 0 0 32.15 1.063 A 1.526 1.526 0 0 0 32.05 0.693 A 1.218 1.218 0 0 0 32.001 0.589 A 0.981 0.981 0 0 0 31.7 0.242 A 0.856 0.856 0 0 0 31.41 0.111 A 1.116 1.116 0 0 0 31.14 0.08 A 1.318 1.318 0 0 0 31.065 0.082 A 1.102 1.102 0 0 0 30.605 0.207 Q 30.365 0.335 30.183 0.555 A 2.029 2.029 0 0 0 30.138 0.611 A 2.195 2.195 0 0 0 29.875 1.053 Q 29.75 1.33 29.685 1.632 Q 29.62 1.935 29.62 2.23 A 2.001 2.001 0 0 0 29.64 2.517 A 1.526 1.526 0 0 0 29.74 2.887 A 1.218 1.218 0 0 0 29.789 2.991 A 0.981 0.981 0 0 0 30.09 3.338 A 0.856 0.856 0 0 0 30.38 3.469 Z M 9.3 0.27 L 8.69 3.31 L 9.31 3.31 Q 9.85 3.31 10.22 3.06 Q 10.59 2.81 10.78 2.383 Q 10.97 1.955 10.97 1.43 A 1.48 1.48 0 0 0 10.926 1.061 A 1.071 1.071 0 0 0 10.672 0.59 Q 10.375 0.27 9.76 0.27 L 9.3 0.27 Z M 36.3 0.27 L 35.69 3.31 L 36.31 3.31 Q 36.85 3.31 37.22 3.06 Q 37.59 2.81 37.78 2.383 Q 37.97 1.955 37.97 1.43 A 1.48 1.48 0 0 0 37.926 1.061 A 1.071 1.071 0 0 0 37.672 0.59 Q 37.375 0.27 36.76 0.27 L 36.3 0.27 Z M 12.66 3.37 A 0.988 0.988 0 0 0 12.994 3.315 A 0.914 0.914 0 0 0 13.14 3.248 Q 13.355 3.125 13.52 2.918 A 1.982 1.982 0 0 0 13.779 2.486 A 2.219 2.219 0 0 0 13.795 2.45 Q 13.905 2.19 13.963 1.91 A 2.794 2.794 0 0 0 14.015 1.518 A 2.432 2.432 0 0 0 14.02 1.37 Q 14.02 1.03 13.923 0.768 Q 13.825 0.505 13.628 0.357 A 0.724 0.724 0 0 0 13.336 0.23 A 1.021 1.021 0 0 0 13.13 0.21 A 0.988 0.988 0 0 0 12.796 0.265 A 0.914 0.914 0 0 0 12.65 0.332 Q 12.435 0.455 12.27 0.663 A 1.982 1.982 0 0 0 12.011 1.094 A 2.219 2.219 0 0 0 11.995 1.13 Q 11.885 1.39 11.827 1.67 A 2.794 2.794 0 0 0 11.775 2.062 A 2.432 2.432 0 0 0 11.77 2.21 Q 11.77 2.55 11.868 2.813 Q 11.965 3.075 12.163 3.223 A 0.724 0.724 0 0 0 12.454 3.35 A 1.021 1.021 0 0 0 12.66 3.37 Z M 24.66 3.37 A 0.988 0.988 0 0 0 24.994 3.315 A 0.914 0.914 0 0 0 25.14 3.248 Q 25.355 3.125 25.52 2.918 A 1.982 1.982 0 0 0 25.779 2.486 A 2.219 2.219 0 0 0 25.795 2.45 Q 25.905 2.19 25.963 1.91 A 2.794 2.794 0 0 0 26.015 1.518 A 2.432 2.432 0 0 0 26.02 1.37 Q 26.02 1.03 25.923 0.768 Q 25.825 0.505 25.628 0.357 A 0.724 0.724 0 0 0 25.336 0.23 A 1.021 1.021 0 0 0 25.13 0.21 A 0.988 0.988 0 0 0 24.796 0.265 A 0.914 0.914 0 0 0 24.65 0.332 Q 24.435 0.455 24.27 0.663 A 1.982 1.982 0 0 0 24.011 1.094 A 2.219 2.219 0 0 0 23.995 1.13 Q 23.885 1.39 23.828 1.67 A 2.794 2.794 0 0 0 23.775 2.062 A 2.432 2.432 0 0 0 23.77 2.21 Q 23.77 2.55 23.868 2.813 Q 23.965 3.075 24.163 3.223 A 0.724 0.724 0 0 0 24.454 3.35 A 1.021 1.021 0 0 0 24.66 3.37 Z M 30.66 3.37 A 0.988 0.988 0 0 0 30.994 3.315 A 0.914 0.914 0 0 0 31.14 3.248 Q 31.355 3.125 31.52 2.918 A 1.982 1.982 0 0 0 31.779 2.486 A 2.219 2.219 0 0 0 31.795 2.45 Q 31.905 2.19 31.963 1.91 A 2.794 2.794 0 0 0 32.015 1.518 A 2.432 2.432 0 0 0 32.02 1.37 Q 32.02 1.03 31.923 0.768 Q 31.825 0.505 31.628 0.357 A 0.724 0.724 0 0 0 31.336 0.23 A 1.021 1.021 0 0 0 31.13 0.21 A 0.988 0.988 0 0 0 30.796 0.265 A 0.914 0.914 0 0 0 30.65 0.332 Q 30.435 0.455 30.27 0.663 A 1.982 1.982 0 0 0 30.011 1.094 A 2.219 2.219 0 0 0 29.995 1.13 Q 29.885 1.39 29.828 1.67 A 2.794 2.794 0 0 0 29.775 2.062 A 2.432 2.432 0 0 0 29.77 2.21 Q 29.77 2.55 29.868 2.813 Q 29.965 3.075 30.163 3.223 A 0.724 0.724 0 0 0 30.454 3.35 A 1.021 1.021 0 0 0 30.66 3.37 Z M 60.13 1.75 L 59.81 3.31 L 60.5 3.31 A 2.731 2.731 0 0 0 60.821 3.292 Q 61.004 3.27 61.16 3.223 A 1.054 1.054 0 0 0 61.385 3.126 A 0.791 0.791 0 0 0 61.602 2.94 A 0.68 0.68 0 0 0 61.732 2.673 Q 61.756 2.574 61.76 2.458 A 1.261 1.261 0 0 0 61.76 2.425 A 0.581 0.581 0 0 0 61.568 1.986 A 0.79 0.79 0 0 0 61.517 1.943 Q 61.275 1.75 60.83 1.75 L 60.13 1.75 Z M 60.42 0.27 L 60.15 1.62 L 60.74 1.62 A 2.44 2.44 0 0 0 61.038 1.603 Q 61.378 1.561 61.58 1.416 A 0.751 0.751 0 0 0 61.595 1.405 A 0.773 0.773 0 0 0 61.771 1.224 A 0.632 0.632 0 0 0 61.88 0.86 Q 61.88 0.58 61.685 0.425 A 0.545 0.545 0 0 0 61.534 0.343 Q 61.381 0.286 61.144 0.274 A 2.688 2.688 0 0 0 61 0.27 L 60.42 0.27 Z M 40.01 1.47 L 39.88 1.47 L 40.01 0.4 L 40.1 0 L 40.395 0 L 40.32 0.4 L 40.01 1.47 Z M 64.555 2.25 L 63.12 2.25 L 63.16 2.12 L 64.56 2.12 L 64.555 2.25 Z" vector-effect="non-scaling-stroke"/></g></svg>
