<svg width="113.28" height="6.84" viewBox="0 0 113.28 6.84" xmlns="http://www.w3.org/2000/svg"><g id="svgGroup" stroke-linecap="round" fill-rule="evenodd" font-size="9pt" stroke="#000" stroke-width="0.25mm" fill="black" style="stroke:#000;stroke-width:0.25mm;fill:black"><path d="M 18.68 6.72 L 18.38 6.72 L 19.7 0.12 L 20 0.12 L 19.4 3.08 L 22.96 3.08 L 23.56 0.12 L 23.86 0.12 L 22.54 6.72 L 22.24 6.72 L 22.92 3.34 L 19.36 3.34 L 18.68 6.72 Z M 40.8 6.72 L 36.86 6.72 L 38.18 0.12 L 42.04 0.12 L 41.98 0.38 L 38.42 0.38 L 37.88 3.08 L 40.86 3.08 L 40.8 3.34 L 37.84 3.34 L 37.2 6.46 L 40.86 6.46 L 40.8 6.72 Z M 60.48 5.8 L 60.7 5.64 A 2.53 2.53 0 0 0 60.881 5.851 Q 60.979 5.954 61.097 6.058 A 4.028 4.028 0 0 0 61.105 6.065 A 1.861 1.861 0 0 0 61.401 6.275 A 2.538 2.538 0 0 0 61.72 6.43 Q 62.066 6.57 62.535 6.579 A 3.377 3.377 0 0 0 62.6 6.58 A 2.582 2.582 0 0 0 63.259 6.498 A 2.28 2.28 0 0 0 63.575 6.39 A 1.788 1.788 0 0 0 64.081 6.07 A 1.64 1.64 0 0 0 64.29 5.84 A 1.338 1.338 0 0 0 64.541 5.225 A 1.783 1.783 0 0 0 64.56 4.96 A 1.324 1.324 0 0 0 64.49 4.523 A 1.18 1.18 0 0 0 64.325 4.21 A 1.236 1.236 0 0 0 64.029 3.928 Q 63.891 3.832 63.715 3.755 A 2.418 2.418 0 0 0 63.59 3.705 A 2.772 2.772 0 0 0 63.174 3.59 Q 62.957 3.546 62.701 3.523 A 6.492 6.492 0 0 0 62.28 3.5 L 62.32 3.24 A 5.817 5.817 0 0 0 62.887 3.214 Q 63.171 3.186 63.412 3.128 A 2.641 2.641 0 0 0 63.76 3.02 Q 64.232 2.835 64.498 2.539 A 1.347 1.347 0 0 0 64.59 2.425 Q 64.86 2.05 64.86 1.6 Q 64.86 1.04 64.485 0.75 A 1.343 1.343 0 0 0 63.952 0.505 Q 63.759 0.461 63.535 0.46 A 2.389 2.389 0 0 0 63.52 0.46 A 2.613 2.613 0 0 0 62.939 0.522 A 2.12 2.12 0 0 0 62.485 0.68 A 3.376 3.376 0 0 0 61.772 1.139 A 3.124 3.124 0 0 0 61.68 1.22 L 61.5 1.02 A 3.073 3.073 0 0 1 61.921 0.7 A 4.191 4.191 0 0 1 62.375 0.45 Q 62.9 0.2 63.54 0.2 Q 64 0.2 64.36 0.35 A 1.326 1.326 0 0 1 64.768 0.612 A 1.24 1.24 0 0 1 64.93 0.8 A 1.137 1.137 0 0 1 65.113 1.242 A 1.567 1.567 0 0 1 65.14 1.54 Q 65.14 2.24 64.695 2.725 Q 64.25 3.21 63.33 3.37 L 63.33 3.4 A 2.906 2.906 0 0 1 63.796 3.513 Q 64.037 3.594 64.224 3.716 A 1.445 1.445 0 0 1 64.455 3.9 A 1.275 1.275 0 0 1 64.823 4.654 A 1.78 1.78 0 0 1 64.84 4.9 A 2.192 2.192 0 0 1 64.787 5.396 A 1.611 1.611 0 0 1 64.54 5.96 A 1.886 1.886 0 0 1 63.777 6.594 A 2.25 2.25 0 0 1 63.73 6.615 A 2.637 2.637 0 0 1 62.977 6.817 A 3.316 3.316 0 0 1 62.58 6.84 A 3.285 3.285 0 0 1 62.145 6.813 Q 61.922 6.783 61.732 6.72 A 1.812 1.812 0 0 1 61.61 6.675 A 2.753 2.753 0 0 1 61.231 6.485 A 2.126 2.126 0 0 1 60.935 6.27 A 4.164 4.164 0 0 1 60.698 6.047 Q 60.576 5.922 60.48 5.8 Z M 84.9 4.1 L 85.7 0.12 L 86 0.12 L 85.22 4.02 Q 85.16 4.26 85.14 4.46 A 4.029 4.029 0 0 0 85.122 4.726 A 3.413 3.413 0 0 0 85.12 4.84 A 2.673 2.673 0 0 0 85.166 5.35 Q 85.223 5.647 85.354 5.879 A 1.416 1.416 0 0 0 85.525 6.12 Q 85.909 6.557 86.641 6.579 A 2.615 2.615 0 0 0 86.72 6.58 Q 87.15 6.58 87.545 6.36 Q 87.903 6.161 88.191 5.735 A 2.992 2.992 0 0 0 88.25 5.645 A 2.842 2.842 0 0 0 88.477 5.191 Q 88.57 4.96 88.641 4.685 A 5.841 5.841 0 0 0 88.72 4.34 L 89.56 0.12 L 89.86 0.12 L 89 4.42 A 5.673 5.673 0 0 1 88.848 5.019 Q 88.756 5.311 88.638 5.549 A 2.647 2.647 0 0 1 88.465 5.85 A 2.627 2.627 0 0 1 88.14 6.25 A 1.883 1.883 0 0 1 87.645 6.61 Q 87.18 6.84 86.68 6.84 A 2.416 2.416 0 0 1 86.115 6.778 A 1.625 1.625 0 0 1 85.315 6.335 A 1.654 1.654 0 0 1 84.902 5.593 Q 84.831 5.332 84.822 5.023 A 3.221 3.221 0 0 1 84.82 4.92 A 4.066 4.066 0 0 1 84.82 4.917 A 3.722 3.722 0 0 1 84.84 4.53 A 5.99 5.99 0 0 1 84.863 4.341 Q 84.879 4.228 84.9 4.1 Z M 72.56 5.74 L 72.8 5.58 Q 73.12 6.06 73.58 6.32 A 1.958 1.958 0 0 0 74.19 6.537 A 2.675 2.675 0 0 0 74.68 6.58 Q 75.18 6.58 75.585 6.38 Q 75.99 6.18 76.225 5.815 A 1.474 1.474 0 0 0 76.447 5.183 A 1.876 1.876 0 0 0 76.46 4.96 A 1.435 1.435 0 0 0 76.412 4.58 A 1.142 1.142 0 0 0 76.225 4.195 A 1.857 1.857 0 0 0 75.829 3.807 A 2.31 2.31 0 0 0 75.6 3.66 L 74.72 3.14 Q 74.32 2.9 74 2.54 A 1.26 1.26 0 0 1 73.682 1.742 A 1.63 1.63 0 0 1 73.68 1.66 Q 73.68 1.22 73.91 0.84 Q 74.14 0.46 74.555 0.23 A 1.823 1.823 0 0 1 75.188 0.023 A 2.357 2.357 0 0 1 75.52 0 A 2.35 2.35 0 0 1 76.084 0.065 A 1.902 1.902 0 0 1 76.575 0.26 Q 77.03 0.52 77.28 0.88 L 77.06 1.06 A 2.065 2.065 0 0 0 76.623 0.637 A 2.541 2.541 0 0 0 76.405 0.495 A 1.731 1.731 0 0 0 75.769 0.281 A 2.233 2.233 0 0 0 75.46 0.26 A 1.704 1.704 0 0 0 75.064 0.304 A 1.332 1.332 0 0 0 74.68 0.46 A 1.487 1.487 0 0 0 74.241 0.859 A 1.433 1.433 0 0 0 74.165 0.975 A 1.361 1.361 0 0 0 74.015 1.334 A 1.173 1.173 0 0 0 73.98 1.62 A 1.384 1.384 0 0 0 74.018 1.953 A 0.971 0.971 0 0 0 74.25 2.39 Q 74.52 2.68 74.86 2.88 L 75.72 3.38 A 3.154 3.154 0 0 1 76.103 3.64 A 2.693 2.693 0 0 1 76.265 3.78 Q 76.5 4 76.63 4.28 A 1.386 1.386 0 0 1 76.744 4.679 A 1.784 1.784 0 0 1 76.76 4.92 Q 76.76 5.5 76.48 5.93 Q 76.2 6.36 75.72 6.6 A 2.284 2.284 0 0 1 74.915 6.827 A 2.805 2.805 0 0 1 74.64 6.84 A 2.857 2.857 0 0 1 74.003 6.772 A 2.24 2.24 0 0 1 73.415 6.55 Q 72.89 6.26 72.56 5.74 Z M 108.56 5.74 L 108.8 5.58 Q 109.12 6.06 109.58 6.32 A 1.958 1.958 0 0 0 110.19 6.537 A 2.675 2.675 0 0 0 110.68 6.58 Q 111.18 6.58 111.585 6.38 Q 111.99 6.18 112.225 5.815 A 1.474 1.474 0 0 0 112.447 5.183 A 1.876 1.876 0 0 0 112.46 4.96 A 1.435 1.435 0 0 0 112.412 4.58 A 1.142 1.142 0 0 0 112.225 4.195 A 1.857 1.857 0 0 0 111.829 3.807 A 2.31 2.31 0 0 0 111.6 3.66 L 110.72 3.14 Q 110.32 2.9 110 2.54 A 1.26 1.26 0 0 1 109.682 1.742 A 1.63 1.63 0 0 1 109.68 1.66 Q 109.68 1.22 109.91 0.84 Q 110.14 0.46 110.555 0.23 A 1.823 1.823 0 0 1 111.188 0.023 A 2.357 2.357 0 0 1 111.52 0 A 2.35 2.35 0 0 1 112.084 0.065 A 1.902 1.902 0 0 1 112.575 0.26 Q 113.03 0.52 113.28 0.88 L 113.06 1.06 A 2.065 2.065 0 0 0 112.623 0.637 A 2.541 2.541 0 0 0 112.405 0.495 A 1.731 1.731 0 0 0 111.769 0.281 A 2.233 2.233 0 0 0 111.46 0.26 A 1.704 1.704 0 0 0 111.064 0.304 A 1.332 1.332 0 0 0 110.68 0.46 A 1.487 1.487 0 0 0 110.241 0.859 A 1.433 1.433 0 0 0 110.165 0.975 A 1.361 1.361 0 0 0 110.015 1.334 A 1.173 1.173 0 0 0 109.98 1.62 A 1.384 1.384 0 0 0 110.018 1.953 A 0.971 0.971 0 0 0 110.25 2.39 Q 110.52 2.68 110.86 2.88 L 111.72 3.38 A 3.154 3.154 0 0 1 112.103 3.64 A 2.693 2.693 0 0 1 112.265 3.78 Q 112.5 4 112.63 4.28 A 1.386 1.386 0 0 1 112.744 4.679 A 1.784 1.784 0 0 1 112.76 4.92 Q 112.76 5.5 112.48 5.93 Q 112.2 6.36 111.72 6.6 A 2.284 2.284 0 0 1 110.915 6.827 A 2.805 2.805 0 0 1 110.64 6.84 A 2.857 2.857 0 0 1 110.003 6.772 A 2.24 2.24 0 0 1 109.415 6.55 Q 108.89 6.26 108.56 5.74 Z M 0.32 6.72 L 0 6.72 L 3.74 0.12 L 4.04 0.12 L 4.96 6.72 L 4.66 6.72 L 4.14 2.76 Q 4.07 2.2 4 1.6 Q 3.93 1 3.85 0.45 L 3.8 0.45 A 96.825 96.825 0 0 0 3.325 1.31 A 84.872 84.872 0 0 0 3.175 1.585 A 1490.936 1490.936 0 0 1 2.718 2.428 A 1680.708 1680.708 0 0 1 2.56 2.72 L 0.32 6.72 Z M 32.64 6.72 L 32.3 6.72 L 31.58 0.12 L 31.86 0.12 L 32.28 4.11 Q 32.34 4.66 32.4 5.22 L 32.52 6.34 L 32.56 6.34 A 91.694 91.694 0 0 1 32.929 5.647 A 100.85 100.85 0 0 1 32.955 5.6 Q 33.16 5.22 33.365 4.845 A 288.795 288.795 0 0 0 33.664 4.297 A 259.187 259.187 0 0 0 33.76 4.12 L 35.94 0.12 L 36.25 0.12 L 32.64 6.72 Z M 28.32 6.72 L 24.58 6.72 L 24.64 6.46 L 26.34 6.46 L 27.56 0.38 L 25.84 0.38 L 25.9 0.12 L 29.66 0.12 L 29.6 0.38 L 27.86 0.38 L 26.64 6.46 L 28.38 6.46 L 28.32 6.72 Z M 100.32 6.72 L 96.58 6.72 L 96.64 6.46 L 98.34 6.46 L 99.56 0.38 L 97.84 0.38 L 97.9 0.12 L 101.66 0.12 L 101.6 0.38 L 99.86 0.38 L 98.64 6.46 L 100.38 6.46 L 100.32 6.72 Z M 17.76 0.92 L 17.52 1.08 Q 17.33 0.72 17.01 0.49 A 1.202 1.202 0 0 0 16.519 0.286 A 1.649 1.649 0 0 0 16.22 0.26 A 2.419 2.419 0 0 0 15.554 0.349 A 2.121 2.121 0 0 0 15.17 0.5 Q 14.7 0.74 14.335 1.155 Q 13.97 1.57 13.72 2.08 Q 13.47 2.59 13.345 3.14 A 5.014 5.014 0 0 0 13.232 3.877 A 4.327 4.327 0 0 0 13.22 4.2 A 3.876 3.876 0 0 0 13.276 4.875 A 3.081 3.081 0 0 0 13.42 5.41 A 1.948 1.948 0 0 0 13.721 5.953 A 1.729 1.729 0 0 0 14.045 6.265 A 1.54 1.54 0 0 0 14.614 6.523 Q 14.832 6.575 15.087 6.58 A 2.788 2.788 0 0 0 15.14 6.58 Q 15.61 6.58 16 6.405 A 3.092 3.092 0 0 0 16.527 6.101 A 3.744 3.744 0 0 0 16.76 5.92 L 16.94 6.12 A 4.31 4.31 0 0 1 16.572 6.392 A 3.622 3.622 0 0 1 16.38 6.51 Q 16.1 6.67 15.79 6.755 Q 15.48 6.84 15.12 6.84 Q 14.38 6.84 13.89 6.5 A 2.029 2.029 0 0 1 13.176 5.614 A 2.44 2.44 0 0 1 13.16 5.575 Q 12.92 4.99 12.92 4.26 A 4.979 4.979 0 0 1 13.046 3.16 A 5.548 5.548 0 0 1 13.065 3.08 Q 13.21 2.48 13.485 1.93 Q 13.76 1.38 14.165 0.945 Q 14.57 0.51 15.09 0.255 Q 15.61 0 16.24 0 A 1.914 1.914 0 0 1 16.66 0.044 A 1.36 1.36 0 0 1 17.17 0.27 Q 17.54 0.54 17.76 0.92 Z M 80.6 6.72 L 80.3 6.72 L 81.56 0.4 L 79.22 0.4 L 79.28 0.12 L 84.26 0.12 L 84.2 0.4 L 81.86 0.4 L 80.6 6.72 Z M 43.94 6.72 L 42.38 6.72 L 43.7 0.12 L 44.88 0.12 A 4.27 4.27 0 0 1 45.631 0.182 Q 46.049 0.257 46.375 0.422 A 1.958 1.958 0 0 1 46.915 0.82 A 2.364 2.364 0 0 1 47.518 2.016 A 3.406 3.406 0 0 1 47.58 2.68 A 5.444 5.444 0 0 1 47.461 3.833 A 4.828 4.828 0 0 1 47.35 4.255 A 3.864 3.864 0 0 1 46.891 5.235 A 3.515 3.515 0 0 1 46.665 5.54 Q 46.21 6.09 45.53 6.405 A 3.316 3.316 0 0 1 44.667 6.664 A 4.505 4.505 0 0 1 43.94 6.72 Z M 91.94 6.72 L 90.38 6.72 L 91.7 0.12 L 92.88 0.12 A 4.27 4.27 0 0 1 93.631 0.182 Q 94.049 0.257 94.375 0.422 A 1.958 1.958 0 0 1 94.915 0.82 A 2.364 2.364 0 0 1 95.518 2.016 A 3.406 3.406 0 0 1 95.58 2.68 A 5.444 5.444 0 0 1 95.461 3.833 A 4.828 4.828 0 0 1 95.35 4.255 A 3.864 3.864 0 0 1 94.891 5.235 A 3.515 3.515 0 0 1 94.665 5.54 Q 94.21 6.09 93.53 6.405 A 3.316 3.316 0 0 1 92.667 6.664 A 4.505 4.505 0 0 1 91.94 6.72 Z M 6.88 6.72 L 6.58 6.72 L 7.9 0.12 L 9.5 0.12 A 4.046 4.046 0 0 1 9.952 0.144 Q 10.185 0.17 10.385 0.225 A 2.237 2.237 0 0 1 10.515 0.265 A 1.504 1.504 0 0 1 10.865 0.435 A 1.192 1.192 0 0 1 11.17 0.725 Q 11.386 1.02 11.399 1.478 A 2.1 2.1 0 0 1 11.4 1.54 A 2.146 2.146 0 0 1 11.341 2.05 A 1.805 1.805 0 0 1 11.215 2.405 Q 11.03 2.79 10.695 3.06 Q 10.36 3.33 9.905 3.475 A 3.101 3.101 0 0 1 9.18 3.611 A 3.68 3.68 0 0 1 8.92 3.62 L 7.5 3.62 L 6.88 6.72 Z M 104.101 6.778 A 2.232 2.232 0 0 0 104.64 6.84 A 2.637 2.637 0 0 0 104.79 6.836 A 2.203 2.203 0 0 0 105.71 6.585 Q 106.19 6.33 106.555 5.89 A 4.059 4.059 0 0 0 106.644 5.778 A 4.39 4.39 0 0 0 107.17 4.895 Q 107.42 4.34 107.55 3.735 Q 107.68 3.13 107.68 2.54 Q 107.68 1.8 107.44 1.225 A 2.436 2.436 0 0 0 107.342 1.018 A 1.962 1.962 0 0 0 106.74 0.325 A 1.711 1.711 0 0 0 106.159 0.062 A 2.232 2.232 0 0 0 105.62 0 A 2.637 2.637 0 0 0 105.47 0.004 A 2.203 2.203 0 0 0 104.55 0.255 Q 104.07 0.51 103.705 0.95 A 4.059 4.059 0 0 0 103.616 1.062 A 4.39 4.39 0 0 0 103.09 1.945 Q 102.84 2.5 102.71 3.105 Q 102.58 3.71 102.58 4.3 Q 102.58 5.04 102.82 5.615 A 2.436 2.436 0 0 0 102.918 5.822 A 1.962 1.962 0 0 0 103.52 6.515 A 1.711 1.711 0 0 0 104.101 6.778 Z M 58.94 5.75 L 58.94 6.1 L 55.32 3.55 L 55.32 3.25 L 58.94 0.7 L 58.94 1.05 L 55.62 3.38 L 55.62 3.42 L 58.94 5.75 Z M 43.94 0.38 L 42.72 6.46 L 43.96 6.46 A 3.867 3.867 0 0 0 44.811 6.371 A 2.82 2.82 0 0 0 45.78 5.96 Q 46.52 5.46 46.9 4.605 Q 47.28 3.75 47.28 2.7 A 2.96 2.96 0 0 0 47.193 1.962 A 2.142 2.142 0 0 0 46.685 1.02 A 1.85 1.85 0 0 0 45.903 0.53 Q 45.602 0.429 45.235 0.396 A 4.181 4.181 0 0 0 44.86 0.38 L 43.94 0.38 Z M 91.94 0.38 L 90.72 6.46 L 91.96 6.46 A 3.867 3.867 0 0 0 92.811 6.371 A 2.82 2.82 0 0 0 93.78 5.96 Q 94.52 5.46 94.9 4.605 Q 95.28 3.75 95.28 2.7 A 2.96 2.96 0 0 0 95.193 1.962 A 2.142 2.142 0 0 0 94.685 1.02 A 1.85 1.85 0 0 0 93.903 0.53 Q 93.602 0.429 93.235 0.396 A 4.181 4.181 0 0 0 92.86 0.38 L 91.94 0.38 Z M 104.66 6.58 A 1.976 1.976 0 0 0 105.327 6.469 A 1.828 1.828 0 0 0 105.62 6.335 A 2.607 2.607 0 0 0 106.317 5.751 A 2.999 2.999 0 0 0 106.38 5.675 A 3.963 3.963 0 0 0 106.899 4.813 A 4.44 4.44 0 0 0 106.93 4.74 Q 107.15 4.22 107.265 3.66 A 5.587 5.587 0 0 0 107.371 2.876 A 4.865 4.865 0 0 0 107.38 2.58 A 4.056 4.056 0 0 0 107.337 1.977 A 3.011 3.011 0 0 0 107.185 1.375 A 1.975 1.975 0 0 0 106.945 0.914 A 1.612 1.612 0 0 0 106.595 0.555 A 1.448 1.448 0 0 0 106.013 0.3 A 2.041 2.041 0 0 0 105.6 0.26 A 1.976 1.976 0 0 0 104.933 0.371 A 1.828 1.828 0 0 0 104.64 0.505 A 2.607 2.607 0 0 0 103.943 1.089 A 2.999 2.999 0 0 0 103.88 1.165 A 3.963 3.963 0 0 0 103.361 2.027 A 4.44 4.44 0 0 0 103.33 2.1 Q 103.11 2.62 102.995 3.18 A 5.587 5.587 0 0 0 102.889 3.964 A 4.865 4.865 0 0 0 102.88 4.26 A 4.056 4.056 0 0 0 102.923 4.863 A 3.011 3.011 0 0 0 103.075 5.465 A 1.975 1.975 0 0 0 103.315 5.926 A 1.612 1.612 0 0 0 103.665 6.285 A 1.448 1.448 0 0 0 104.247 6.54 A 2.041 2.041 0 0 0 104.66 6.58 Z M 8.14 0.38 L 7.56 3.36 L 8.78 3.36 Q 9.536 3.36 10.058 3.137 A 1.897 1.897 0 0 0 10.495 2.88 Q 11.1 2.4 11.1 1.56 A 1.48 1.48 0 0 0 11.063 1.216 A 0.869 0.869 0 0 0 10.655 0.645 A 1.539 1.539 0 0 0 10.296 0.494 Q 9.943 0.391 9.434 0.381 A 5.69 5.69 0 0 0 9.32 0.38 L 8.14 0.38 Z M 10.18 6.72 L 8.9 3.6 L 9.18 3.48 L 10.52 6.72 L 10.18 6.72 Z M 4.45 4.34 L 1.58 4.34 L 1.66 4.08 L 4.46 4.08 L 4.45 4.34 Z" vector-effect="non-scaling-stroke"/></g></svg>
