<svg width="142.7" height="7" viewBox="0 0 142.7 7" xmlns="http://www.w3.org/2000/svg"><g id="svgGroup" stroke-linecap="round" fill-rule="evenodd" font-size="9pt" stroke="#000" stroke-width="0.25mm" fill="black" style="stroke:#000;stroke-width:0.25mm;fill:black"><path d="M 95.34 6.88 L 95.04 6.88 L 96.36 0.28 L 96.8 0.28 L 97.4 3.75 L 97.53 4.69 L 97.57 4.69 L 98.07 3.74 L 100.09 0.28 L 100.52 0.28 L 99.2 6.88 L 98.9 6.88 L 99.91 1.86 Q 99.94 1.71 99.975 1.555 L 100.045 1.245 Q 100.08 1.09 100.12 0.93 Q 100.16 0.77 100.2 0.62 L 100.16 0.62 Q 100.08 0.79 99.99 0.965 Q 99.9 1.14 99.8 1.325 A 17.305 17.305 0 0 1 99.695 1.516 A 21.341 21.341 0 0 1 99.58 1.72 L 97.63 5.07 L 97.33 5.07 L 96.78 1.71 Q 96.76 1.59 96.735 1.455 Q 96.71 1.32 96.69 1.18 Q 96.67 1.04 96.645 0.895 A 16.789 16.789 0 0 1 96.621 0.754 A 14.193 14.193 0 0 1 96.6 0.62 L 96.56 0.62 A 10.553 10.553 0 0 1 96.492 1.017 A 11.091 11.091 0 0 1 96.49 1.03 Q 96.45 1.24 96.415 1.45 Q 96.38 1.66 96.34 1.86 L 95.34 6.88 Z M 29.97 6.88 L 29.51 6.88 L 29.81 0.28 L 30.1 0.28 L 29.85 5.48 A 17.311 17.311 0 0 1 29.838 5.792 Q 29.831 5.959 29.82 6.105 Q 29.8 6.38 29.79 6.53 L 29.78 6.68 L 29.82 6.68 A 35.96 35.96 0 0 1 29.86 6.584 Q 29.878 6.541 29.898 6.494 A 67.181 67.181 0 0 1 29.94 6.395 A 56.389 56.389 0 0 0 30.048 6.139 A 63.816 63.816 0 0 0 30.085 6.05 Q 30.16 5.87 30.23 5.71 Q 30.284 5.588 30.32 5.506 A 24.764 24.764 0 0 1 30.34 5.46 L 31.86 2.21 L 32.21 2.21 L 32.54 4.78 Q 32.58 5.04 32.62 5.4 Q 32.66 5.76 32.7 6.095 A 15.259 15.259 0 0 1 32.718 6.253 Q 32.737 6.425 32.746 6.549 A 3.942 3.942 0 0 1 32.75 6.62 L 32.81 6.62 A 9.413 9.413 0 0 0 32.834 6.53 Q 32.844 6.49 32.856 6.445 A 19.313 19.313 0 0 0 32.88 6.35 Q 32.92 6.19 32.97 6.015 A 87.348 87.348 0 0 0 33.042 5.761 A 76.314 76.314 0 0 0 33.065 5.68 Q 33.096 5.57 33.12 5.484 A 24.293 24.293 0 0 0 33.14 5.41 L 34.75 0.28 L 35.03 0.28 L 32.97 6.88 L 32.52 6.88 L 32.13 3.72 Q 32.09 3.43 32.055 3.09 A 339.927 339.927 0 0 1 32.038 2.929 Q 32.022 2.771 32.01 2.651 A 102.655 102.655 0 0 1 32 2.55 L 31.95 2.55 Q 31.88 2.76 31.735 3.1 A 16.483 16.483 0 0 1 31.591 3.427 A 13.406 13.406 0 0 1 31.45 3.73 L 29.97 6.88 Z M 35.4 6.88 L 35.1 6.88 L 36.42 0.28 L 36.74 0.28 L 38.52 5.16 L 38.98 6.46 L 39.02 6.46 Q 39.06 6.23 39.095 6.005 Q 39.13 5.78 39.17 5.555 Q 39.21 5.33 39.255 5.105 Q 39.3 4.88 39.34 4.66 L 40.2 0.28 L 40.5 0.28 L 39.18 6.88 L 38.86 6.88 L 37.08 2 L 36.62 0.7 L 36.58 0.7 Q 36.53 1.01 36.48 1.305 Q 36.43 1.6 36.375 1.895 Q 36.32 2.19 36.26 2.5 L 35.4 6.88 Z M 9.46 6.88 L 5.52 6.88 L 6.84 0.28 L 10.7 0.28 L 10.64 0.54 L 7.08 0.54 L 6.54 3.24 L 9.52 3.24 L 9.46 3.5 L 6.5 3.5 L 5.86 6.62 L 9.52 6.62 L 9.46 6.88 Z M 105.46 6.88 L 101.52 6.88 L 102.84 0.28 L 106.7 0.28 L 106.64 0.54 L 103.08 0.54 L 102.54 3.24 L 105.52 3.24 L 105.46 3.5 L 102.5 3.5 L 101.86 6.62 L 105.52 6.62 L 105.46 6.88 Z M 111.46 6.88 L 107.52 6.88 L 108.84 0.28 L 112.7 0.28 L 112.64 0.54 L 109.08 0.54 L 108.54 3.24 L 111.52 3.24 L 111.46 3.5 L 108.5 3.5 L 107.86 6.62 L 111.52 6.62 L 111.46 6.88 Z M 141.46 6.88 L 137.52 6.88 L 138.84 0.28 L 142.7 0.28 L 142.64 0.54 L 139.08 0.54 L 138.54 3.24 L 141.52 3.24 L 141.46 3.5 L 138.5 3.5 L 137.86 6.62 L 141.52 6.62 L 141.46 6.88 Z M 83.22 5.9 L 83.46 5.74 Q 83.78 6.22 84.24 6.48 A 1.958 1.958 0 0 0 84.85 6.697 A 2.675 2.675 0 0 0 85.34 6.74 Q 85.84 6.74 86.245 6.54 Q 86.65 6.34 86.885 5.975 A 1.474 1.474 0 0 0 87.107 5.343 A 1.876 1.876 0 0 0 87.12 5.12 A 1.435 1.435 0 0 0 87.072 4.74 A 1.142 1.142 0 0 0 86.885 4.355 A 1.857 1.857 0 0 0 86.489 3.967 A 2.31 2.31 0 0 0 86.26 3.82 L 85.38 3.3 Q 84.98 3.06 84.66 2.7 A 1.26 1.26 0 0 1 84.342 1.902 A 1.63 1.63 0 0 1 84.34 1.82 Q 84.34 1.38 84.57 1 Q 84.8 0.62 85.215 0.39 A 1.823 1.823 0 0 1 85.848 0.183 A 2.357 2.357 0 0 1 86.18 0.16 A 2.35 2.35 0 0 1 86.744 0.225 A 1.902 1.902 0 0 1 87.235 0.42 Q 87.69 0.68 87.94 1.04 L 87.72 1.22 A 2.065 2.065 0 0 0 87.283 0.797 A 2.541 2.541 0 0 0 87.065 0.655 A 1.731 1.731 0 0 0 86.429 0.441 A 2.233 2.233 0 0 0 86.12 0.42 A 1.704 1.704 0 0 0 85.724 0.464 A 1.332 1.332 0 0 0 85.34 0.62 A 1.487 1.487 0 0 0 84.901 1.019 A 1.433 1.433 0 0 0 84.825 1.135 A 1.361 1.361 0 0 0 84.675 1.494 A 1.173 1.173 0 0 0 84.64 1.78 A 1.384 1.384 0 0 0 84.678 2.113 A 0.971 0.971 0 0 0 84.91 2.55 Q 85.18 2.84 85.52 3.04 L 86.38 3.54 A 3.154 3.154 0 0 1 86.763 3.8 A 2.693 2.693 0 0 1 86.925 3.94 Q 87.16 4.16 87.29 4.44 A 1.386 1.386 0 0 1 87.404 4.839 A 1.784 1.784 0 0 1 87.42 5.08 Q 87.42 5.66 87.14 6.09 Q 86.86 6.52 86.38 6.76 A 2.284 2.284 0 0 1 85.575 6.987 A 2.805 2.805 0 0 1 85.3 7 A 2.857 2.857 0 0 1 84.663 6.932 A 2.24 2.24 0 0 1 84.075 6.71 Q 83.55 6.42 83.22 5.9 Z M 131.22 5.9 L 131.46 5.74 Q 131.78 6.22 132.24 6.48 A 1.958 1.958 0 0 0 132.85 6.697 A 2.675 2.675 0 0 0 133.34 6.74 Q 133.84 6.74 134.245 6.54 Q 134.65 6.34 134.885 5.975 A 1.474 1.474 0 0 0 135.107 5.343 A 1.876 1.876 0 0 0 135.12 5.12 A 1.435 1.435 0 0 0 135.072 4.74 A 1.142 1.142 0 0 0 134.885 4.355 A 1.857 1.857 0 0 0 134.489 3.967 A 2.31 2.31 0 0 0 134.26 3.82 L 133.38 3.3 Q 132.98 3.06 132.66 2.7 A 1.26 1.26 0 0 1 132.342 1.902 A 1.63 1.63 0 0 1 132.34 1.82 Q 132.34 1.38 132.57 1 Q 132.8 0.62 133.215 0.39 A 1.823 1.823 0 0 1 133.848 0.183 A 2.357 2.357 0 0 1 134.18 0.16 A 2.35 2.35 0 0 1 134.744 0.225 A 1.902 1.902 0 0 1 135.235 0.42 Q 135.69 0.68 135.94 1.04 L 135.72 1.22 A 2.065 2.065 0 0 0 135.283 0.797 A 2.541 2.541 0 0 0 135.065 0.655 A 1.731 1.731 0 0 0 134.429 0.441 A 2.233 2.233 0 0 0 134.12 0.42 A 1.704 1.704 0 0 0 133.724 0.464 A 1.332 1.332 0 0 0 133.34 0.62 A 1.487 1.487 0 0 0 132.901 1.019 A 1.433 1.433 0 0 0 132.825 1.135 A 1.361 1.361 0 0 0 132.675 1.494 A 1.173 1.173 0 0 0 132.64 1.78 A 1.384 1.384 0 0 0 132.678 2.113 A 0.971 0.971 0 0 0 132.91 2.55 Q 133.18 2.84 133.52 3.04 L 134.38 3.54 A 3.154 3.154 0 0 1 134.763 3.8 A 2.693 2.693 0 0 1 134.925 3.94 Q 135.16 4.16 135.29 4.44 A 1.386 1.386 0 0 1 135.404 4.839 A 1.784 1.784 0 0 1 135.42 5.08 Q 135.42 5.66 135.14 6.09 Q 134.86 6.52 134.38 6.76 A 2.284 2.284 0 0 1 133.575 6.987 A 2.805 2.805 0 0 1 133.3 7 A 2.857 2.857 0 0 1 132.663 6.932 A 2.24 2.24 0 0 1 132.075 6.71 Q 131.55 6.42 131.22 5.9 Z M 124.98 6.88 L 124.66 6.88 L 128.4 0.28 L 128.7 0.28 L 129.62 6.88 L 129.32 6.88 L 128.8 2.92 Q 128.73 2.36 128.66 1.76 Q 128.59 1.16 128.51 0.61 L 128.46 0.61 A 96.825 96.825 0 0 0 127.985 1.47 A 84.872 84.872 0 0 0 127.835 1.745 A 1490.936 1490.936 0 0 1 127.378 2.588 A 1680.708 1680.708 0 0 1 127.22 2.88 L 124.98 6.88 Z M 55.3 6.88 L 54.96 6.88 L 54.24 0.28 L 54.52 0.28 L 54.94 4.27 Q 55 4.82 55.06 5.38 L 55.18 6.5 L 55.22 6.5 A 91.694 91.694 0 0 1 55.589 5.807 A 100.85 100.85 0 0 1 55.615 5.76 Q 55.82 5.38 56.025 5.005 A 288.795 288.795 0 0 0 56.324 4.457 A 259.187 259.187 0 0 0 56.42 4.28 L 58.6 0.28 L 58.91 0.28 L 55.3 6.88 Z M 68.98 6.88 L 65.24 6.88 L 65.3 6.62 L 67 6.62 L 68.22 0.54 L 66.5 0.54 L 66.56 0.28 L 70.32 0.28 L 70.26 0.54 L 68.52 0.54 L 67.3 6.62 L 69.04 6.62 L 68.98 6.88 Z M 13.26 6.88 L 12.96 6.88 L 14.22 0.56 L 11.88 0.56 L 11.94 0.28 L 16.92 0.28 L 16.86 0.56 L 14.52 0.56 L 13.26 6.88 Z M 43.26 6.88 L 42.96 6.88 L 44.22 0.56 L 41.88 0.56 L 41.94 0.28 L 46.92 0.28 L 46.86 0.56 L 44.52 0.56 L 43.26 6.88 Z M 115.26 6.88 L 114.96 6.88 L 116.22 0.56 L 113.88 0.56 L 113.94 0.28 L 118.92 0.28 L 118.86 0.56 L 116.52 0.56 L 115.26 6.88 Z M 121.18 6.88 L 119.28 6.88 L 120.6 0.28 L 122.16 0.28 A 4.095 4.095 0 0 1 122.597 0.302 Q 122.813 0.325 122.996 0.373 A 1.924 1.924 0 0 1 123.23 0.45 A 1.551 1.551 0 0 1 123.546 0.62 A 1.153 1.153 0 0 1 123.855 0.94 A 1.287 1.287 0 0 1 124.042 1.449 A 1.683 1.683 0 0 1 124.06 1.7 A 1.705 1.705 0 0 1 124.01 2.123 A 1.335 1.335 0 0 1 123.815 2.555 A 1.861 1.861 0 0 1 123.393 2.997 A 1.728 1.728 0 0 1 123.22 3.11 A 2.475 2.475 0 0 1 122.927 3.254 Q 122.772 3.317 122.627 3.348 A 1.438 1.438 0 0 1 122.56 3.36 L 122.56 3.4 Q 122.88 3.47 123.17 3.645 Q 123.46 3.82 123.64 4.11 A 1.163 1.163 0 0 1 123.79 4.499 A 1.635 1.635 0 0 1 123.82 4.82 A 2.441 2.441 0 0 1 123.77 5.329 Q 123.691 5.698 123.49 5.975 Q 123.16 6.43 122.565 6.655 A 3.354 3.354 0 0 1 121.878 6.831 Q 121.561 6.878 121.203 6.88 A 5.504 5.504 0 0 1 121.18 6.88 Z M 3.82 6.88 L 0 6.88 L 1.32 0.28 L 1.62 0.28 L 0.36 6.62 L 3.88 6.62 L 3.82 6.88 Z M 18.6 6.88 L 17.04 6.88 L 18.36 0.28 L 19.54 0.28 A 4.27 4.27 0 0 1 20.291 0.342 Q 20.709 0.416 21.035 0.582 A 1.958 1.958 0 0 1 21.575 0.98 A 2.364 2.364 0 0 1 22.178 2.176 A 3.406 3.406 0 0 1 22.24 2.84 A 5.444 5.444 0 0 1 22.121 3.993 A 4.828 4.828 0 0 1 22.01 4.415 A 3.864 3.864 0 0 1 21.551 5.395 A 3.515 3.515 0 0 1 21.325 5.7 Q 20.87 6.25 20.19 6.565 A 3.316 3.316 0 0 1 19.327 6.824 A 4.505 4.505 0 0 1 18.6 6.88 Z M 72.6 6.88 L 71.04 6.88 L 72.36 0.28 L 73.54 0.28 A 4.27 4.27 0 0 1 74.291 0.342 Q 74.709 0.416 75.035 0.582 A 1.958 1.958 0 0 1 75.575 0.98 A 2.364 2.364 0 0 1 76.178 2.176 A 3.406 3.406 0 0 1 76.24 2.84 A 5.444 5.444 0 0 1 76.121 3.993 A 4.828 4.828 0 0 1 76.01 4.415 A 3.864 3.864 0 0 1 75.551 5.395 A 3.515 3.515 0 0 1 75.325 5.7 Q 74.87 6.25 74.19 6.565 A 3.316 3.316 0 0 1 73.327 6.824 A 4.505 4.505 0 0 1 72.6 6.88 Z M 24.761 6.938 A 2.232 2.232 0 0 0 25.3 7 A 2.637 2.637 0 0 0 25.45 6.996 A 2.203 2.203 0 0 0 26.37 6.745 Q 26.85 6.49 27.215 6.05 A 4.059 4.059 0 0 0 27.304 5.938 A 4.39 4.39 0 0 0 27.83 5.055 Q 28.08 4.5 28.21 3.895 Q 28.34 3.29 28.34 2.7 Q 28.34 1.96 28.1 1.385 A 2.436 2.436 0 0 0 28.002 1.178 A 1.962 1.962 0 0 0 27.4 0.485 A 1.711 1.711 0 0 0 26.819 0.222 A 2.232 2.232 0 0 0 26.28 0.16 A 2.637 2.637 0 0 0 26.13 0.164 A 2.203 2.203 0 0 0 25.21 0.415 Q 24.73 0.67 24.365 1.11 A 4.059 4.059 0 0 0 24.276 1.222 A 4.39 4.39 0 0 0 23.75 2.105 Q 23.5 2.66 23.37 3.265 Q 23.24 3.87 23.24 4.46 Q 23.24 5.2 23.48 5.775 A 2.436 2.436 0 0 0 23.578 5.982 A 1.962 1.962 0 0 0 24.18 6.675 A 1.711 1.711 0 0 0 24.761 6.938 Z M 48.761 6.938 A 2.232 2.232 0 0 0 49.3 7 A 2.637 2.637 0 0 0 49.45 6.996 A 2.203 2.203 0 0 0 50.37 6.745 Q 50.85 6.49 51.215 6.05 A 4.059 4.059 0 0 0 51.304 5.938 A 4.39 4.39 0 0 0 51.83 5.055 Q 52.08 4.5 52.21 3.895 Q 52.34 3.29 52.34 2.7 Q 52.34 1.96 52.1 1.385 A 2.436 2.436 0 0 0 52.002 1.178 A 1.962 1.962 0 0 0 51.4 0.485 A 1.711 1.711 0 0 0 50.819 0.222 A 2.232 2.232 0 0 0 50.28 0.16 A 2.637 2.637 0 0 0 50.13 0.164 A 2.203 2.203 0 0 0 49.21 0.415 Q 48.73 0.67 48.365 1.11 A 4.059 4.059 0 0 0 48.276 1.222 A 4.39 4.39 0 0 0 47.75 2.105 Q 47.5 2.66 47.37 3.265 Q 47.24 3.87 47.24 4.46 Q 47.24 5.2 47.48 5.775 A 2.436 2.436 0 0 0 47.578 5.982 A 1.962 1.962 0 0 0 48.18 6.675 A 1.711 1.711 0 0 0 48.761 6.938 Z M 60.761 6.938 A 2.232 2.232 0 0 0 61.3 7 A 2.637 2.637 0 0 0 61.45 6.996 A 2.203 2.203 0 0 0 62.37 6.745 Q 62.85 6.49 63.215 6.05 A 4.059 4.059 0 0 0 63.304 5.938 A 4.39 4.39 0 0 0 63.83 5.055 Q 64.08 4.5 64.21 3.895 Q 64.34 3.29 64.34 2.7 Q 64.34 1.96 64.1 1.385 A 2.436 2.436 0 0 0 64.002 1.178 A 1.962 1.962 0 0 0 63.4 0.485 A 1.711 1.711 0 0 0 62.819 0.222 A 2.232 2.232 0 0 0 62.28 0.16 A 2.637 2.637 0 0 0 62.13 0.164 A 2.203 2.203 0 0 0 61.21 0.415 Q 60.73 0.67 60.365 1.11 A 4.059 4.059 0 0 0 60.276 1.222 A 4.39 4.39 0 0 0 59.75 2.105 Q 59.5 2.66 59.37 3.265 Q 59.24 3.87 59.24 4.46 Q 59.24 5.2 59.48 5.775 A 2.436 2.436 0 0 0 59.578 5.982 A 1.962 1.962 0 0 0 60.18 6.675 A 1.711 1.711 0 0 0 60.761 6.938 Z M 18.6 0.54 L 17.38 6.62 L 18.62 6.62 A 3.867 3.867 0 0 0 19.471 6.531 A 2.82 2.82 0 0 0 20.44 6.12 Q 21.18 5.62 21.56 4.765 Q 21.94 3.91 21.94 2.86 A 2.96 2.96 0 0 0 21.853 2.122 A 2.142 2.142 0 0 0 21.345 1.18 A 1.85 1.85 0 0 0 20.563 0.69 Q 20.262 0.589 19.895 0.556 A 4.181 4.181 0 0 0 19.52 0.54 L 18.6 0.54 Z M 72.6 0.54 L 71.38 6.62 L 72.62 6.62 A 3.867 3.867 0 0 0 73.471 6.531 A 2.82 2.82 0 0 0 74.44 6.12 Q 75.18 5.62 75.56 4.765 Q 75.94 3.91 75.94 2.86 A 2.96 2.96 0 0 0 75.853 2.122 A 2.142 2.142 0 0 0 75.345 1.18 A 1.85 1.85 0 0 0 74.563 0.69 Q 74.262 0.589 73.895 0.556 A 4.181 4.181 0 0 0 73.52 0.54 L 72.6 0.54 Z M 25.32 6.74 A 1.976 1.976 0 0 0 25.987 6.629 A 1.828 1.828 0 0 0 26.28 6.495 A 2.607 2.607 0 0 0 26.977 5.911 A 2.999 2.999 0 0 0 27.04 5.835 A 3.963 3.963 0 0 0 27.559 4.973 A 4.44 4.44 0 0 0 27.59 4.9 Q 27.81 4.38 27.925 3.82 A 5.587 5.587 0 0 0 28.031 3.036 A 4.865 4.865 0 0 0 28.04 2.74 A 4.056 4.056 0 0 0 27.997 2.137 A 3.011 3.011 0 0 0 27.845 1.535 A 1.975 1.975 0 0 0 27.605 1.074 A 1.612 1.612 0 0 0 27.255 0.715 A 1.448 1.448 0 0 0 26.673 0.46 A 2.041 2.041 0 0 0 26.26 0.42 A 1.976 1.976 0 0 0 25.593 0.531 A 1.828 1.828 0 0 0 25.3 0.665 A 2.607 2.607 0 0 0 24.603 1.249 A 2.999 2.999 0 0 0 24.54 1.325 A 3.963 3.963 0 0 0 24.021 2.187 A 4.44 4.44 0 0 0 23.99 2.26 Q 23.77 2.78 23.655 3.34 A 5.587 5.587 0 0 0 23.549 4.124 A 4.865 4.865 0 0 0 23.54 4.42 A 4.056 4.056 0 0 0 23.583 5.023 A 3.011 3.011 0 0 0 23.735 5.625 A 1.975 1.975 0 0 0 23.975 6.086 A 1.612 1.612 0 0 0 24.325 6.445 A 1.448 1.448 0 0 0 24.907 6.7 A 2.041 2.041 0 0 0 25.32 6.74 Z M 49.32 6.74 A 1.976 1.976 0 0 0 49.987 6.629 A 1.828 1.828 0 0 0 50.28 6.495 A 2.607 2.607 0 0 0 50.977 5.911 A 2.999 2.999 0 0 0 51.04 5.835 A 3.963 3.963 0 0 0 51.559 4.973 A 4.44 4.44 0 0 0 51.59 4.9 Q 51.81 4.38 51.925 3.82 A 5.587 5.587 0 0 0 52.031 3.036 A 4.865 4.865 0 0 0 52.04 2.74 A 4.056 4.056 0 0 0 51.997 2.137 A 3.011 3.011 0 0 0 51.845 1.535 A 1.975 1.975 0 0 0 51.605 1.074 A 1.612 1.612 0 0 0 51.255 0.715 A 1.448 1.448 0 0 0 50.673 0.46 A 2.041 2.041 0 0 0 50.26 0.42 A 1.976 1.976 0 0 0 49.593 0.531 A 1.828 1.828 0 0 0 49.3 0.665 A 2.607 2.607 0 0 0 48.603 1.249 A 2.999 2.999 0 0 0 48.54 1.325 A 3.963 3.963 0 0 0 48.021 2.187 A 4.44 4.44 0 0 0 47.99 2.26 Q 47.77 2.78 47.655 3.34 A 5.587 5.587 0 0 0 47.549 4.124 A 4.865 4.865 0 0 0 47.54 4.42 A 4.056 4.056 0 0 0 47.583 5.023 A 3.011 3.011 0 0 0 47.735 5.625 A 1.975 1.975 0 0 0 47.975 6.086 A 1.612 1.612 0 0 0 48.325 6.445 A 1.448 1.448 0 0 0 48.907 6.7 A 2.041 2.041 0 0 0 49.32 6.74 Z M 61.32 6.74 A 1.976 1.976 0 0 0 61.987 6.629 A 1.828 1.828 0 0 0 62.28 6.495 A 2.607 2.607 0 0 0 62.977 5.911 A 2.999 2.999 0 0 0 63.04 5.835 A 3.963 3.963 0 0 0 63.559 4.973 A 4.44 4.44 0 0 0 63.59 4.9 Q 63.81 4.38 63.925 3.82 A 5.587 5.587 0 0 0 64.031 3.036 A 4.865 4.865 0 0 0 64.04 2.74 A 4.056 4.056 0 0 0 63.997 2.137 A 3.011 3.011 0 0 0 63.845 1.535 A 1.975 1.975 0 0 0 63.605 1.074 A 1.612 1.612 0 0 0 63.255 0.715 A 1.448 1.448 0 0 0 62.673 0.46 A 2.041 2.041 0 0 0 62.26 0.42 A 1.976 1.976 0 0 0 61.593 0.531 A 1.828 1.828 0 0 0 61.3 0.665 A 2.607 2.607 0 0 0 60.603 1.249 A 2.999 2.999 0 0 0 60.54 1.325 A 3.963 3.963 0 0 0 60.021 2.187 A 4.44 4.44 0 0 0 59.99 2.26 Q 59.77 2.78 59.655 3.34 A 5.587 5.587 0 0 0 59.549 4.124 A 4.865 4.865 0 0 0 59.54 4.42 A 4.056 4.056 0 0 0 59.583 5.023 A 3.011 3.011 0 0 0 59.735 5.625 A 1.975 1.975 0 0 0 59.975 6.086 A 1.612 1.612 0 0 0 60.325 6.445 A 1.448 1.448 0 0 0 60.907 6.7 A 2.041 2.041 0 0 0 61.32 6.74 Z M 120.26 3.5 L 119.62 6.62 L 121 6.62 Q 121.712 6.62 122.261 6.462 A 3.282 3.282 0 0 0 122.32 6.445 A 2.108 2.108 0 0 0 122.769 6.251 A 1.582 1.582 0 0 0 123.205 5.88 A 1.36 1.36 0 0 0 123.464 5.346 Q 123.52 5.12 123.52 4.85 A 1.161 1.161 0 0 0 123.135 3.972 A 1.58 1.58 0 0 0 123.035 3.885 Q 122.649 3.579 122.008 3.516 A 3.577 3.577 0 0 0 121.66 3.5 L 120.26 3.5 Z M 120.84 0.54 L 120.3 3.24 L 121.48 3.24 Q 122.591 3.24 123.161 2.831 A 1.501 1.501 0 0 0 123.19 2.81 A 1.545 1.545 0 0 0 123.543 2.447 A 1.264 1.264 0 0 0 123.76 1.72 Q 123.76 1.16 123.37 0.85 A 1.09 1.09 0 0 0 123.069 0.687 Q 122.762 0.573 122.288 0.547 A 5.376 5.376 0 0 0 122 0.54 L 120.84 0.54 Z M 80.02 2.94 L 79.76 2.94 L 80.02 0.8 L 80.2 0 L 80.79 0 L 80.64 0.8 L 80.02 2.94 Z M 129.11 4.5 L 126.24 4.5 L 126.32 4.24 L 129.12 4.24 L 129.11 4.5 Z" vector-effect="non-scaling-stroke"/></g></svg>
